<svg width="712" height="420" viewBox="0 0 712 420" fill="none" xmlns="http://www.w3.org/2000/svg">
<g clip-path="url(#clip0_322_269)">
<path opacity="0.05" d="M41.2287 0.121571L1.14235 41.7227" stroke="#4763FF" stroke-width="1.99878"/>
<path opacity="0.1" d="M81.1882 0.242909L41.1018 41.8441" stroke="#4763FF" stroke-width="1.99878"/>
<path opacity="0.16" d="M81.1882 0.243164L121.021 42.0875" stroke="#4763FF" stroke-width="1.99878"/>
<path opacity="0.21" d="M161.107 0.486317L121.021 42.0875" stroke="#4763FF" stroke-width="1.99878"/>
<path opacity="0.26" d="M161.107 0.486084L200.939 42.3304" stroke="#4763FF" stroke-width="1.99878"/>
<path opacity="0.32" d="M201.066 0.607666L240.899 42.452" stroke="#4763FF" stroke-width="1.99878"/>
<path opacity="0.37" d="M280.985 0.850819L240.899 42.452" stroke="#4763FF" stroke-width="1.99878"/>
<path opacity="0.42" d="M280.985 0.85083L320.818 42.6951" stroke="#4763FF" stroke-width="1.99878"/>
<path opacity="0.48" d="M320.945 0.972412L360.777 42.8167" stroke="#4763FF" stroke-width="1.99878"/>
<path opacity="0.53" d="M360.904 1.09399L400.737 42.9383" stroke="#4763FF" stroke-width="1.99878"/>
<path opacity="0.58" d="M440.823 1.33715L400.737 42.9383" stroke="#4763FF" stroke-width="1.99878"/>
<path opacity="0.64" d="M480.782 1.45873L440.696 43.0599" stroke="#4763FF" stroke-width="1.99878"/>
<path opacity="0.69" d="M480.782 1.45874L520.615 43.303" stroke="#4763FF" stroke-width="1.99878"/>
<path opacity="0.74" d="M560.701 1.70189L520.615 43.303" stroke="#4763FF" stroke-width="1.99878"/>
<path opacity="0.8" d="M560.701 1.7019L600.533 43.5462" stroke="#4763FF" stroke-width="1.99878"/>
<path opacity="0.85" d="M600.661 1.82349L640.493 43.6678" stroke="#4763FF" stroke-width="1.99878"/>
<path opacity="0.91" d="M640.62 1.94507L680.452 43.7894" stroke="#4763FF" stroke-width="1.99878"/>
<path opacity="0.96" d="M680.579 2.06665L720.412 43.9109" stroke="#4763FF" stroke-width="1.99878"/>
<path opacity="0.05" d="M41.1015 41.8442L1.01515 83.4454" stroke="#4763FF" stroke-width="1.99878"/>
<path opacity="0.1" d="M81.0612 41.9658L40.9749 83.567" stroke="#4763FF" stroke-width="1.99878"/>
<path opacity="0.16" d="M81.061 41.9658L120.894 83.8101" stroke="#4763FF" stroke-width="1.99878"/>
<path opacity="0.21" d="M160.98 42.209L120.894 83.8101" stroke="#4763FF" stroke-width="1.99878"/>
<path opacity="0.26" d="M160.98 42.209L200.812 84.0533" stroke="#4763FF" stroke-width="1.99878"/>
<path opacity="0.32" d="M200.939 42.3306L240.772 84.1749" stroke="#4763FF" stroke-width="1.99878"/>
<path opacity="0.37" d="M240.899 42.4521L280.731 84.2964" stroke="#4763FF" stroke-width="1.99878"/>
<path opacity="0.42" d="M320.818 42.6953L280.731 84.2965" stroke="#4763FF" stroke-width="1.99878"/>
<path opacity="0.48" d="M360.777 42.8166L320.691 84.4178" stroke="#4763FF" stroke-width="1.99878"/>
<path opacity="0.53" d="M360.777 42.8169L400.609 84.6612" stroke="#4763FF" stroke-width="1.99878"/>
<path opacity="0.58" d="M400.736 42.9385L440.569 84.7828" stroke="#4763FF" stroke-width="1.99878"/>
<path opacity="0.64" d="M440.696 43.0601L480.528 84.9044" stroke="#4763FF" stroke-width="1.99878"/>
<path opacity="0.69" d="M480.655 43.1816L520.488 85.0259" stroke="#4763FF" stroke-width="1.99878"/>
<path opacity="0.74" d="M520.615 43.303L560.447 85.1473" stroke="#4763FF" stroke-width="1.99878"/>
<path opacity="0.8" d="M600.534 43.5461L560.447 85.1473" stroke="#4763FF" stroke-width="1.99878"/>
<path opacity="0.85" d="M600.533 43.5461L640.366 85.3904" stroke="#4763FF" stroke-width="1.99878"/>
<path opacity="0.91" d="M640.493 43.6677L680.326 85.512" stroke="#4763FF" stroke-width="1.99878"/>
<path opacity="0.96" d="M720.412 43.9109L680.325 85.512" stroke="#4763FF" stroke-width="1.99878"/>
<path opacity="0.05" d="M40.9749 83.5669L0.888568 125.168" stroke="#4763FF" stroke-width="1.99878"/>
<path opacity="0.1" d="M80.9343 83.6887L40.8479 125.29" stroke="#4763FF" stroke-width="1.99878"/>
<path opacity="0.16" d="M80.9343 83.6885L120.767 125.533" stroke="#4763FF" stroke-width="1.99878"/>
<path opacity="0.21" d="M160.853 83.9316L120.767 125.533" stroke="#4763FF" stroke-width="1.99878"/>
<path opacity="0.26" d="M160.853 83.9316L200.685 125.776" stroke="#4763FF" stroke-width="1.99878"/>
<path opacity="0.32" d="M240.772 84.1748L200.686 125.776" stroke="#4763FF" stroke-width="1.99878"/>
<path opacity="0.37" d="M280.731 84.2964L240.645 125.898" stroke="#4763FF" stroke-width="1.99878"/>
<path opacity="0.42" d="M280.731 84.2964L320.564 126.141" stroke="#4763FF" stroke-width="1.99878"/>
<path opacity="0.48" d="M360.65 84.5393L320.564 126.14" stroke="#4763FF" stroke-width="1.99878"/>
<path opacity="0.53" d="M400.61 84.6611L360.523 126.262" stroke="#4763FF" stroke-width="1.99878"/>
<path opacity="0.58" d="M440.569 84.7827L400.483 126.384" stroke="#4763FF" stroke-width="1.99878"/>
<path opacity="0.64" d="M440.569 84.7827L480.401 126.627" stroke="#4763FF" stroke-width="1.99878"/>
<path opacity="0.69" d="M520.488 85.0259L480.402 126.627" stroke="#4763FF" stroke-width="1.99878"/>
<path opacity="0.74" d="M520.488 85.0256L560.321 126.87" stroke="#4763FF" stroke-width="1.99878"/>
<path opacity="0.8" d="M560.447 85.1475L600.279 126.992" stroke="#4763FF" stroke-width="1.99878"/>
<path opacity="0.85" d="M640.366 85.3904L600.279 126.992" stroke="#4763FF" stroke-width="1.99878"/>
<path opacity="0.91" d="M680.326 85.5122L640.239 127.113" stroke="#4763FF" stroke-width="1.99878"/>
<path opacity="0.96" d="M680.325 85.512L720.158 127.356" stroke="#4763FF" stroke-width="1.99878"/>
<path opacity="0.05" d="M40.848 125.29L0.761614 166.891" stroke="#4763FF" stroke-width="1.99878"/>
<path opacity="0.1" d="M80.8073 125.411L40.721 167.013" stroke="#4763FF" stroke-width="1.99878"/>
<path opacity="0.16" d="M80.8071 125.411L120.64 167.255" stroke="#4763FF" stroke-width="1.99878"/>
<path opacity="0.21" d="M120.767 125.533L160.599 167.377" stroke="#4763FF" stroke-width="1.99878"/>
<path opacity="0.26" d="M200.685 125.776L160.599 167.377" stroke="#4763FF" stroke-width="1.99878"/>
<path opacity="0.32" d="M240.645 125.897L200.559 167.499" stroke="#4763FF" stroke-width="1.99878"/>
<path opacity="0.37" d="M240.645 125.897L280.477 167.742" stroke="#4763FF" stroke-width="1.99878"/>
<path opacity="0.42" d="M280.604 126.019L320.437 167.863" stroke="#4763FF" stroke-width="1.99878"/>
<path opacity="0.48" d="M320.564 126.141L360.396 167.985" stroke="#4763FF" stroke-width="1.99878"/>
<path opacity="0.53" d="M400.483 126.384L360.396 167.985" stroke="#4763FF" stroke-width="1.99878"/>
<path opacity="0.58" d="M400.483 126.384L440.315 168.228" stroke="#4763FF" stroke-width="1.99878"/>
<path opacity="0.64" d="M480.402 126.627L440.315 168.228" stroke="#4763FF" stroke-width="1.99878"/>
<path opacity="0.69" d="M520.361 126.749L480.274 168.35" stroke="#4763FF" stroke-width="1.99878"/>
<path opacity="0.74" d="M520.361 126.749L560.194 168.593" stroke="#4763FF" stroke-width="1.99878"/>
<path opacity="0.8" d="M560.32 126.87L600.153 168.714" stroke="#4763FF" stroke-width="1.99878"/>
<path opacity="0.85" d="M640.239 127.113L600.153 168.714" stroke="#4763FF" stroke-width="1.99878"/>
<path opacity="0.91" d="M680.198 127.235L640.112 168.836" stroke="#4763FF" stroke-width="1.99878"/>
<path opacity="0.96" d="M680.198 127.235L720.031 169.079" stroke="#4763FF" stroke-width="1.99878"/>
<path opacity="0.05" d="M40.7211 167.012L0.634783 208.614" stroke="#4763FF" stroke-width="1.99878"/>
<path opacity="0.1" d="M80.6806 167.134L40.5943 208.735" stroke="#4763FF" stroke-width="1.99878"/>
<path opacity="0.16" d="M80.6807 167.134L120.513 208.978" stroke="#4763FF" stroke-width="1.99878"/>
<path opacity="0.21" d="M160.599 167.377L120.513 208.978" stroke="#4763FF" stroke-width="1.99878"/>
<path opacity="0.26" d="M200.558 167.499L160.472 209.1" stroke="#4763FF" stroke-width="1.99878"/>
<path opacity="0.32" d="M240.518 167.62L200.432 209.221" stroke="#4763FF" stroke-width="1.99878"/>
<path opacity="0.37" d="M240.518 167.62L280.35 209.464" stroke="#4763FF" stroke-width="1.99878"/>
<path opacity="0.42" d="M280.477 167.742L320.31 209.586" stroke="#4763FF" stroke-width="1.99878"/>
<path opacity="0.48" d="M360.397 167.985L320.31 209.586" stroke="#4763FF" stroke-width="1.99878"/>
<path opacity="0.53" d="M360.396 167.985L400.229 209.829" stroke="#4763FF" stroke-width="1.99878"/>
<path opacity="0.58" d="M400.355 168.106L440.188 209.951" stroke="#4763FF" stroke-width="1.99878"/>
<path opacity="0.64" d="M480.275 168.35L440.188 209.951" stroke="#4763FF" stroke-width="1.99878"/>
<path opacity="0.69" d="M520.234 168.471L480.147 210.072" stroke="#4763FF" stroke-width="1.99878"/>
<path opacity="0.74" d="M520.234 168.471L560.066 210.315" stroke="#4763FF" stroke-width="1.99878"/>
<path opacity="0.8" d="M560.193 168.593L600.026 210.437" stroke="#4763FF" stroke-width="1.99878"/>
<path opacity="0.85" d="M640.112 168.836L600.026 210.437" stroke="#4763FF" stroke-width="1.99878"/>
<path opacity="0.91" d="M680.071 168.958L639.985 210.559" stroke="#4763FF" stroke-width="1.99878"/>
<path opacity="0.96" d="M720.031 169.079L679.944 210.68" stroke="#4763FF" stroke-width="1.99878"/>
<path opacity="0.05" d="M40.5942 208.735L0.50783 250.336" stroke="#4763FF" stroke-width="1.99878"/>
<path opacity="0.1" d="M80.5534 208.857L40.4671 250.458" stroke="#4763FF" stroke-width="1.99878"/>
<path opacity="0.16" d="M120.513 208.978L80.4265 250.579" stroke="#4763FF" stroke-width="1.99878"/>
<path opacity="0.21" d="M120.513 208.978L160.345 250.823" stroke="#4763FF" stroke-width="1.99878"/>
<path opacity="0.26" d="M160.472 209.1L200.305 250.944" stroke="#4763FF" stroke-width="1.99878"/>
<path opacity="0.32" d="M240.391 209.343L200.305 250.944" stroke="#4763FF" stroke-width="1.99878"/>
<path opacity="0.37" d="M280.35 209.465L240.264 251.066" stroke="#4763FF" stroke-width="1.99878"/>
<path opacity="0.42" d="M280.351 209.465L320.183 251.309" stroke="#4763FF" stroke-width="1.99878"/>
<path opacity="0.48" d="M320.31 209.586L360.142 251.43" stroke="#4763FF" stroke-width="1.99878"/>
<path opacity="0.53" d="M360.269 209.708L400.102 251.552" stroke="#4763FF" stroke-width="1.99878"/>
<path opacity="0.58" d="M400.229 209.829L440.061 251.673" stroke="#4763FF" stroke-width="1.99878"/>
<path opacity="0.64" d="M440.188 209.951L480.021 251.795" stroke="#4763FF" stroke-width="1.99878"/>
<path opacity="0.69" d="M520.107 210.194L480.021 251.795" stroke="#4763FF" stroke-width="1.99878"/>
<path opacity="0.74" d="M520.107 210.194L559.94 252.038" stroke="#4763FF" stroke-width="1.99878"/>
<path opacity="0.8" d="M600.026 210.437L559.939 252.038" stroke="#4763FF" stroke-width="1.99878"/>
<path opacity="0.85" d="M639.985 210.559L599.899 252.16" stroke="#4763FF" stroke-width="1.99878"/>
<path opacity="0.91" d="M679.945 210.68L639.858 252.281" stroke="#4763FF" stroke-width="1.99878"/>
<path opacity="0.96" d="M679.945 210.68L719.777 252.524" stroke="#4763FF" stroke-width="1.99878"/>
<path opacity="0.05" d="M0.507568 250.336L40.34 292.18" stroke="#4763FF" stroke-width="1.99878"/>
<path opacity="0.1" d="M40.4668 250.458L80.2993 292.302" stroke="#4763FF" stroke-width="1.99878"/>
<path opacity="0.16" d="M80.4265 250.579L120.259 292.424" stroke="#4763FF" stroke-width="1.99878"/>
<path opacity="0.21" d="M160.345 250.823L120.259 292.424" stroke="#4763FF" stroke-width="1.99878"/>
<path opacity="0.26" d="M200.305 250.944L160.219 292.545" stroke="#4763FF" stroke-width="1.99878"/>
<path opacity="0.32" d="M200.305 250.944L240.137 292.788" stroke="#4763FF" stroke-width="1.99878"/>
<path opacity="0.37" d="M240.264 251.066L280.097 292.91" stroke="#4763FF" stroke-width="1.99878"/>
<path opacity="0.42" d="M320.183 251.309L280.096 292.91" stroke="#4763FF" stroke-width="1.99878"/>
<path opacity="0.48" d="M360.142 251.43L320.056 293.032" stroke="#4763FF" stroke-width="1.99878"/>
<path opacity="0.53" d="M400.102 251.552L360.015 293.153" stroke="#4763FF" stroke-width="1.99878"/>
<path opacity="0.58" d="M440.061 251.674L399.975 293.275" stroke="#4763FF" stroke-width="1.99878"/>
<path opacity="0.64" d="M480.021 251.795L439.934 293.396" stroke="#4763FF" stroke-width="1.99878"/>
<path opacity="0.69" d="M519.98 251.917L479.894 293.518" stroke="#4763FF" stroke-width="1.99878"/>
<path opacity="0.74" d="M519.98 251.917L559.813 293.761" stroke="#4763FF" stroke-width="1.99878"/>
<path opacity="0.8" d="M559.939 252.038L599.772 293.883" stroke="#4763FF" stroke-width="1.99878"/>
<path opacity="0.85" d="M639.858 252.281L599.772 293.883" stroke="#4763FF" stroke-width="1.99878"/>
<path opacity="0.91" d="M639.858 252.281L679.691 294.126" stroke="#4763FF" stroke-width="1.99878"/>
<path opacity="0.96" d="M719.777 252.525L679.691 294.126" stroke="#4763FF" stroke-width="1.99878"/>
<path opacity="0.05" d="M40.3404 292.18L0.254046 333.782" stroke="#4763FF" stroke-width="1.99878"/>
<path opacity="0.1" d="M40.3403 292.181L80.1728 334.025" stroke="#4763FF" stroke-width="1.99878"/>
<path opacity="0.16" d="M80.2996 292.302L120.132 334.146" stroke="#4763FF" stroke-width="1.99878"/>
<path opacity="0.21" d="M120.259 292.424L160.091 334.268" stroke="#4763FF" stroke-width="1.99878"/>
<path opacity="0.26" d="M200.178 292.667L160.092 334.268" stroke="#4763FF" stroke-width="1.99878"/>
<path opacity="0.32" d="M240.137 292.788L200.051 334.389" stroke="#4763FF" stroke-width="1.99878"/>
<path opacity="0.37" d="M280.097 292.91L240.011 334.511" stroke="#4763FF" stroke-width="1.99878"/>
<path opacity="0.42" d="M320.056 293.031L279.97 334.633" stroke="#4763FF" stroke-width="1.99878"/>
<path opacity="0.48" d="M320.056 293.032L359.889 334.876" stroke="#4763FF" stroke-width="1.99878"/>
<path opacity="0.53" d="M399.975 293.275L359.888 334.876" stroke="#4763FF" stroke-width="1.99878"/>
<path opacity="0.58" d="M399.975 293.275L439.808 335.119" stroke="#4763FF" stroke-width="1.99878"/>
<path opacity="0.64" d="M479.894 293.518L439.807 335.119" stroke="#4763FF" stroke-width="1.99878"/>
<path opacity="0.69" d="M479.894 293.518L519.726 335.362" stroke="#4763FF" stroke-width="1.99878"/>
<path opacity="0.74" d="M559.813 293.761L519.726 335.362" stroke="#4763FF" stroke-width="1.99878"/>
<path opacity="0.8" d="M559.813 293.761L599.645 335.605" stroke="#4763FF" stroke-width="1.99878"/>
<path opacity="0.85" d="M639.732 294.004L599.645 335.605" stroke="#4763FF" stroke-width="1.99878"/>
<path opacity="0.91" d="M679.691 294.126L639.604 335.727" stroke="#4763FF" stroke-width="1.99878"/>
<path opacity="0.96" d="M719.65 294.247L679.564 335.848" stroke="#4763FF" stroke-width="1.99878"/>
<path opacity="0.05" d="M0.253662 333.782L40.0861 375.626" stroke="#4763FF" stroke-width="1.99878"/>
<path opacity="0.1" d="M40.2134 333.903L80.0459 375.748" stroke="#4763FF" stroke-width="1.99878"/>
<path opacity="0.16" d="M80.1726 334.025L120.005 375.869" stroke="#4763FF" stroke-width="1.99878"/>
<path opacity="0.21" d="M160.091 334.268L120.005 375.869" stroke="#4763FF" stroke-width="1.99878"/>
<path opacity="0.26" d="M160.091 334.268L199.924 376.112" stroke="#4763FF" stroke-width="1.99878"/>
<path opacity="0.32" d="M240.01 334.511L199.924 376.112" stroke="#4763FF" stroke-width="1.99878"/>
<path opacity="0.37" d="M240.01 334.511L279.843 376.356" stroke="#4763FF" stroke-width="1.99878"/>
<path opacity="0.42" d="M279.97 334.633L319.802 376.477" stroke="#4763FF" stroke-width="1.99878"/>
<path opacity="0.48" d="M359.889 334.876L319.802 376.477" stroke="#4763FF" stroke-width="1.99878"/>
<path opacity="0.53" d="M399.848 334.997L359.761 376.598" stroke="#4763FF" stroke-width="1.99878"/>
<path opacity="0.58" d="M399.848 334.998L439.68 376.842" stroke="#4763FF" stroke-width="1.99878"/>
<path opacity="0.64" d="M439.807 335.119L479.64 376.963" stroke="#4763FF" stroke-width="1.99878"/>
<path opacity="0.69" d="M519.726 335.362L479.64 376.963" stroke="#4763FF" stroke-width="1.99878"/>
<path opacity="0.74" d="M559.685 335.484L519.599 377.085" stroke="#4763FF" stroke-width="1.99878"/>
<path opacity="0.8" d="M599.645 335.605L559.559 377.206" stroke="#4763FF" stroke-width="1.99878"/>
<path opacity="0.85" d="M599.645 335.605L639.477 377.45" stroke="#4763FF" stroke-width="1.99878"/>
<path opacity="0.91" d="M639.604 335.727L679.437 377.571" stroke="#4763FF" stroke-width="1.99878"/>
<path opacity="0.96" d="M679.564 335.849L719.396 377.693" stroke="#4763FF" stroke-width="1.99878"/>
<path opacity="0.05" d="M40.0865 375.626L0.000139873 417.227" stroke="#4763FF" stroke-width="1.99878"/>
<path opacity="0.1" d="M80.0458 375.748L39.9595 417.349" stroke="#4763FF" stroke-width="1.99878"/>
<path opacity="0.16" d="M120.005 375.869L79.9187 417.47" stroke="#4763FF" stroke-opacity="0.5" stroke-width="1.99878"/>
<path opacity="0.21" d="M120.005 375.869L159.838 417.713" stroke="#4763FF" stroke-opacity="0.1" stroke-width="1.99878"/>
<path opacity="0.26" d="M159.965 375.991L199.797 417.835" stroke="#4763FF" stroke-opacity="0.1" stroke-width="1.99878"/>
<path opacity="0.32" d="M199.924 376.112L239.756 417.957" stroke="#4763FF" stroke-opacity="0.1" stroke-width="1.99878"/>
<path opacity="0.37" d="M239.883 376.234L279.716 418.078" stroke="#4763FF" stroke-opacity="0.1" stroke-width="1.99878"/>
<path opacity="0.42" d="M279.843 376.355L319.675 418.2" stroke="#4763FF" stroke-opacity="0.1" stroke-width="1.99878"/>
<path opacity="0.48" d="M319.802 376.477L359.634 418.321" stroke="#4763FF" stroke-opacity="0.1" stroke-width="1.99878"/>
<path opacity="0.53" d="M399.721 376.72L359.635 418.321" stroke="#4763FF" stroke-opacity="0.2" stroke-width="1.99878"/>
<path opacity="0.58" d="M399.721 376.72L439.553 418.565" stroke="#4763FF" stroke-opacity="0.1" stroke-width="1.99878"/>
<path opacity="0.64" d="M479.64 376.963L439.553 418.564" stroke="#4763FF" stroke-opacity="0.1" stroke-width="1.99878"/>
<path opacity="0.69" d="M479.773 377.396L519.605 419.241" stroke="#4763FF" stroke-opacity="0.1" stroke-width="1.99878"/>
<path opacity="0.74" d="M559.559 377.206L519.472 418.807" stroke="#4763FF" stroke-width="1.99878"/>
<path opacity="0.8" d="M599.518 377.328L559.432 418.929" stroke="#4763FF" stroke-width="1.99878"/>
<path opacity="0.85" d="M599.518 377.328L639.351 419.172" stroke="#4763FF" stroke-width="1.99878"/>
<path opacity="0.91" d="M639.478 377.449L679.31 419.294" stroke="#4763FF" stroke-width="1.99878"/>
<path opacity="0.96" d="M679.437 377.571L719.269 419.416" stroke="#4763FF" stroke-width="1.99878"/>
<path opacity="0.05" d="M-0.00012207 417.227L39.8323 459.072" stroke="#4763FF" stroke-width="1.99878"/>
<path opacity="0.1" d="M39.9595 417.349L79.7919 459.193" stroke="#4763FF" stroke-width="1.99878"/>
<path opacity="0.16" d="M119.878 417.592L79.792 459.193" stroke="#4763FF" stroke-width="1.99878"/>
<path opacity="0.21" d="M159.838 417.714L119.751 459.315" stroke="#4763FF" stroke-width="1.99878"/>
<path opacity="0.26" d="M159.838 417.713L199.67 459.558" stroke="#4763FF" stroke-width="1.99878"/>
<path opacity="0.32" d="M239.757 417.957L199.67 459.558" stroke="#4763FF" stroke-width="1.99878"/>
<path opacity="0.37" d="M239.756 417.957L279.589 459.801" stroke="#4763FF" stroke-width="1.99878"/>
<path opacity="0.42" d="M319.675 418.2L279.589 459.801" stroke="#4763FF" stroke-width="1.99878"/>
<path opacity="0.48" d="M359.635 418.321L319.548 459.922" stroke="#4763FF" stroke-width="1.99878"/>
<path opacity="0.53" d="M359.635 418.321L399.467 460.166" stroke="#4763FF" stroke-width="1.99878"/>
<path opacity="0.58" d="M439.553 418.564L399.467 460.166" stroke="#4763FF" stroke-width="1.99878"/>
<path opacity="0.64" d="M479.513 418.686L439.427 460.287" stroke="#4763FF" stroke-width="1.99878"/>
<path opacity="0.69" d="M519.472 418.808L479.386 460.409" stroke="#4763FF" stroke-width="1.99878"/>
<path opacity="0.74" d="M519.472 418.808L559.305 460.652" stroke="#4763FF" stroke-width="1.99878"/>
<path opacity="0.8" d="M599.391 419.051L559.305 460.652" stroke="#4763FF" stroke-width="1.99878"/>
<path opacity="0.85" d="M639.351 419.172L599.264 460.774" stroke="#4763FF" stroke-width="1.99878"/>
<path opacity="0.91" d="M679.31 419.294L639.224 460.895" stroke="#4763FF" stroke-width="1.99878"/>
<path opacity="0.96" d="M679.31 419.294L719.143 461.138" stroke="#4763FF" stroke-width="1.99878"/>
</g>
<defs>
<clipPath id="clip0_322_269">
<rect width="710.282" height="417.229" fill="white" transform="translate(1.26929) rotate(0.174314)"/>
</clipPath>
</defs>
</svg>
