<svg width="353" height="239" viewBox="0 0 353 239" fill="none" xmlns="http://www.w3.org/2000/svg">
<path opacity="0.2" d="M19.7504 114.569L107.194 201.713C122.115 216.585 143.119 220.431 162.364 211.816L188.76 199.998C191.438 198.801 192.203 194.701 190.141 192.613L81.0219 82.3074C80.0593 81.3323 78.6928 81.0807 77.4434 81.6467L21.0986 107.173C18.4218 108.386 17.6716 112.5 19.7504 114.569Z" fill="#16032E"/>
<path d="M25.8889 104.54L39.2668 98.6567L35.4905 89.2949C35.4905 89.2949 24.8952 97.7821 25.0178 98.6633C25.1404 99.5445 25.8889 104.54 25.8889 104.54Z" fill="#3D065F"/>
<path d="M102.046 181.002L122.322 171.812C122.322 171.812 111.43 161.898 110.876 161.795C110.322 161.692 101.772 166.104 101.772 166.104L102.046 181.002Z" fill="#3D065F"/>
<path d="M128.118 194.162C127.402 198.008 125.787 200.527 123.739 201.514C123.676 201.544 117.311 204.404 117.249 204.432C115.14 205.337 116.871 202.71 114.39 200.211C109.397 195.183 106.538 184.717 108.004 176.841C108.729 172.944 105.728 172.352 107.812 171.395C107.869 171.369 114.611 168.506 114.667 168.486C116.764 167.62 119.277 168.316 121.732 170.791C126.725 175.82 129.584 186.283 128.118 194.162Z" fill="url(#paint0_linear_430_5582)"/>
<path d="M121.35 197.129C119.884 205.008 114.648 207.316 109.656 202.285C104.665 197.255 101.806 186.789 103.272 178.915C104.738 171.037 109.974 168.728 114.964 173.759C119.957 178.787 122.817 189.25 121.35 197.129Z" fill="url(#paint1_linear_430_5582)"/>
<path d="M115.518 173.55C113.125 171.138 110.678 170.42 108.614 171.185C110.45 170.929 112.519 171.759 114.545 173.8C119.535 178.831 122.394 189.296 120.928 197.173C120.165 201.273 118.379 203.862 116.138 204.693C118.829 204.315 121.031 201.601 121.902 196.922C123.37 189.046 120.511 178.581 115.518 173.55Z" fill="url(#paint2_radial_430_5582)"/>
<path d="M114.658 177.305C110.814 173.429 106.781 175.209 105.652 181.276C104.523 187.342 106.725 195.401 110.57 199.275C114.416 203.148 118.449 201.37 119.578 195.302C120.707 189.235 118.505 181.178 114.658 177.305ZM115.46 189.968L117.986 190.175C118.366 190.207 118.734 190.889 118.727 191.559C118.716 192.47 118.635 193.357 118.478 194.199C118.322 195.042 118.099 195.783 117.821 196.423C117.617 196.893 117.152 196.733 116.88 196.113L115.088 191.969C114.933 191.612 114.875 191.177 114.949 190.851C114.961 190.793 114.973 190.733 114.983 190.675C114.994 190.617 115.006 190.554 115.015 190.496C115.067 190.147 115.244 189.951 115.46 189.968ZM117.599 187.257L115.074 187.05C114.856 187.033 114.625 186.803 114.48 186.438C114.43 186.311 114.377 186.187 114.321 186.067C114.158 185.717 114.101 185.277 114.165 184.933L114.896 181.009C115.007 180.413 115.446 180.339 115.783 180.862C116.728 182.317 117.483 184.089 117.991 185.97C118.174 186.652 117.98 187.289 117.599 187.257ZM113.339 179.437L112.608 183.363C112.544 183.705 112.369 183.912 112.146 183.873C112.07 183.862 111.995 183.855 111.921 183.857C111.706 183.859 111.477 183.621 111.324 183.265L109.53 179.123C109.26 178.501 109.327 177.733 109.668 177.58C110.606 177.159 111.679 177.226 112.778 177.829C113.169 178.047 113.45 178.841 113.339 179.437ZM108.351 180.467L110.144 184.611C110.299 184.968 110.357 185.4 110.283 185.73C110.271 185.784 110.26 185.845 110.249 185.903C110.238 185.96 110.226 186.023 110.217 186.084C110.165 186.433 109.988 186.629 109.772 186.61L107.247 186.403C106.866 186.373 106.498 185.688 106.506 185.019C106.517 184.108 106.597 183.223 106.753 182.381C106.91 181.538 107.133 180.794 107.411 180.154C107.613 179.685 108.081 179.844 108.351 180.467ZM107.63 189.322L110.156 189.529C110.374 189.547 110.605 189.777 110.75 190.139C110.8 190.266 110.853 190.39 110.909 190.51C111.071 190.862 111.128 191.302 111.065 191.644L110.334 195.571C110.224 196.164 109.784 196.239 109.447 195.718C108.505 194.26 107.749 192.489 107.241 190.61C107.055 189.928 107.252 189.291 107.63 189.322ZM111.894 197.141L112.624 193.217C112.688 192.872 112.863 192.666 113.086 192.704C113.162 192.718 113.237 192.722 113.311 192.723C113.526 192.719 113.756 192.956 113.909 193.313L115.702 197.454C115.972 198.077 115.905 198.845 115.564 199C114.626 199.421 113.553 199.351 112.452 198.748C112.06 198.532 111.782 197.739 111.894 197.141Z" fill="url(#paint3_linear_430_5582)"/>
<path d="M114.117 177.451C110.272 173.578 106.24 175.356 105.111 181.422C103.982 187.488 106.184 195.548 110.029 199.421C113.876 203.295 117.908 201.517 119.037 195.45C120.166 189.384 117.964 181.325 114.117 177.451ZM114.92 190.112L117.445 190.319C117.826 190.351 118.193 191.035 118.186 191.703C118.175 192.614 118.095 193.501 117.938 194.343C117.781 195.186 117.558 195.93 117.281 196.567C117.076 197.036 116.611 196.879 116.34 196.257L114.547 192.113C114.392 191.756 114.334 191.321 114.408 190.994C114.421 190.939 114.432 190.879 114.443 190.819C114.454 190.761 114.465 190.701 114.474 190.64C114.526 190.293 114.704 190.095 114.92 190.112ZM117.058 187.404L114.533 187.197C114.315 187.179 114.084 186.949 113.939 186.584C113.889 186.458 113.836 186.336 113.78 186.214C113.618 185.864 113.56 185.424 113.625 185.079L114.355 181.155C114.466 180.559 114.905 180.487 115.242 181.008C116.185 182.463 116.94 184.235 117.448 186.116C117.633 186.801 117.439 187.436 117.058 187.404ZM112.796 179.582L112.065 183.509C112.001 183.854 111.826 184.058 111.603 184.019C111.527 184.008 111.452 184.001 111.378 184.003C111.163 184.005 110.934 183.767 110.78 183.413L108.988 179.269C108.717 178.647 108.784 177.879 109.125 177.726C110.063 177.305 111.135 177.375 112.235 177.975C112.629 178.194 112.906 178.989 112.796 179.582ZM107.808 180.613L109.601 184.757C109.756 185.114 109.815 185.546 109.74 185.875C109.728 185.93 109.717 185.991 109.706 186.049C109.695 186.109 109.683 186.169 109.674 186.23C109.622 186.579 109.445 186.775 109.229 186.756L106.704 186.549C106.323 186.519 105.955 185.834 105.962 185.167C105.973 184.256 106.054 183.369 106.21 182.527C106.367 181.684 106.59 180.94 106.867 180.303C107.072 179.834 107.54 179.991 107.808 180.613ZM107.09 189.469L109.615 189.676C109.833 189.693 110.064 189.923 110.209 190.288C110.259 190.412 110.312 190.536 110.368 190.659C110.53 191.009 110.587 191.449 110.524 191.791L109.793 195.717C109.682 196.313 109.243 196.385 108.906 195.864C107.964 194.407 107.208 192.635 106.7 190.756C106.515 190.072 106.709 189.437 107.09 189.469ZM111.353 197.287L112.083 193.363C112.147 193.019 112.322 192.812 112.545 192.851C112.621 192.865 112.696 192.871 112.77 192.869C112.985 192.868 113.215 193.103 113.368 193.459L115.161 197.601C115.431 198.223 115.364 198.994 115.023 199.146C114.085 199.567 113.013 199.498 111.913 198.895C111.519 198.679 111.242 197.883 111.353 197.287Z" fill="url(#paint4_linear_430_5582)"/>
<path d="M51.8702 119.269C51.1544 123.116 49.5394 125.635 47.4909 126.622C47.4288 126.652 41.0638 129.509 41.0018 129.539C38.8945 130.445 40.6232 127.817 38.1421 125.319C33.149 120.291 30.2901 109.825 31.7559 101.949C32.481 98.052 29.4803 97.4597 31.5645 96.5028C31.6214 96.477 38.363 93.6141 38.4215 93.5912C40.5166 92.7273 43.0311 93.4241 45.4861 95.8994C50.477 100.927 53.3364 111.391 51.8702 119.269Z" fill="url(#paint5_linear_430_5582)"/>
<path d="M45.1 122.236C43.6338 130.115 38.3978 132.423 33.4052 127.392C28.4126 122.361 25.5558 111.896 27.0211 104.022C28.4873 96.1432 33.7212 93.8347 38.7138 98.8656C43.7068 103.894 46.5662 114.357 45.1 122.236Z" fill="url(#paint6_linear_430_5582)"/>
<path d="M39.2692 98.6569C36.8762 96.2452 34.4265 95.5266 32.3649 96.2926C34.2015 96.0361 36.2701 96.8658 38.2955 98.9074C43.286 103.938 46.1449 114.404 44.6792 122.28C43.9161 126.38 42.1297 128.969 39.8887 129.8C42.5794 129.422 44.7822 126.708 45.6528 122.029C47.1186 114.153 44.2613 103.69 39.2692 98.6569Z" fill="url(#paint7_radial_430_5582)"/>
<path d="M38.4095 102.412C34.5653 98.5359 30.5325 100.316 29.4036 106.383C28.2747 112.449 30.4763 120.508 34.3211 124.381C38.1658 128.255 42.1981 126.477 43.3275 120.408C44.4559 114.344 42.2542 106.285 38.4095 102.412ZM39.2117 115.075L41.737 115.282C42.1154 115.313 42.4855 115.996 42.476 116.665C42.465 117.576 42.3871 118.462 42.2299 119.306C42.0732 120.149 41.8484 120.89 41.5708 121.53C41.3662 121.999 40.9009 121.84 40.632 121.22L38.8393 117.076C38.6842 116.719 38.6262 116.284 38.7001 115.957C38.713 115.9 38.7241 115.84 38.7349 115.782C38.7457 115.724 38.7574 115.661 38.7661 115.603C38.818 115.254 38.9934 115.057 39.2117 115.075ZM41.3508 112.364L38.8255 112.157C38.6073 112.14 38.3766 111.91 38.2297 111.544C38.1794 111.418 38.1265 111.294 38.0706 111.174C37.9078 110.824 37.8507 110.384 37.9148 110.039L38.6451 106.115C38.756 105.519 39.1953 105.445 39.5322 105.968C40.477 107.424 41.2308 109.195 41.7407 111.074C41.9259 111.759 41.7313 112.396 41.3508 112.364ZM37.088 104.543L36.3573 108.47C36.2937 108.812 36.1184 109.019 35.8955 108.98C35.8195 108.968 35.7446 108.962 35.6705 108.964C35.4553 108.965 35.226 108.728 35.0709 108.371L33.2778 104.229C33.0093 103.607 33.0741 102.839 33.4151 102.686C34.3532 102.265 35.4241 102.332 36.5254 102.935C36.921 103.154 37.1989 103.947 37.088 104.543ZM32.1006 105.574L33.8933 109.718C34.0484 110.074 34.1069 110.507 34.0326 110.836C34.0202 110.891 34.0089 110.951 33.9982 111.009C33.9874 111.067 33.9757 111.13 33.9666 111.191C33.9146 111.54 33.7371 111.736 33.5214 111.716L30.9961 111.509C30.6172 111.48 30.2476 110.795 30.2571 110.126C30.2681 109.215 30.3461 108.329 30.5028 107.487C30.6595 106.645 30.8848 105.901 31.1624 105.261C31.3648 104.792 31.8317 104.954 32.1006 105.574ZM31.3819 114.429L33.9072 114.636C34.1254 114.654 34.3561 114.884 34.5035 115.247C34.5538 115.373 34.6066 115.497 34.6625 115.617C34.8248 115.97 34.882 116.41 34.8183 116.751L34.0876 120.678C33.9771 121.272 33.5378 121.346 33.2004 120.825C32.2582 119.368 31.5024 117.596 30.9945 115.717C30.8068 115.035 31.0035 114.398 31.3819 114.429ZM35.6446 122.25L36.3749 118.326C36.439 117.982 36.6143 117.775 36.8371 117.814C36.9127 117.828 36.988 117.832 37.0616 117.832C37.2752 117.828 37.5066 118.066 37.6617 118.422L39.4549 122.564C39.7233 123.186 39.6585 123.955 39.317 124.11C38.379 124.531 37.3086 124.461 36.2051 123.858C35.8117 123.639 35.5338 122.846 35.6446 122.25Z" fill="url(#paint8_linear_430_5582)"/>
<path d="M37.8702 102.558C34.0233 98.6847 29.9931 100.463 28.8642 106.529C27.7353 112.595 29.937 120.655 33.7817 124.528C37.6264 128.401 41.6587 126.623 42.7876 120.557C43.9165 114.491 41.7149 106.431 37.8702 102.558ZM38.6702 115.221L41.1955 115.428C41.5739 115.459 41.9436 116.145 41.9346 116.812C41.9235 117.722 41.8451 118.61 41.6884 119.453C41.5317 120.295 41.3065 121.038 41.0293 121.676C40.8248 122.145 40.3594 121.986 40.0905 121.366L38.2978 117.222C38.1427 116.865 38.0848 116.431 38.1587 116.104C38.171 116.049 38.1822 115.988 38.1934 115.928C38.2042 115.87 38.2155 115.81 38.2246 115.749C38.2766 115.4 38.4525 115.201 38.6702 115.221ZM40.8093 112.511L38.284 112.303C38.0658 112.286 37.8351 112.056 37.6882 111.69C37.6379 111.564 37.5846 111.442 37.5291 111.32C37.3664 110.97 37.3093 110.53 37.3733 110.186L38.1036 106.261C38.2145 105.666 38.6534 105.594 38.9907 106.114C39.9356 107.57 40.6893 109.341 41.1988 111.223C41.384 111.907 41.1877 112.542 40.8093 112.511ZM36.5466 104.689L35.8158 108.616C35.7522 108.958 35.5769 109.165 35.3541 109.126C35.2781 109.114 35.2032 109.108 35.129 109.11C34.9138 109.112 34.6845 108.874 34.529 108.52L32.7363 104.376C32.4679 103.753 32.5327 102.985 32.8737 102.833C33.8117 102.412 34.8821 102.481 35.984 103.081C36.3774 103.3 36.657 104.096 36.5466 104.689ZM31.5592 105.72L33.3519 109.864C33.5069 110.221 33.5654 110.653 33.4911 110.982C33.4787 111.037 33.4675 111.098 33.4567 111.155C33.4455 111.216 33.4343 111.276 33.4251 111.337C33.3732 111.686 33.1956 111.882 32.9799 111.863L30.4546 111.655C30.0757 111.626 29.7061 110.941 29.7152 110.274C29.7267 109.361 29.8046 108.476 29.9613 107.633C30.1181 106.791 30.3433 106.048 30.6204 105.41C30.8229 104.94 31.2907 105.098 31.5592 105.72ZM30.8404 114.575L33.3657 114.783C33.584 114.8 33.8146 115.03 33.9616 115.395C34.0123 115.519 34.0652 115.644 34.1211 115.763C34.2834 116.116 34.3405 116.556 34.2769 116.898L33.5461 120.825C33.4352 121.42 32.9963 121.492 32.659 120.972C31.7167 119.514 30.9609 117.742 30.4531 115.864C30.2658 115.178 30.4599 114.543 30.8404 114.575ZM35.1036 122.394L35.8339 118.47C35.898 118.125 36.0733 117.919 36.2962 117.958C36.3717 117.972 36.4465 117.978 36.5206 117.976C36.7359 117.974 36.9656 118.21 37.1207 118.566L38.9138 122.708C39.1823 123.33 39.117 124.101 38.776 124.253C37.838 124.674 36.7676 124.605 35.6641 124.002C35.2702 123.785 34.9923 122.992 35.1036 122.394Z" fill="url(#paint9_linear_430_5582)"/>
<path d="M162.246 108.766C162.246 108.766 165.692 102.077 167.214 105.339C168.737 108.6 165.797 119.03 165.797 119.03L162.246 108.766Z" fill="url(#paint10_radial_430_5582)"/>
<path d="M194.77 163.174C192.838 155.098 164.999 112.048 149.883 91.376C134.766 70.704 112.122 53.1181 106.66 49.6097C101.195 46.1009 85.2266 41.5453 76.9637 40.2521C67.4134 38.761 35.2653 55.4598 30.875 58.4845C30.875 58.4845 20.9928 82.3649 20.4993 85.0171C20.0254 87.5638 22.3084 99.4672 25.8933 104.538C25.9477 104.129 26.0099 103.725 26.0843 103.325C27.7877 94.1715 33.8699 91.4927 39.6706 97.3374C45.4718 103.179 48.7927 115.338 47.0898 124.489C46.9962 124.992 46.8876 125.471 46.7691 125.933C62.8384 142.043 85.1984 164.282 102.051 181.003C102.055 179.264 102.193 177.565 102.492 175.959C104.196 166.805 110.278 164.126 116.079 169.969C121.88 175.813 125.201 187.972 123.498 197.123C123.218 198.624 122.818 199.949 122.325 201.09C123.62 202.369 124.592 203.328 125.189 203.915C133.745 212.324 155.489 206.385 177.156 197.105C198.293 188.049 196.701 171.251 194.77 163.174Z" fill="url(#paint11_radial_430_5582)"/>
<path d="M116.4 149.792C109.552 137.372 106.843 118.861 101.825 103.525C96.8089 88.1893 71.8417 69.3101 66.3549 67.2616C61.331 65.3851 40.4414 62.5901 30.9605 58.4276C30.9327 58.4484 30.9008 58.4686 30.8735 58.4869C30.8735 58.4869 20.9913 82.3672 20.4977 85.0195C20.0238 87.5662 22.3068 99.4695 25.8918 104.54C25.9461 104.132 26.0084 103.727 26.0828 103.327C27.7862 94.1738 33.8683 91.4951 39.6691 97.3397C45.4703 103.182 48.7913 115.341 47.0883 124.492C46.9948 124.995 46.886 125.474 46.7675 125.935C62.8369 142.046 85.1969 164.284 102.049 181.006C102.054 179.266 102.192 177.567 102.491 175.961C104.194 166.808 110.276 164.129 116.077 169.971C121.878 175.816 125.199 187.975 123.496 197.126C123.217 198.626 122.816 199.951 122.324 201.092C123.619 202.371 124.591 203.33 125.187 203.917C127.672 206.359 131.271 207.585 135.655 207.875C137.428 201.157 139.473 191.359 137.61 187.348C134.643 180.964 123.249 162.21 116.4 149.792Z" fill="#CE3DBC"/>
<path d="M139.118 186.835C136.155 180.454 124.761 161.7 117.915 149.281C111.065 136.86 107.433 117.238 102.417 101.903C97.3993 86.567 73.3559 68.8013 67.8695 66.7503C62.8457 64.8738 41.956 62.0788 32.4751 57.9163C32.4453 57.9367 59.7543 64.8499 64.2831 66.5406C69.7694 68.5916 95.0748 86.2488 100.093 101.585C105.109 116.92 107.819 135.429 114.667 147.849C121.517 160.269 132.57 180.245 135.536 186.626C137.376 190.587 135.41 200.17 133.654 206.879C134.76 207.119 135.929 207.284 137.169 207.367C138.938 200.647 140.983 190.849 139.118 186.835Z" fill="url(#paint12_radial_430_5582)"/>
<path d="M66.0075 63.4803L98.952 48.9769C98.952 48.9769 86.8044 41.9719 73.1221 44.7423C59.4398 47.5127 46.1285 55.7208 46.1889 58.4761C46.2467 61.2336 62.6417 63.8814 66.0075 63.4803Z" fill="url(#paint13_linear_430_5582)"/>
<path d="M77.3925 45.4406C80.7064 44.7697 83.9377 44.6245 86.9639 44.8001C82.897 44.0225 78.114 43.7333 73.124 44.7425C59.4418 47.5129 46.1304 55.721 46.1908 58.4763C46.2028 59.03 46.8766 59.5741 47.961 60.0933C48.9941 56.7585 63.0022 48.3523 77.3925 45.4406Z" fill="#16032E"/>
<path d="M107.456 106.219C109.433 101.359 141.277 88.404 144.073 88.7527C146.869 89.1039 169.97 120.321 167.831 126.439C165.689 132.559 129.619 151.05 120.103 144.033C109.56 136.258 105.783 110.332 107.456 106.219Z" fill="#16032E"/>
<path d="M108.545 106.89C110.467 102.163 141.423 89.5678 144.143 89.9074C146.863 90.2497 169.32 120.598 167.238 126.547C165.157 132.496 130.087 150.472 120.838 143.652C110.59 136.091 106.919 110.89 108.545 106.89Z" fill="url(#paint14_linear_430_5582)"/>
<path d="M164.997 117.206C165.358 118.534 165.45 119.615 165.192 120.345C162.996 126.619 126.823 145.286 115.795 139.314C117.058 141.217 118.484 142.837 120.103 144.031C129.617 151.05 165.69 132.556 167.832 126.436C168.403 124.803 167.169 121.366 164.997 117.206Z" fill="#16032E"/>
<path d="M106.567 142.646L41.7754 76.8038C41.7754 76.8038 60.8369 66.9191 72.5762 74.5893C84.3156 82.2596 100.412 101.889 102.083 112.144C103.752 122.403 106.567 142.646 106.567 142.646Z" fill="#16032E"/>
<path d="M104.912 140.28L43.6441 78.0177C43.6441 78.0177 61.6676 68.6707 72.7679 75.9255C83.8686 83.1778 99.0889 101.739 100.668 111.438C102.248 121.138 104.912 140.28 104.912 140.28Z" fill="url(#paint15_linear_430_5582)"/>
<path d="M152.316 185.455C152.316 185.455 154.609 194.54 156.554 194.988C158.5 195.436 164.031 194.226 175.593 189.003C182.983 185.663 186.467 183.062 187.576 180.699C188.685 178.333 188.681 169.244 188.681 169.244C188.681 169.244 183.789 173.994 171.951 179.164C162.584 183.253 152.316 185.455 152.316 185.455Z" fill="#3D065F"/>
<path d="M188.681 169.244C188.681 169.244 188.43 169.483 187.913 169.915C187.855 172.654 187.638 177.972 186.83 179.702C185.721 182.068 182.239 184.669 174.847 188.006C163.285 193.228 157.754 194.439 155.808 193.991C155.633 193.95 155.452 193.839 155.273 193.667C155.698 194.392 156.135 194.889 156.553 194.988C158.5 195.436 164.031 194.226 175.593 189.003C182.983 185.663 186.467 183.062 187.576 180.699C188.683 178.332 188.681 169.244 188.681 169.244Z" fill="url(#paint16_radial_430_5582)"/>
<path d="M149.492 185.499L152.726 195.816C152.726 195.816 146.125 196.416 142.026 195.369C137.927 194.32 135.225 190.387 134.427 187.497C133.63 184.607 134.258 179.693 134.258 179.693C134.258 179.693 138.815 183.4 142.566 184.782C146.316 186.164 149.492 185.499 149.492 185.499Z" fill="url(#paint17_linear_430_5582)"/>
<path d="M149.492 185.499L152.726 195.815C152.726 195.815 145.744 193.346 140.8 188.893C135.855 184.446 134.258 179.691 134.258 179.691C134.258 179.691 138.816 183.397 142.566 184.779C146.316 186.161 149.492 185.499 149.492 185.499Z" fill="url(#paint18_linear_430_5582)"/>
<path d="M190.519 168.941L189.544 179.522C189.544 179.522 195.089 175.867 196.065 172.163C197.041 168.458 195.278 163.914 195.278 163.914C195.278 163.914 193.909 166.658 190.519 168.941Z" fill="url(#paint19_linear_430_5582)"/>
<path d="M190.519 168.941L189.544 179.522C189.544 179.522 192.961 173.926 193.937 170.222C194.912 166.517 195.278 163.914 195.278 163.914C195.278 163.914 193.909 166.658 190.519 168.941Z" fill="url(#paint20_linear_430_5582)"/>
<path d="M33.0153 56.7136C33.0153 56.7136 30.4833 57.4987 29.4586 58.9103C28.434 60.3219 24.818 73.5934 24.818 73.5934C24.818 73.5934 33.5975 62.1359 34.3243 60.9603C35.0541 59.7799 33.0153 56.7136 33.0153 56.7136Z" fill="url(#paint21_radial_430_5582)"/>
<path d="M149.248 189.669L146.353 194.286C146.353 194.286 141.19 188.734 142.071 187.312C142.951 185.894 149.248 189.669 149.248 189.669Z" fill="url(#paint22_linear_430_5582)"/>
<path d="M145.983 192.724C145.749 193.981 146.398 194.625 147.429 194.161C148.461 193.7 149.485 192.307 149.718 191.05C149.952 189.793 149.306 189.149 148.275 189.613C147.245 190.072 146.217 191.467 145.983 192.724Z" fill="url(#paint23_linear_430_5582)"/>
<path d="M144.624 188.666L141.705 193.325C141.705 193.325 136.499 187.726 137.385 186.289C138.273 184.855 144.624 188.666 144.624 188.666Z" fill="url(#paint24_linear_430_5582)"/>
<path d="M141.331 191.744C141.095 193.014 141.747 193.663 142.789 193.196C143.831 192.73 144.863 191.325 145.099 190.058C145.334 188.791 144.684 188.142 143.642 188.608C142.601 189.073 141.567 190.477 141.331 191.744Z" fill="url(#paint25_linear_430_5582)"/>
<path d="M141.477 185.081L138.904 189.188C138.904 189.188 134.315 184.253 135.097 182.989C135.878 181.722 141.477 185.081 141.477 185.081Z" fill="url(#paint26_radial_430_5582)"/>
<path d="M138.575 187.795C138.367 188.911 138.94 189.483 139.859 189.072C140.776 188.66 141.688 187.422 141.896 186.306C142.103 185.19 141.529 184.615 140.612 185.027C139.695 185.439 138.783 186.679 138.575 187.795Z" fill="url(#paint27_radial_430_5582)"/>
<path d="M194.038 170.784L191.465 174.891C191.465 174.891 189.791 171.419 190.573 170.155C191.356 168.888 194.038 170.784 194.038 170.784Z" fill="url(#paint28_linear_430_5582)"/>
<path d="M191.137 173.498C190.93 174.615 191.503 175.187 192.422 174.775C193.34 174.364 194.25 173.126 194.458 172.009C194.666 170.893 194.093 170.318 193.174 170.73C192.255 171.142 191.346 172.38 191.137 173.498Z" fill="url(#paint29_linear_430_5582)"/>
<path d="M195.71 167.21L193.731 170.369C193.731 170.369 192.096 168.35 192.699 167.378C193.301 166.403 195.71 167.21 195.71 167.21Z" fill="url(#paint30_linear_430_5582)"/>
<path d="M193.478 169.294C193.318 170.154 193.759 170.595 194.467 170.279C195.173 169.963 195.873 169.011 196.033 168.149C196.193 167.289 195.752 166.851 195.046 167.164C194.34 167.485 193.637 168.437 193.478 169.294Z" fill="url(#paint31_linear_430_5582)"/>
<path d="M41.7808 77.8242L107.48 143.653L117.75 163.057L116.059 164.456L105.333 157.487L31.3916 83.6525L41.7808 77.8242Z" fill="url(#paint32_linear_430_5582)"/>
<path d="M25.8897 104.54C25.944 104.131 26.0062 103.726 26.0806 103.327C27.0982 97.8588 29.678 94.7052 32.8267 94.2923C27.9518 89.3405 23.9749 85.3023 21.2807 82.5614C20.8535 83.7486 20.569 84.6243 20.4956 85.019C20.0237 87.5661 22.3068 99.4694 25.8897 104.54Z" fill="#CE3DBC"/>
<path d="M192.752 184.112C188.722 187.264 183.134 191.387 177.657 194.626C167.365 200.712 143.77 204.977 136.461 198.618C135.129 197.459 130.331 192.743 123.378 185.802C124.059 189.669 124.145 193.615 123.492 197.122C123.213 198.623 122.812 199.948 122.32 201.089C123.614 202.368 124.587 203.327 125.183 203.914C133.739 212.323 155.483 206.384 177.15 197.104C185.305 193.612 190.077 188.967 192.752 184.112Z" fill="url(#paint33_linear_430_5582)"/>
<path d="M102.045 181.003C102.05 179.263 102.188 177.564 102.487 175.958C103.134 172.479 104.417 169.937 106.076 168.44C87.3298 149.567 63.5656 125.483 45.353 107.007C47.3386 112.6 48.0925 119.071 47.0838 124.491C46.9903 124.994 46.8816 125.473 46.7631 125.935C62.8324 142.045 85.1946 164.284 102.045 181.003Z" fill="#CE3DBC"/>
<path d="M130.658 187.768C130.658 187.768 138.435 195.965 142.148 196.765C147.928 198.01 160.19 196.759 173.512 190.288C194.062 180.306 196.301 171.864 196.301 171.864C196.301 171.864 195.753 182.473 194.295 187.263C192.835 192.056 188.067 197.645 170.459 204.606C153.505 211.309 140.806 210.918 135.012 208.983C129.217 207.047 125.185 203.916 125.185 203.916L130.658 187.768Z" fill="url(#paint34_radial_430_5582)"/>
<path d="M142.527 198.321C148.307 199.568 160.569 198.315 173.891 191.844C189.669 184.181 194.649 177.429 196.114 174.703C196.243 173.005 196.303 171.864 196.303 171.864C196.303 171.864 194.064 180.306 173.514 190.289C160.192 196.76 147.93 198.013 142.15 196.766C138.437 195.965 130.66 187.768 130.66 187.768L130.22 189.06C133.722 192.302 139.931 197.762 142.527 198.321Z" fill="url(#paint35_radial_430_5582)"/>
<path d="M194.293 187.263C194.714 185.879 195.059 184.013 195.338 182.057C191.383 185.254 184.436 190.617 177.657 194.628C167.365 200.714 143.77 204.979 136.461 198.62C135.554 197.832 133.035 195.387 129.319 191.711L125.183 203.913C125.183 203.913 129.216 207.044 135.01 208.98C140.805 210.915 153.504 211.306 170.458 204.603C188.065 197.645 192.835 192.055 194.293 187.263Z" fill="url(#paint36_linear_430_5582)"/>
<path d="M194.293 187.263C194.714 185.879 195.059 184.013 195.338 182.057C191.383 185.254 184.436 190.617 177.657 194.628C167.365 200.714 143.77 204.979 136.461 198.62C135.554 197.832 133.035 195.387 129.319 191.711L125.183 203.913C125.183 203.913 129.216 207.044 135.01 208.98C140.805 210.915 153.504 211.306 170.458 204.603C188.065 197.645 192.835 192.055 194.293 187.263Z" fill="#CE3DBC"/>
<path d="M99.0784 135.033L106.569 142.646C106.569 142.646 104.997 131.343 103.505 121.348L99.0784 135.033Z" fill="#16032E"/>
<path d="M65.5819 71.9843C54.5164 70.2008 41.7768 76.8063 41.7768 76.8063L54.2775 89.5083C55.0076 87.4514 55.9918 84.7291 57.0114 82.0967C58.6309 77.9087 63.6489 73.552 65.5819 71.9843Z" fill="#16032E"/>
<path d="M112.371 102.124C131.481 113.174 152.948 116.966 165.697 118.59C160.148 107.241 146.208 89.0198 144.074 88.7527C141.884 88.4805 121.902 96.3575 112.371 102.124Z" fill="url(#paint37_linear_430_5582)"/>
<path d="M168.492 203.896C183.961 198.199 191.085 192.234 192.183 189.926C193.281 187.618 191.607 189.634 188.429 191.628C184.216 194.272 177.948 197.242 167.839 201.26C150.775 208.041 140.885 205.618 140.218 206.638C139.55 207.658 145.913 212.211 168.492 203.896Z" fill="url(#paint38_linear_430_5582)"/>
<path d="M171.293 128.045C171.293 128.045 193.299 158.497 188.236 164.354C183.173 170.214 153.728 185.821 144.281 180.151C134.832 174.483 123.4 149.74 123.4 149.74C123.4 149.74 142.454 148.016 155.888 140.655C169.322 133.289 171.293 128.045 171.293 128.045Z" fill="#9F19AB"/>
<path d="M149.492 185.499C149.492 185.499 145.265 193.98 136.908 188.284C134.7 186.778 134.258 179.693 134.258 179.693C134.258 179.693 138.815 183.4 142.566 184.782C146.316 186.164 149.492 185.499 149.492 185.499Z" fill="url(#paint39_radial_430_5582)"/>
<path d="M107.616 100.355C107.616 100.355 140.442 86.2303 140.935 85.1204C141.428 84.013 108.045 51.9071 102.926 50.9544C97.81 50.0024 72.6213 63.8346 73.4492 65.5337C74.2796 67.2307 89.6766 78.4843 94.4066 83.6667C100.626 90.4789 104.095 94.8933 107.616 100.355Z" fill="url(#paint40_linear_430_5582)"/>
<path d="M72.9924 108.504L79.7499 115.249L87.5226 88.3442L83.878 84.3522L72.9924 108.504Z" fill="#16032E"/>
<path d="M106.648 143.205C106.515 143.443 103.353 149.149 101.243 158.193C99.6688 164.936 98.6035 170.205 98.1715 172.421L70.0193 144.106C70.4738 141.267 72.4098 129.685 75.603 117.274C79.2563 103.079 86.4016 87.3609 86.4728 87.1999L85.4813 86.6252C85.4084 86.7833 78.2069 102.628 74.5194 116.961C71.559 128.471 69.6739 139.266 69.0392 143.12L52.9286 126.916C52.6576 125.456 50.9814 116.404 49.21 106.313C47.338 95.6537 51.9317 87.9197 51.9765 87.8422L51.0717 87.1043C50.868 87.4409 46.1194 95.4008 48.0986 106.662C50.0261 117.641 51.8392 127.392 51.8581 127.489L51.8959 127.694L98.8432 174.913L99.0566 173.767C99.0683 173.704 100.249 167.382 102.332 158.466C104.388 149.656 107.548 143.944 107.58 143.888L106.648 143.205Z" fill="url(#paint41_linear_430_5582)"/>
<path d="M105.967 142.019C105.967 142.019 94.6123 149.595 90.2167 145.52C85.8237 141.443 101.659 137.102 101.659 137.102L105.967 142.019Z" fill="url(#paint42_linear_430_5582)"/>
<path d="M101.733 131.992C100.304 131.56 93.1852 130.955 91.3374 134.422C89.4891 137.891 105.644 143.01 106.324 142.317C107.004 141.624 104.862 132.941 101.733 131.992Z" fill="url(#paint43_radial_430_5582)"/>
<path d="M101.352 132.577C100.231 132.23 94.6812 131.619 93.3178 134.057C91.9544 136.495 104.632 140.571 105.147 140.092C105.659 139.613 103.808 133.335 101.352 132.577Z" fill="url(#paint44_linear_430_5582)"/>
<path d="M45.4231 77.1858C60.5886 85.3324 76.8779 89.1545 88.9362 91.1098C83.8248 84.9668 77.865 79.2538 72.7684 75.9254C63.7758 70.0486 50.237 75.0696 45.4231 77.1858Z" fill="url(#paint45_linear_430_5582)"/>
<g opacity="0.3">
<path opacity="0.0909" d="M199.048 6.74921C186.29 -1.01519 175.774 4.90313 175.557 19.9703L174.217 113.33C174 128.395 184.166 146.902 196.924 154.666L319.597 230.438C332.355 238.202 347.595 231.591 347.811 216.525L349.152 123.163C349.368 108.1 334.477 90.287 321.721 82.5207L199.048 6.74921Z" fill="url(#paint46_linear_430_5582)"/>
<path opacity="0.1818" d="M198.448 7.21939C185.763 -0.501926 175.306 5.38323 175.09 20.3623L173.76 113.02C173.545 127.999 183.653 146.404 196.339 154.123L318.862 229.714C331.547 237.436 346.258 230.925 346.473 215.946L347.804 123.288C348.019 108.309 333.657 90.5298 320.971 82.8084L198.448 7.21939Z" fill="url(#paint47_linear_430_5582)"/>
<path opacity="0.2727" d="M197.851 7.68923C185.237 0.0109975 174.839 5.86297 174.625 20.758L173.305 112.711C173.091 127.606 183.142 145.906 195.756 153.584L318.126 228.995C330.74 236.671 344.919 230.265 345.133 215.37L346.454 123.417C346.668 108.522 332.835 90.7761 320.222 83.0979L197.851 7.68923Z" fill="url(#paint48_linear_430_5582)"/>
<path opacity="0.3636" d="M197.253 8.15928C184.712 0.526132 174.371 6.34485 174.159 21.1558L172.848 112.404C172.635 127.215 182.631 145.41 195.173 153.045L317.391 228.275C329.934 235.909 343.581 229.605 343.793 214.794L345.104 123.546C345.316 108.735 332.015 91.0247 319.472 83.3895L197.253 8.15928Z" fill="url(#paint49_linear_430_5582)"/>
<path opacity="0.4545" d="M196.658 8.62936C184.186 1.03927 173.907 6.82484 173.696 21.5517L172.395 112.095C172.184 126.822 182.12 144.912 194.592 152.504L316.66 227.554C329.129 235.144 342.244 228.943 342.456 214.214L343.756 123.671C343.967 108.944 331.195 91.2673 318.726 83.6772L196.658 8.62936Z" fill="url(#paint50_linear_430_5582)"/>
<path opacity="0.5455" d="M196.059 9.0994C183.661 1.55042 173.439 7.30478 173.229 21.9455L171.939 111.786C171.729 126.427 181.61 144.416 194.007 151.961L315.925 226.835C328.324 234.382 340.908 228.283 341.118 213.638L342.408 123.8C342.618 109.159 330.376 91.5159 317.976 83.9689L196.059 9.0994Z" fill="url(#paint51_linear_430_5582)"/>
<path opacity="0.6364" d="M195.461 9.56734C183.134 2.06542 172.971 7.78461 172.762 22.3413L171.482 111.475C171.273 126.032 181.097 143.918 193.424 151.42L315.189 226.113C327.517 233.615 339.569 227.619 339.778 213.062L341.058 123.928C341.267 109.372 329.554 91.7644 317.226 84.2604L195.461 9.56734Z" fill="url(#paint52_linear_430_5582)"/>
<path opacity="0.7273" d="M194.864 10.0394C182.606 2.57857 172.503 8.26455 172.295 22.7391L171.025 111.17C170.818 125.643 180.584 143.422 192.841 150.883L314.454 225.396C326.711 232.857 338.232 226.961 338.44 212.488L339.71 124.059C339.918 109.587 328.734 92.013 316.476 84.5521L194.864 10.0394Z" fill="url(#paint53_linear_430_5582)"/>
<path opacity="0.8182" d="M194.266 10.5094C182.081 3.09362 172.035 8.74439 171.828 23.1349L170.569 110.859C170.362 125.25 180.073 142.924 192.258 150.342L313.716 224.674C325.902 232.09 336.89 226.301 337.096 211.91L338.356 124.186C338.563 109.795 327.908 92.2594 315.724 84.8437L194.266 10.5094Z" fill="url(#paint54_linear_430_5582)"/>
<path opacity="0.9091" d="M193.669 10.9773C181.555 3.60464 171.571 9.22425 171.365 23.5307L170.116 110.55C169.91 124.857 179.564 142.428 191.675 149.799L312.985 223.953C325.098 231.326 335.555 225.637 335.76 211.332L337.01 124.311C337.215 110.004 327.092 92.5039 314.978 85.1312L193.669 10.9773Z" fill="url(#paint55_linear_430_5582)"/>
<path d="M193.071 11.4493C181.032 4.12173 171.103 9.70608 170.899 23.9264L169.659 110.243C169.455 124.464 179.053 141.932 191.092 149.26L312.249 223.234C324.289 230.561 334.216 224.977 334.42 210.756L335.66 124.44C335.864 110.219 326.268 92.7504 314.229 85.4228L193.071 11.4493Z" fill="url(#paint56_linear_430_5582)"/>
</g>
<path opacity="0.8" d="M192.475 9.56445C180.392 2.21023 170.432 7.81617 170.227 22.0845L168.804 121.156C168.599 135.425 178.228 152.956 190.31 160.308L311.975 234.589C324.057 241.944 334.018 236.34 334.223 222.069L335.646 122.998C335.851 108.729 326.222 91.1999 314.14 83.8476L192.475 9.56445Z" fill="url(#paint57_linear_430_5582)"/>
<path d="M314.14 83.8476L192.475 9.56445C180.392 2.21023 170.432 7.81617 170.227 22.0845L170.196 24.2627C170.4 9.99235 180.361 4.38842 192.444 11.7426L314.108 86.0238C326.191 93.378 335.819 110.907 335.615 125.176L335.646 122.998C335.851 108.729 326.22 91.2018 314.14 83.8476Z" fill="url(#paint58_radial_430_5582)"/>
<path d="M206.454 84.9233L213.928 89.4721L206.63 93.5784L214.705 98.4942L203.909 104.567L207.481 97.3031L202.698 94.3909L206.454 84.9233Z" fill="white"/>
<path d="M277.223 138.756C277.172 142.367 274.651 143.785 271.591 141.925C268.533 140.063 266.095 135.626 266.147 132.015C266.213 127.404 271.875 122.149 271.875 122.149C271.875 122.149 277.29 134.145 277.223 138.756Z" fill="white"/>
<path d="M207.28 130.549C203.903 128.494 201.118 130.062 201.061 134.05C200.953 141.539 206.979 151.558 206.979 151.558C206.979 151.558 213.185 148.984 213.293 141.494C213.348 137.506 210.657 132.606 207.28 130.549ZM207.129 141.053C205.595 140.12 204.371 137.892 204.397 136.078C204.423 134.266 205.689 133.553 207.224 134.489C208.759 135.424 209.983 137.652 209.957 139.464C209.93 141.276 208.664 141.988 207.129 141.053Z" fill="white"/>
<path d="M274.479 184.091L270.288 181.542L269.354 173.491C269.155 171.782 268.299 170.014 267.174 168.712C267.778 168.578 268.116 168.027 267.973 167.218C267.771 166.075 266.699 164.868 265.578 164.522C264.488 164.186 263.761 164.788 263.904 165.874L263.895 165.859L267.083 185.299L276.148 190.815L276.663 188.824C277.048 187.332 275.973 185.002 274.479 184.091Z" fill="white"/>
<path d="M273.942 101.622L301.705 118.539L301.776 113.65L274.012 96.7329L273.942 101.622Z" fill="white"/>
<path d="M228.782 69.2928L199.553 51.9946L199.482 56.8876L228.712 74.1838L228.782 69.2928Z" fill="white"/>
<path d="M199.688 42.551L242.381 68.0423L242.475 61.4937L199.782 36.0024L199.688 42.551Z" fill="white"/>
<path d="M265.446 96.4537L270.545 99.5566L270.615 94.6656L265.517 91.5647L265.446 96.4537Z" fill="white"/>
<path d="M246.931 70.811L284.129 92.2586L284.223 85.71L247.025 64.2644L246.931 70.811Z" fill="white"/>
<path d="M262.12 89.4975L232.181 71.3601L232.11 76.249L262.05 94.3864L262.12 89.4975Z" fill="white"/>
<g opacity="0.4">
<path d="M296.151 136.897L289.117 132.483L289.046 137.374L296.081 141.788L296.151 136.897Z" fill="white"/>
<path d="M307.716 154.34L288.973 142.493L288.903 147.384L307.646 159.233L307.716 154.34Z" fill="white"/>
<path d="M315.649 148.447L299.547 138.964L299.477 143.855L315.579 153.339L315.649 148.447Z" fill="white"/>
</g>
<g opacity="0.4">
<path d="M295.471 184.279L288.437 179.865L288.366 184.755L295.401 189.17L295.471 184.279Z" fill="white"/>
<path d="M307.036 201.722L288.293 189.875L288.223 194.765L306.965 206.613L307.036 201.722Z" fill="white"/>
<path d="M314.969 195.828L298.867 186.346L298.797 191.237L314.899 200.719L314.969 195.828Z" fill="white"/>
</g>
<g opacity="0.4">
<path d="M231.921 100.265L224.886 95.8511L224.816 100.742L231.85 105.156L231.921 100.265Z" fill="white"/>
<path d="M243.485 117.708L224.743 105.861L224.672 110.752L243.415 122.599L243.485 117.708Z" fill="white"/>
<path d="M251.419 111.815L235.317 102.333L235.247 107.223L251.349 116.706L251.419 111.815Z" fill="white"/>
</g>
<g opacity="0.4">
<path d="M231.24 147.645L224.206 143.233L224.135 148.124L231.17 152.536L231.24 147.645Z" fill="white"/>
<path d="M242.805 165.09L224.062 153.243L223.992 158.134L242.735 169.981L242.805 165.09Z" fill="white"/>
<path d="M250.738 159.197L234.636 149.714L234.566 154.605L250.668 164.087L250.738 159.197Z" fill="white"/>
</g>
<g opacity="0.5">
<path d="M213.403 112.663C211.441 112.635 209.359 111.958 207.211 110.649C199.967 106.244 194.172 95.6923 194.295 87.1337C194.384 80.9295 197.589 76.9646 202.456 77.0345C204.416 77.0627 206.498 77.7394 208.646 79.0477C215.892 83.457 221.685 94.0069 221.562 102.564C221.473 108.768 218.27 112.733 213.403 112.663ZM202.428 79.0365C198.694 78.9829 196.33 82.0968 196.257 87.1619C196.143 95.0838 201.509 104.851 208.217 108.932C210.04 110.039 211.84 110.638 213.431 110.661C217.163 110.714 219.527 107.602 219.6 102.535C219.714 94.6154 214.348 84.8505 207.64 80.7654C205.819 79.6579 204.017 79.0594 202.428 79.0365Z" fill="white"/>
</g>
<g opacity="0.5">
<path d="M276.934 150.151C274.972 150.123 272.89 149.446 270.742 148.138C263.496 143.729 257.702 133.179 257.825 124.622C257.914 118.418 261.118 114.453 265.986 114.523C267.946 114.551 270.03 115.228 272.177 116.536C279.424 120.946 285.216 131.495 285.093 140.052C285.004 146.256 281.801 150.221 276.934 150.151ZM265.959 116.525C262.225 116.471 259.861 119.583 259.788 124.65C259.675 132.57 265.041 142.337 271.75 146.42C273.573 147.528 275.374 148.126 276.965 148.149C280.696 148.203 283.06 145.091 283.133 140.024C283.247 132.104 277.881 122.339 271.173 118.254C269.351 117.148 267.548 116.548 265.959 116.525Z" fill="white"/>
</g>
<g opacity="0.5">
<path d="M212.751 158.042C210.789 158.014 208.707 157.338 206.559 156.029C199.315 151.622 193.52 141.07 193.643 132.513C193.732 126.309 196.937 122.344 201.802 122.414C203.764 122.442 205.846 123.119 207.994 124.427C215.24 128.837 221.033 139.387 220.91 147.943C220.821 154.147 217.618 158.112 212.751 158.042ZM201.774 124.416C198.042 124.363 195.678 127.474 195.605 132.542C195.492 140.461 200.857 150.228 207.565 154.311C209.388 155.419 211.188 156.017 212.78 156.04C216.511 156.094 218.875 152.982 218.948 147.915C219.062 139.995 213.696 130.23 206.988 126.145C205.167 125.038 203.365 124.439 201.774 124.416Z" fill="white"/>
</g>
<g opacity="0.5">
<path d="M276.281 195.529C274.321 195.501 272.239 194.826 270.091 193.518C262.845 189.109 257.05 178.559 257.173 170.002C257.262 163.798 260.467 159.833 265.334 159.903C267.294 159.931 269.378 160.608 271.526 161.916C278.77 166.323 284.565 176.873 284.442 185.43C284.353 191.636 281.15 195.599 276.281 195.529ZM265.307 161.905C261.574 161.851 259.21 164.963 259.137 170.03C259.023 177.95 264.389 187.717 271.099 191.8C272.92 192.908 274.72 193.504 276.311 193.527C280.043 193.581 282.409 190.469 282.482 185.402C282.596 177.482 277.229 167.717 270.522 163.634C268.699 162.528 266.897 161.928 265.307 161.905Z" fill="white"/>
</g>
<defs>
<linearGradient id="paint0_linear_430_5582" x1="124.286" y1="201.409" x2="106.38" y2="171.911" gradientUnits="userSpaceOnUse">
<stop stop-color="#010002"/>
<stop offset="0.0253" stop-color="#030106"/>
<stop offset="0.1915" stop-color="#0F0419"/>
<stop offset="0.3616" stop-color="#170524"/>
<stop offset="0.5404" stop-color="#190628"/>
<stop offset="0.7029" stop-color="#0B0312"/>
<stop offset="0.8596" stop-color="#030105"/>
<stop offset="1"/>
</linearGradient>
<linearGradient id="paint1_linear_430_5582" x1="101.934" y1="186.091" x2="122.685" y2="189.952" gradientUnits="userSpaceOnUse">
<stop stop-color="#100221"/>
<stop offset="1" stop-color="#390C73"/>
</linearGradient>
<radialGradient id="paint2_radial_430_5582" cx="0" cy="0" r="1" gradientUnits="userSpaceOnUse" gradientTransform="translate(114.524 187.999) rotate(10.5418) scale(11.4016 13.6606)">
<stop stop-color="white"/>
<stop offset="1"/>
</radialGradient>
<linearGradient id="paint3_linear_430_5582" x1="104.625" y1="186.802" x2="120.606" y2="189.776" gradientUnits="userSpaceOnUse">
<stop stop-color="#BCBEC0"/>
<stop offset="1" stop-color="#E6E7E8"/>
</linearGradient>
<linearGradient id="paint4_linear_430_5582" x1="104.083" y1="186.95" x2="120.064" y2="189.924" gradientUnits="userSpaceOnUse">
<stop stop-color="#BCBEC0"/>
<stop offset="1" stop-color="#E6E7E8"/>
</linearGradient>
<linearGradient id="paint5_linear_430_5582" x1="48.0391" y1="126.514" x2="30.1331" y2="97.0166" gradientUnits="userSpaceOnUse">
<stop stop-color="#010002"/>
<stop offset="0.0253" stop-color="#030106"/>
<stop offset="0.1915" stop-color="#0F0419"/>
<stop offset="0.3616" stop-color="#170524"/>
<stop offset="0.5404" stop-color="#190628"/>
<stop offset="0.7029" stop-color="#0B0312"/>
<stop offset="0.8596" stop-color="#030105"/>
<stop offset="1"/>
</linearGradient>
<linearGradient id="paint6_linear_430_5582" x1="25.6861" y1="111.196" x2="46.4351" y2="115.057" gradientUnits="userSpaceOnUse">
<stop stop-color="#100221"/>
<stop offset="1" stop-color="#390C73"/>
</linearGradient>
<radialGradient id="paint7_radial_430_5582" cx="0" cy="0" r="1" gradientUnits="userSpaceOnUse" gradientTransform="translate(38.2734 113.106) rotate(10.5418) scale(11.4016 13.6606)">
<stop stop-color="white"/>
<stop offset="1"/>
</radialGradient>
<linearGradient id="paint8_linear_430_5582" x1="28.3765" y1="111.91" x2="44.3556" y2="114.883" gradientUnits="userSpaceOnUse">
<stop stop-color="#BCBEC0"/>
<stop offset="1" stop-color="#E6E7E8"/>
</linearGradient>
<linearGradient id="paint9_linear_430_5582" x1="27.8341" y1="112.057" x2="43.8131" y2="115.031" gradientUnits="userSpaceOnUse">
<stop stop-color="#BCBEC0"/>
<stop offset="1" stop-color="#E6E7E8"/>
</linearGradient>
<radialGradient id="paint10_radial_430_5582" cx="0" cy="0" r="1" gradientUnits="userSpaceOnUse" gradientTransform="translate(161.611 104.991) rotate(10.5418) scale(9.45661 11.3303)">
<stop stop-color="#FF63CE"/>
<stop offset="1" stop-color="#9F19AB"/>
</radialGradient>
<radialGradient id="paint11_radial_430_5582" cx="0" cy="0" r="1" gradientUnits="userSpaceOnUse" gradientTransform="translate(129.446 82.1157) rotate(10.5418) scale(111.01 133.005)">
<stop stop-color="#FF63CE"/>
<stop offset="1" stop-color="#9F19AB"/>
</radialGradient>
<radialGradient id="paint12_radial_430_5582" cx="0" cy="0" r="1" gradientUnits="userSpaceOnUse" gradientTransform="translate(84.9642 132.756) rotate(10.5418) scale(59.642 71.459)">
<stop stop-color="white"/>
<stop offset="1"/>
</radialGradient>
<linearGradient id="paint13_linear_430_5582" x1="47.8938" y1="49.2098" x2="97.2011" y2="58.3855" gradientUnits="userSpaceOnUse">
<stop stop-color="#25054D"/>
<stop offset="1" stop-color="#45108A"/>
</linearGradient>
<linearGradient id="paint14_linear_430_5582" x1="102.834" y1="153.913" x2="194.182" y2="85.9982" gradientUnits="userSpaceOnUse">
<stop stop-color="#25054D"/>
<stop offset="1" stop-color="#45108A"/>
</linearGradient>
<linearGradient id="paint15_linear_430_5582" x1="39.8588" y1="98.3666" x2="110.274" y2="111.47" gradientUnits="userSpaceOnUse">
<stop stop-color="#25054D"/>
<stop offset="1" stop-color="#45108A"/>
</linearGradient>
<radialGradient id="paint16_radial_430_5582" cx="0" cy="0" r="1" gradientUnits="userSpaceOnUse" gradientTransform="translate(172.45 182.086) rotate(10.5418) scale(13.9192 16.6771)">
<stop stop-color="white"/>
<stop offset="1"/>
</radialGradient>
<linearGradient id="paint17_linear_430_5582" x1="144.479" y1="184.313" x2="141.047" y2="194.703" gradientUnits="userSpaceOnUse">
<stop stop-color="#BCBEC0"/>
<stop offset="1" stop-color="#E6E7E8"/>
</linearGradient>
<linearGradient id="paint18_linear_430_5582" x1="142.612" y1="192.81" x2="145.431" y2="176.188" gradientUnits="userSpaceOnUse">
<stop stop-color="#9C9C9C"/>
<stop offset="0.0047" stop-color="#9D9D9D"/>
<stop offset="0.3149" stop-color="#C7C7C7"/>
<stop offset="0.595" stop-color="#E6E6E6"/>
<stop offset="0.8328" stop-color="#F8F8F8"/>
<stop offset="1" stop-color="white"/>
</linearGradient>
<linearGradient id="paint19_linear_430_5582" x1="190.149" y1="171.421" x2="196.094" y2="172.306" gradientUnits="userSpaceOnUse">
<stop stop-color="#BCBEC0"/>
<stop offset="1" stop-color="#E6E7E8"/>
</linearGradient>
<linearGradient id="paint20_linear_430_5582" x1="196.129" y1="159.48" x2="187.824" y2="177.089" gradientUnits="userSpaceOnUse">
<stop stop-color="#9C9C9C"/>
<stop offset="0.0047" stop-color="#9D9D9D"/>
<stop offset="0.3149" stop-color="#C7C7C7"/>
<stop offset="0.595" stop-color="#E6E6E6"/>
<stop offset="0.8328" stop-color="#F8F8F8"/>
<stop offset="1" stop-color="white"/>
</linearGradient>
<radialGradient id="paint21_radial_430_5582" cx="0" cy="0" r="1" gradientUnits="userSpaceOnUse" gradientTransform="translate(31.0524 59.4922) rotate(10.5418) scale(5.8996 7.06854)">
<stop stop-color="#FEECA8"/>
<stop offset="1" stop-color="#FFA98C"/>
</radialGradient>
<linearGradient id="paint22_linear_430_5582" x1="141.521" y1="190.046" x2="148.923" y2="191.424" gradientUnits="userSpaceOnUse">
<stop stop-color="#BCBEC0"/>
<stop offset="1" stop-color="#E6E7E8"/>
</linearGradient>
<linearGradient id="paint23_linear_430_5582" x1="149.507" y1="192.193" x2="146.197" y2="191.577" gradientUnits="userSpaceOnUse">
<stop stop-color="#BCBEC0"/>
<stop offset="0.6862" stop-color="#E9EAEA"/>
<stop offset="1" stop-color="white"/>
</linearGradient>
<linearGradient id="paint24_linear_430_5582" x1="136.829" y1="189.044" x2="144.294" y2="190.433" gradientUnits="userSpaceOnUse">
<stop stop-color="#BCBEC0"/>
<stop offset="1" stop-color="#E6E7E8"/>
</linearGradient>
<linearGradient id="paint25_linear_430_5582" x1="144.883" y1="191.211" x2="141.545" y2="190.59" gradientUnits="userSpaceOnUse">
<stop stop-color="#BCBEC0"/>
<stop offset="0.6862" stop-color="#E9EAEA"/>
<stop offset="1" stop-color="white"/>
</linearGradient>
<radialGradient id="paint26_radial_430_5582" cx="0" cy="0" r="1" gradientUnits="userSpaceOnUse" gradientTransform="translate(137.898 186.027) rotate(10.5418) scale(2.92805 3.50817)">
<stop offset="0.1594" stop-color="#FF9900"/>
<stop offset="0.3403" stop-color="#FD9500"/>
<stop offset="0.5176" stop-color="#F68900"/>
<stop offset="0.6935" stop-color="#EA7600"/>
<stop offset="0.8675" stop-color="#DB5A00"/>
<stop offset="0.9949" stop-color="#CC4100"/>
</radialGradient>
<radialGradient id="paint27_radial_430_5582" cx="0" cy="0" r="1" gradientUnits="userSpaceOnUse" gradientTransform="translate(140.236 187.054) rotate(-169.458) scale(1.72235 2.06364)">
<stop offset="0.1594" stop-color="#FF9900"/>
<stop offset="0.3403" stop-color="#FD9500"/>
<stop offset="0.5176" stop-color="#F68900"/>
<stop offset="0.6935" stop-color="#EA7600"/>
<stop offset="0.8675" stop-color="#DB5A00"/>
<stop offset="0.9949" stop-color="#CC4100"/>
</radialGradient>
<linearGradient id="paint28_linear_430_5582" x1="190.139" y1="172.041" x2="193.682" y2="172.701" gradientUnits="userSpaceOnUse">
<stop stop-color="#BCBEC0"/>
<stop offset="1" stop-color="#E6E7E8"/>
</linearGradient>
<linearGradient id="paint29_linear_430_5582" x1="194.269" y1="173.028" x2="191.326" y2="172.481" gradientUnits="userSpaceOnUse">
<stop stop-color="#BCBEC0"/>
<stop offset="0.6862" stop-color="#E9EAEA"/>
<stop offset="1" stop-color="white"/>
</linearGradient>
<linearGradient id="paint30_linear_430_5582" x1="192.463" y1="168.339" x2="195.399" y2="168.885" gradientUnits="userSpaceOnUse">
<stop stop-color="#BCBEC0"/>
<stop offset="1" stop-color="#E6E7E8"/>
</linearGradient>
<linearGradient id="paint31_linear_430_5582" x1="195.889" y1="168.933" x2="193.624" y2="168.512" gradientUnits="userSpaceOnUse">
<stop stop-color="#BCBEC0"/>
<stop offset="0.6862" stop-color="#E9EAEA"/>
<stop offset="1" stop-color="white"/>
</linearGradient>
<linearGradient id="paint32_linear_430_5582" x1="79.629" y1="116.629" x2="70.056" y2="125.877" gradientUnits="userSpaceOnUse">
<stop stop-color="#B4299A"/>
<stop offset="0.1025" stop-color="#992383"/>
<stop offset="0.3283" stop-color="#631755"/>
<stop offset="0.5387" stop-color="#380D30"/>
<stop offset="0.7274" stop-color="#190616"/>
<stop offset="0.8875" stop-color="#070206"/>
<stop offset="1"/>
</linearGradient>
<linearGradient id="paint33_linear_430_5582" x1="139.251" y1="215.208" x2="149.057" y2="203.465" gradientUnits="userSpaceOnUse">
<stop stop-color="#9C9C9C"/>
<stop offset="0.0047" stop-color="#9D9D9D"/>
<stop offset="0.3149" stop-color="#C7C7C7"/>
<stop offset="0.595" stop-color="#E6E6E6"/>
<stop offset="0.8328" stop-color="#F8F8F8"/>
<stop offset="1" stop-color="white"/>
</linearGradient>
<radialGradient id="paint34_radial_430_5582" cx="0" cy="0" r="1" gradientUnits="userSpaceOnUse" gradientTransform="translate(164.23 179.857) rotate(10.5418) scale(26.9863 32.3331)">
<stop stop-color="#FF63CE"/>
<stop offset="1" stop-color="#9F19AB"/>
</radialGradient>
<radialGradient id="paint35_radial_430_5582" cx="0" cy="0" r="1" gradientUnits="userSpaceOnUse" gradientTransform="translate(178.259 201.521) rotate(10.5418) scale(26.1964 31.3866)">
<stop stop-color="#FFE4A7"/>
<stop offset="1"/>
</radialGradient>
<linearGradient id="paint36_linear_430_5582" x1="158.934" y1="214.913" x2="159.093" y2="193.99" gradientUnits="userSpaceOnUse">
<stop stop-color="#9C9C9C"/>
<stop offset="0.0047" stop-color="#9D9D9D"/>
<stop offset="0.3149" stop-color="#C7C7C7"/>
<stop offset="0.595" stop-color="#E6E6E6"/>
<stop offset="0.8328" stop-color="#F8F8F8"/>
<stop offset="1" stop-color="white"/>
</linearGradient>
<linearGradient id="paint37_linear_430_5582" x1="171.363" y1="73.6621" x2="120.531" y2="114.614" gradientUnits="userSpaceOnUse">
<stop stop-color="#9C9C9C"/>
<stop offset="0.0133" stop-color="#999999"/>
<stop offset="0.2616" stop-color="#636363"/>
<stop offset="0.4929" stop-color="#383838"/>
<stop offset="0.7003" stop-color="#191919"/>
<stop offset="0.8763" stop-color="#070707"/>
<stop offset="1"/>
</linearGradient>
<linearGradient id="paint38_linear_430_5582" x1="142.551" y1="193.982" x2="189.957" y2="202.804" gradientUnits="userSpaceOnUse">
<stop stop-color="#25054D"/>
<stop offset="1" stop-color="#45108A"/>
</linearGradient>
<radialGradient id="paint39_radial_430_5582" cx="0" cy="0" r="1" gradientUnits="userSpaceOnUse" gradientTransform="translate(141.32 185.589) rotate(10.5418) scale(6.26161 7.50217)">
<stop stop-color="white"/>
<stop offset="1"/>
</radialGradient>
<linearGradient id="paint40_linear_430_5582" x1="131.99" y1="119.83" x2="58.1646" y2="29.9505" gradientUnits="userSpaceOnUse">
<stop stop-color="#B4299A"/>
<stop offset="0.1025" stop-color="#992383"/>
<stop offset="0.3283" stop-color="#631755"/>
<stop offset="0.5387" stop-color="#380D30"/>
<stop offset="0.7274" stop-color="#190616"/>
<stop offset="0.8875" stop-color="#070206"/>
<stop offset="1"/>
</linearGradient>
<linearGradient id="paint41_linear_430_5582" x1="101.829" y1="104.199" x2="32.9341" y2="152.127" gradientUnits="userSpaceOnUse">
<stop stop-color="#B4299A"/>
<stop offset="0.1025" stop-color="#992383"/>
<stop offset="0.3283" stop-color="#631755"/>
<stop offset="0.5387" stop-color="#380D30"/>
<stop offset="0.7274" stop-color="#190616"/>
<stop offset="0.8875" stop-color="#070206"/>
<stop offset="1"/>
</linearGradient>
<linearGradient id="paint42_linear_430_5582" x1="105.271" y1="140.657" x2="87.3833" y2="141.932" gradientUnits="userSpaceOnUse">
<stop stop-color="#696969"/>
<stop offset="0.2423" stop-color="#9C9C9C"/>
<stop offset="0.4796" stop-color="#C7C7C7"/>
<stop offset="0.6924" stop-color="#E6E6E6"/>
<stop offset="0.873" stop-color="#F8F8F8"/>
<stop offset="1" stop-color="white"/>
</linearGradient>
<radialGradient id="paint43_radial_430_5582" cx="0" cy="0" r="1" gradientUnits="userSpaceOnUse" gradientTransform="translate(99.8236 131.444) rotate(10.5418) scale(9.35592 11.2097)">
<stop stop-color="#FF63CE"/>
<stop offset="1" stop-color="#9F19AB"/>
</radialGradient>
<linearGradient id="paint44_linear_430_5582" x1="99.8178" y1="130.711" x2="99.3783" y2="138.929" gradientUnits="userSpaceOnUse">
<stop stop-color="#9C9C9C"/>
<stop offset="0.0133" stop-color="#999999"/>
<stop offset="0.2616" stop-color="#636363"/>
<stop offset="0.4929" stop-color="#383838"/>
<stop offset="0.7003" stop-color="#191919"/>
<stop offset="0.8763" stop-color="#070707"/>
<stop offset="1"/>
</linearGradient>
<linearGradient id="paint45_linear_430_5582" x1="90.5101" y1="57.6682" x2="52.7762" y2="88.0681" gradientUnits="userSpaceOnUse">
<stop stop-color="#9C9C9C"/>
<stop offset="0.0133" stop-color="#999999"/>
<stop offset="0.2616" stop-color="#636363"/>
<stop offset="0.4929" stop-color="#383838"/>
<stop offset="0.7003" stop-color="#191919"/>
<stop offset="0.8763" stop-color="#070707"/>
<stop offset="1"/>
</linearGradient>
<linearGradient id="paint46_linear_430_5582" x1="151.972" y1="-101.311" x2="293.426" y2="172.388" gradientUnits="userSpaceOnUse">
<stop offset="0.0101" stop-color="#9F19AB"/>
<stop offset="0.4293" stop-color="#5F27BD"/>
<stop offset="0.904" stop-color="#3D065F"/>
</linearGradient>
<linearGradient id="paint47_linear_430_5582" x1="151.657" y1="-100.347" x2="292.435" y2="172.045" gradientUnits="userSpaceOnUse">
<stop offset="0.0101" stop-color="#9F19AB"/>
<stop offset="0.4293" stop-color="#5F27BD"/>
<stop offset="0.904" stop-color="#3D065F"/>
</linearGradient>
<linearGradient id="paint48_linear_430_5582" x1="151.346" y1="-99.3843" x2="291.448" y2="171.7" gradientUnits="userSpaceOnUse">
<stop offset="0.0101" stop-color="#9F19AB"/>
<stop offset="0.4293" stop-color="#5F27BD"/>
<stop offset="0.904" stop-color="#3D065F"/>
</linearGradient>
<linearGradient id="paint49_linear_430_5582" x1="151.035" y1="-98.4227" x2="290.463" y2="171.356" gradientUnits="userSpaceOnUse">
<stop offset="0.0101" stop-color="#9F19AB"/>
<stop offset="0.4293" stop-color="#5F27BD"/>
<stop offset="0.904" stop-color="#3D065F"/>
</linearGradient>
<linearGradient id="paint50_linear_430_5582" x1="150.728" y1="-97.4639" x2="289.481" y2="171.01" gradientUnits="userSpaceOnUse">
<stop offset="0.0101" stop-color="#9F19AB"/>
<stop offset="0.4293" stop-color="#5F27BD"/>
<stop offset="0.904" stop-color="#3D065F"/>
</linearGradient>
<linearGradient id="paint51_linear_430_5582" x1="150.427" y1="-96.5052" x2="288.506" y2="170.665" gradientUnits="userSpaceOnUse">
<stop offset="0.0101" stop-color="#9F19AB"/>
<stop offset="0.4293" stop-color="#5F27BD"/>
<stop offset="0.904" stop-color="#3D065F"/>
</linearGradient>
<linearGradient id="paint52_linear_430_5582" x1="150.126" y1="-95.5474" x2="287.53" y2="170.317" gradientUnits="userSpaceOnUse">
<stop offset="0.0101" stop-color="#9F19AB"/>
<stop offset="0.4293" stop-color="#5F27BD"/>
<stop offset="0.904" stop-color="#3D065F"/>
</linearGradient>
<linearGradient id="paint53_linear_430_5582" x1="149.831" y1="-94.5972" x2="286.563" y2="169.968" gradientUnits="userSpaceOnUse">
<stop offset="0.0101" stop-color="#9F19AB"/>
<stop offset="0.4293" stop-color="#5F27BD"/>
<stop offset="0.904" stop-color="#3D065F"/>
</linearGradient>
<linearGradient id="paint54_linear_430_5582" x1="149.539" y1="-93.6453" x2="285.598" y2="169.616" gradientUnits="userSpaceOnUse">
<stop offset="0.0101" stop-color="#9F19AB"/>
<stop offset="0.4293" stop-color="#5F27BD"/>
<stop offset="0.904" stop-color="#3D065F"/>
</linearGradient>
<linearGradient id="paint55_linear_430_5582" x1="149.253" y1="-92.6981" x2="284.638" y2="169.259" gradientUnits="userSpaceOnUse">
<stop offset="0.0101" stop-color="#9F19AB"/>
<stop offset="0.4293" stop-color="#5F27BD"/>
<stop offset="0.904" stop-color="#3D065F"/>
</linearGradient>
<linearGradient id="paint56_linear_430_5582" x1="148.968" y1="-91.7529" x2="283.681" y2="168.905" gradientUnits="userSpaceOnUse">
<stop offset="0.0101" stop-color="#9F19AB"/>
<stop offset="0.4293" stop-color="#5F27BD"/>
<stop offset="0.904" stop-color="#3D065F"/>
</linearGradient>
<linearGradient id="paint57_linear_430_5582" x1="338.641" y1="300.713" x2="122.9" y2="-127.187" gradientUnits="userSpaceOnUse">
<stop offset="0.0303" stop-color="#7C1DC9"/>
<stop offset="0.2138" stop-color="#6E41D2"/>
<stop offset="0.6184" stop-color="#4C9BE8"/>
<stop offset="1" stop-color="#2AF6FF"/>
</linearGradient>
<radialGradient id="paint58_radial_430_5582" cx="0" cy="0" r="1" gradientUnits="userSpaceOnUse" gradientTransform="translate(253.033 65.6651) rotate(0.822748) scale(156.015 159.204)">
<stop stop-color="#711F56"/>
<stop offset="0.1614" stop-color="#6C1E52"/>
<stop offset="0.3626" stop-color="#5C1946"/>
<stop offset="0.5849" stop-color="#431233"/>
<stop offset="0.8208" stop-color="#200918"/>
<stop offset="1"/>
</radialGradient>
</defs>
</svg>
