<svg width="107" height="218" viewBox="0 0 107 218" fill="none" xmlns="http://www.w3.org/2000/svg">
<g opacity="0.3">
<ellipse cx="103.659" cy="4.63222" rx="3.18364" ry="2.33946" transform="rotate(90.8253 103.659 4.63222)" fill="white"/>
<ellipse cx="103.383" cy="23.7316" rx="3.18364" ry="2.33946" transform="rotate(90.8253 103.383 23.7316)" fill="white"/>
<ellipse cx="103.108" cy="42.8316" rx="3.18364" ry="2.33946" transform="rotate(90.8253 103.108 42.8316)" fill="white"/>
<ellipse cx="102.833" cy="61.9318" rx="3.18364" ry="2.33946" transform="rotate(90.8253 102.833 61.9318)" fill="white"/>
<ellipse cx="102.558" cy="81.0318" rx="3.18364" ry="2.33946" transform="rotate(90.8253 102.558 81.0318)" fill="white"/>
<ellipse cx="102.283" cy="100.132" rx="3.18364" ry="2.33946" transform="rotate(90.8253 102.283 100.132)" fill="white"/>
<ellipse cx="102.008" cy="119.232" rx="3.18364" ry="2.33946" transform="rotate(90.8253 102.008 119.232)" fill="white"/>
<ellipse cx="101.733" cy="138.331" rx="3.18364" ry="2.33946" transform="rotate(90.8253 101.733 138.331)" fill="white"/>
<ellipse cx="101.457" cy="157.431" rx="3.18364" ry="2.33946" transform="rotate(90.8253 101.457 157.431)" fill="white"/>
<ellipse cx="101.182" cy="176.531" rx="3.18364" ry="2.33946" transform="rotate(90.8253 101.182 176.531)" fill="white"/>
<ellipse cx="100.907" cy="195.631" rx="3.18364" ry="2.33946" transform="rotate(90.8253 100.907 195.631)" fill="white"/>
<ellipse cx="100.632" cy="214.731" rx="3.18364" ry="2.33946" transform="rotate(90.8253 100.632 214.731)" fill="white"/>
<ellipse cx="89.6215" cy="4.43007" rx="3.18364" ry="2.33946" transform="rotate(90.8253 89.6215 4.43007)" fill="white"/>
<ellipse cx="89.3473" cy="23.5293" rx="3.18364" ry="2.33946" transform="rotate(90.8253 89.3473 23.5293)" fill="white"/>
<ellipse cx="89.0722" cy="42.6291" rx="3.18364" ry="2.33946" transform="rotate(90.8253 89.0722 42.6291)" fill="white"/>
<ellipse cx="88.7971" cy="61.7296" rx="3.18364" ry="2.33946" transform="rotate(90.8253 88.7971 61.7296)" fill="white"/>
<ellipse cx="88.5219" cy="80.8294" rx="3.18364" ry="2.33946" transform="rotate(90.8253 88.5219 80.8294)" fill="white"/>
<ellipse cx="88.2468" cy="99.9294" rx="3.18364" ry="2.33946" transform="rotate(90.8253 88.2468 99.9294)" fill="white"/>
<ellipse cx="87.9717" cy="119.03" rx="3.18364" ry="2.33946" transform="rotate(90.8253 87.9717 119.03)" fill="white"/>
<ellipse cx="87.6965" cy="138.129" rx="3.18364" ry="2.33946" transform="rotate(90.8253 87.6965 138.129)" fill="white"/>
<ellipse cx="87.4214" cy="157.229" rx="3.18364" ry="2.33946" transform="rotate(90.8253 87.4214 157.229)" fill="white"/>
<ellipse cx="87.1462" cy="176.329" rx="3.18364" ry="2.33946" transform="rotate(90.8253 87.1462 176.329)" fill="white"/>
<ellipse cx="86.8712" cy="195.428" rx="3.18364" ry="2.33946" transform="rotate(90.8253 86.8712 195.428)" fill="white"/>
<ellipse cx="86.5959" cy="214.529" rx="3.18364" ry="2.33946" transform="rotate(90.8253 86.5959 214.529)" fill="white"/>
<ellipse cx="75.5879" cy="4.22799" rx="3.18364" ry="2.33946" transform="rotate(90.8253 75.5879 4.22799)" fill="white"/>
<ellipse cx="75.3129" cy="23.3273" rx="3.18364" ry="2.33946" transform="rotate(90.8253 75.3129 23.3273)" fill="white"/>
<ellipse cx="75.0378" cy="42.4271" rx="3.18364" ry="2.33946" transform="rotate(90.8253 75.0378 42.4271)" fill="white"/>
<ellipse cx="74.7626" cy="61.5275" rx="3.18364" ry="2.33946" transform="rotate(90.8253 74.7626 61.5275)" fill="white"/>
<ellipse cx="74.4875" cy="80.6273" rx="3.18364" ry="2.33946" transform="rotate(90.8253 74.4875 80.6273)" fill="white"/>
<ellipse cx="74.2124" cy="99.7274" rx="3.18364" ry="2.33946" transform="rotate(90.8253 74.2124 99.7274)" fill="white"/>
<ellipse cx="73.9373" cy="118.828" rx="3.18364" ry="2.33946" transform="rotate(90.8253 73.9373 118.828)" fill="white"/>
<ellipse cx="73.6621" cy="137.927" rx="3.18364" ry="2.33946" transform="rotate(90.8253 73.6621 137.927)" fill="white"/>
<ellipse cx="73.387" cy="157.027" rx="3.18364" ry="2.33946" transform="rotate(90.8253 73.387 157.027)" fill="white"/>
<ellipse cx="73.1118" cy="176.127" rx="3.18364" ry="2.33946" transform="rotate(90.8253 73.1118 176.127)" fill="white"/>
<ellipse cx="72.8367" cy="195.226" rx="3.18364" ry="2.33946" transform="rotate(90.8253 72.8367 195.226)" fill="white"/>
<ellipse cx="72.5616" cy="214.327" rx="3.18364" ry="2.33946" transform="rotate(90.8253 72.5616 214.327)" fill="white"/>
<ellipse cx="61.5527" cy="4.02572" rx="3.18364" ry="2.33946" transform="rotate(90.8253 61.5527 4.02572)" fill="white"/>
<ellipse cx="61.2776" cy="23.125" rx="3.18364" ry="2.33946" transform="rotate(90.8253 61.2776 23.125)" fill="white"/>
<ellipse cx="61.0025" cy="42.2249" rx="3.18364" ry="2.33946" transform="rotate(90.8253 61.0025 42.2249)" fill="white"/>
<ellipse cx="60.7274" cy="61.3253" rx="3.18364" ry="2.33946" transform="rotate(90.8253 60.7274 61.3253)" fill="white"/>
<ellipse cx="60.4522" cy="80.4251" rx="3.18364" ry="2.33946" transform="rotate(90.8253 60.4522 80.4251)" fill="white"/>
<ellipse cx="60.1771" cy="99.5251" rx="3.18364" ry="2.33946" transform="rotate(90.8253 60.1771 99.5251)" fill="white"/>
<ellipse cx="59.902" cy="118.626" rx="3.18364" ry="2.33946" transform="rotate(90.8253 59.902 118.626)" fill="white"/>
<ellipse cx="59.6268" cy="137.725" rx="3.18364" ry="2.33946" transform="rotate(90.8253 59.6268 137.725)" fill="white"/>
<ellipse cx="59.3517" cy="156.825" rx="3.18364" ry="2.33946" transform="rotate(90.8253 59.3517 156.825)" fill="white"/>
<ellipse cx="59.0766" cy="175.925" rx="3.18364" ry="2.33946" transform="rotate(90.8253 59.0766 175.925)" fill="white"/>
<ellipse cx="58.8015" cy="195.024" rx="3.18364" ry="2.33946" transform="rotate(90.8253 58.8015 195.024)" fill="white"/>
<ellipse cx="58.5263" cy="214.124" rx="3.18364" ry="2.33946" transform="rotate(90.8253 58.5263 214.124)" fill="white"/>
<ellipse cx="47.5174" cy="3.82351" rx="3.18364" ry="2.33946" transform="rotate(90.8253 47.5174 3.82351)" fill="white"/>
<ellipse cx="47.2422" cy="22.9229" rx="3.18364" ry="2.33946" transform="rotate(90.8253 47.2422 22.9229)" fill="white"/>
<ellipse cx="46.967" cy="42.0227" rx="3.18364" ry="2.33946" transform="rotate(90.8253 46.967 42.0227)" fill="white"/>
<ellipse cx="46.6919" cy="61.1232" rx="3.18364" ry="2.33946" transform="rotate(90.8253 46.6919 61.1232)" fill="white"/>
<ellipse cx="46.4168" cy="80.223" rx="3.18364" ry="2.33946" transform="rotate(90.8253 46.4168 80.223)" fill="white"/>
<ellipse cx="46.1416" cy="99.323" rx="3.18364" ry="2.33946" transform="rotate(90.8253 46.1416 99.323)" fill="white"/>
<ellipse cx="45.8665" cy="118.424" rx="3.18364" ry="2.33946" transform="rotate(90.8253 45.8665 118.424)" fill="white"/>
<ellipse cx="45.5914" cy="137.523" rx="3.18364" ry="2.33946" transform="rotate(90.8253 45.5914 137.523)" fill="white"/>
<ellipse cx="45.3163" cy="156.623" rx="3.18364" ry="2.33946" transform="rotate(90.8253 45.3163 156.623)" fill="white"/>
<ellipse cx="45.0411" cy="175.722" rx="3.18364" ry="2.33946" transform="rotate(90.8253 45.0411 175.722)" fill="white"/>
<ellipse cx="44.766" cy="194.822" rx="3.18364" ry="2.33946" transform="rotate(90.8253 44.766 194.822)" fill="white"/>
<ellipse cx="44.4908" cy="213.922" rx="3.18364" ry="2.33946" transform="rotate(90.8253 44.4908 213.922)" fill="white"/>
<ellipse cx="33.4814" cy="3.62136" rx="3.18364" ry="2.33946" transform="rotate(90.8253 33.4814 3.62136)" fill="white"/>
<ellipse cx="33.2061" cy="22.7207" rx="3.18364" ry="2.33946" transform="rotate(90.8253 33.2061 22.7207)" fill="white"/>
<ellipse cx="32.931" cy="41.8205" rx="3.18364" ry="2.33946" transform="rotate(90.8253 32.931 41.8205)" fill="white"/>
<ellipse cx="32.6558" cy="60.921" rx="3.18364" ry="2.33946" transform="rotate(90.8253 32.6558 60.921)" fill="white"/>
<ellipse cx="32.3807" cy="80.0208" rx="3.18364" ry="2.33946" transform="rotate(90.8253 32.3807 80.0208)" fill="white"/>
<ellipse cx="32.1055" cy="99.1208" rx="3.18364" ry="2.33946" transform="rotate(90.8253 32.1055 99.1208)" fill="white"/>
<ellipse cx="31.8304" cy="118.221" rx="3.18364" ry="2.33946" transform="rotate(90.8253 31.8304 118.221)" fill="white"/>
<ellipse cx="31.5552" cy="137.32" rx="3.18364" ry="2.33946" transform="rotate(90.8253 31.5552 137.32)" fill="white"/>
<ellipse cx="31.2802" cy="156.42" rx="3.18364" ry="2.33946" transform="rotate(90.8253 31.2802 156.42)" fill="white"/>
<ellipse cx="31.005" cy="175.52" rx="3.18364" ry="2.33946" transform="rotate(90.8253 31.005 175.52)" fill="white"/>
<ellipse cx="30.7299" cy="194.62" rx="3.18364" ry="2.33946" transform="rotate(90.8253 30.7299 194.62)" fill="white"/>
<ellipse cx="30.4547" cy="213.72" rx="3.18364" ry="2.33946" transform="rotate(90.8253 30.4547 213.72)" fill="white"/>
<ellipse cx="19.4471" cy="3.41921" rx="3.18364" ry="2.33946" transform="rotate(90.8253 19.4471 3.41921)" fill="white"/>
<ellipse cx="19.1717" cy="22.5185" rx="3.18364" ry="2.33946" transform="rotate(90.8253 19.1717 22.5185)" fill="white"/>
<ellipse cx="18.8966" cy="41.6182" rx="3.18364" ry="2.33946" transform="rotate(90.8253 18.8966 41.6182)" fill="white"/>
<ellipse cx="18.6215" cy="60.7187" rx="3.18364" ry="2.33946" transform="rotate(90.8253 18.6215 60.7187)" fill="white"/>
<ellipse cx="18.3464" cy="79.8186" rx="3.18364" ry="2.33946" transform="rotate(90.8253 18.3464 79.8186)" fill="white"/>
<ellipse cx="18.0712" cy="98.9185" rx="3.18364" ry="2.33946" transform="rotate(90.8253 18.0712 98.9185)" fill="white"/>
<ellipse cx="17.7961" cy="118.019" rx="3.18364" ry="2.33946" transform="rotate(90.8253 17.7961 118.019)" fill="white"/>
<ellipse cx="17.5209" cy="137.118" rx="3.18364" ry="2.33946" transform="rotate(90.8253 17.5209 137.118)" fill="white"/>
<ellipse cx="17.2458" cy="156.218" rx="3.18364" ry="2.33946" transform="rotate(90.8253 17.2458 156.218)" fill="white"/>
<ellipse cx="16.9706" cy="175.318" rx="3.18364" ry="2.33946" transform="rotate(90.8253 16.9706 175.318)" fill="white"/>
<ellipse cx="16.6956" cy="194.417" rx="3.18364" ry="2.33946" transform="rotate(90.8253 16.6956 194.417)" fill="white"/>
<ellipse cx="16.4204" cy="213.518" rx="3.18364" ry="2.33946" transform="rotate(90.8253 16.4204 213.518)" fill="white"/>
<ellipse cx="5.41138" cy="3.217" rx="3.18364" ry="2.33946" transform="rotate(90.8253 5.41138 3.217)" fill="white"/>
<ellipse cx="5.13629" cy="22.3164" rx="3.18364" ry="2.33946" transform="rotate(90.8253 5.13629 22.3164)" fill="white"/>
<ellipse cx="4.86121" cy="41.4162" rx="3.18364" ry="2.33946" transform="rotate(90.8253 4.86121 41.4162)" fill="white"/>
<ellipse cx="4.586" cy="60.5167" rx="3.18364" ry="2.33946" transform="rotate(90.8253 4.586 60.5167)" fill="white"/>
<ellipse cx="4.31091" cy="79.6165" rx="3.18364" ry="2.33946" transform="rotate(90.8253 4.31091 79.6165)" fill="white"/>
<ellipse cx="4.03577" cy="98.7165" rx="3.18364" ry="2.33946" transform="rotate(90.8253 4.03577 98.7165)" fill="white"/>
<ellipse cx="3.76062" cy="117.817" rx="3.18364" ry="2.33946" transform="rotate(90.8253 3.76062 117.817)" fill="white"/>
<ellipse cx="3.48547" cy="136.916" rx="3.18364" ry="2.33946" transform="rotate(90.8253 3.48547 136.916)" fill="white"/>
<ellipse cx="3.21039" cy="156.016" rx="3.18364" ry="2.33946" transform="rotate(90.8253 3.21039 156.016)" fill="white"/>
<ellipse cx="2.93524" cy="175.116" rx="3.18364" ry="2.33946" transform="rotate(90.8253 2.93524 175.116)" fill="white"/>
<ellipse cx="2.6601" cy="194.215" rx="3.18364" ry="2.33946" transform="rotate(90.8253 2.6601 194.215)" fill="white"/>
<ellipse cx="2.38495" cy="213.316" rx="3.18364" ry="2.33946" transform="rotate(90.8253 2.38495 213.316)" fill="white"/>
</g>
</svg>
