<svg width="133" height="115" viewBox="0 0 133 115" fill="none" xmlns="http://www.w3.org/2000/svg">
<g opacity="0.3">
<path opacity="0.0909" d="M25.3299 3.50013C16.0565 -2.14172 8.41433 2.15788 8.2571 13.1069L8.02477 29.2852C7.86753 40.2342 15.2548 53.6845 24.5282 59.3283L109.331 111.298C118.605 116.94 129.678 112.135 129.836 101.188L130.068 85.0093C130.225 74.0602 119.406 61.1134 110.133 55.4715L25.3299 3.50013Z" fill="url(#paint0_linear_431_5593)"/>
<path opacity="0.1818" d="M24.8126 4.26568C15.5879 -1.34945 7.98131 2.93064 7.82485 13.8256L7.61002 28.7847C7.45357 39.6796 14.8065 53.0653 24.0312 58.6805L108.282 110.313C117.508 115.929 128.201 111.194 128.357 100.299L128.572 85.3402C128.728 74.4453 118.29 61.5139 109.063 55.8987L24.8126 4.26568Z" fill="url(#paint1_linear_431_5593)"/>
<path opacity="0.2727" d="M24.2972 5.0332C15.1153 -0.555273 7.54828 3.70535 7.39259 14.5463L7.19528 28.2861C7.0396 39.127 14.3542 52.4461 23.5361 58.0326L107.23 109.329C116.412 114.918 126.723 110.256 126.878 99.413L127.076 85.6752C127.231 74.8323 117.171 61.9183 107.992 56.3299L24.2972 5.0332Z" fill="url(#paint2_linear_431_5593)"/>
<path opacity="0.3636" d="M23.78 5.79875C14.6447 0.238978 7.11333 4.47608 6.9584 15.2649L6.77862 27.7836C6.62368 38.5724 13.9039 51.8249 23.0391 57.3847L106.181 108.343C115.316 113.903 125.249 109.314 125.404 98.5248L125.583 86.0062C125.738 75.2174 116.059 62.3189 106.922 56.7571L23.78 5.79875Z" fill="url(#paint3_linear_431_5593)"/>
<path opacity="0.4545" d="M23.2646 6.56627C14.1741 1.03317 6.6803 5.25081 6.52614 15.9856L6.36388 27.285C6.20972 38.0198 13.4536 51.2057 22.5441 56.7388L105.132 107.361C114.22 112.894 123.773 108.375 123.927 97.6406L124.089 86.3412C124.243 75.6064 114.941 62.7233 105.852 57.1903L23.2646 6.56627Z" fill="url(#paint4_linear_431_5593)"/>
<path opacity="0.5455" d="M22.7493 7.33191C13.7055 1.82752 6.24924 6.02367 6.09585 16.7044L5.9511 26.7846C5.79774 37.4633 13.0053 50.5846 22.0491 56.091L104.084 106.375C113.126 111.881 122.299 107.431 122.452 96.7504L122.597 86.6723C122.75 75.9915 113.826 63.1219 104.784 57.6176L22.7493 7.33191Z" fill="url(#paint5_linear_431_5593)"/>
<path opacity="0.6364" d="M22.232 8.09934C13.2349 2.62165 5.81623 6.79629 5.66363 17.423L5.53638 26.2839C5.38377 36.9106 12.555 49.9653 21.5521 55.443L103.035 105.39C112.032 110.866 120.823 106.491 120.976 95.8641L121.103 87.0052C121.255 76.3785 112.712 63.5243 103.714 58.0486L22.232 8.09934Z" fill="url(#paint6_linear_431_5593)"/>
<path opacity="0.7273" d="M21.7167 8.8648C12.7624 3.41575 5.38126 7.5689 5.22943 18.1416L5.11972 25.7812C4.96789 36.3539 12.1028 49.344 21.0571 54.793L101.983 104.402C110.938 109.851 119.347 105.546 119.499 94.9737L119.609 87.334C119.76 76.7614 111.595 63.9227 102.643 58.4737L21.7167 8.8648Z" fill="url(#paint7_linear_431_5593)"/>
<path opacity="0.8182" d="M21.1994 9.63229C12.2918 4.20995 4.94823 8.34364 4.79718 18.8622L4.70498 25.2827C4.55392 35.8013 11.6525 48.7248 20.5601 54.1471L100.932 103.42C109.839 108.842 117.871 104.608 118.022 94.0895L118.114 87.669C118.265 77.1504 110.479 64.3272 101.571 58.9048L21.1994 9.63229Z" fill="url(#paint8_linear_431_5593)"/>
<path opacity="0.9091" d="M20.684 10.398C11.8211 5.00429 4.51522 9.1165 4.36494 19.581L4.29025 24.7823C4.13994 35.2488 11.2022 48.1057 20.065 53.4993L99.8824 102.436C108.745 107.829 116.395 103.668 116.546 93.2033L116.62 88.0021C116.771 77.5356 109.364 64.7298 100.501 59.3362L20.684 10.398Z" fill="url(#paint9_linear_431_5593)"/>
<path d="M20.1667 11.1634C11.3505 5.7984 4.0822 9.88911 3.9327 20.2996L3.87554 24.2796C3.72601 34.6921 10.7519 47.4823 19.5681 52.8493L98.8329 101.447C107.649 106.814 114.917 102.723 115.067 92.3109L115.124 88.331C115.274 77.9185 108.248 65.1282 99.4315 59.7612L20.1667 11.1634Z" fill="url(#paint10_linear_431_5593)"/>
</g>
<path d="M109.477 111.488L14.8308 53.5383C7.20906 48.8993 1.0972 36.5487 1.24736 26.0921L1.35403 18.6647C1.50419 8.20813 7.86177 3.44755 15.4836 8.0845L110.13 66.0343C117.752 70.6733 123.864 83.0239 123.714 93.4804L123.607 100.908C123.457 111.364 117.099 116.125 109.477 111.488Z" fill="url(#paint11_linear_431_5593)"/>
<path d="M110.13 66.0344L15.4836 8.08461C7.86179 3.44567 1.50418 8.20824 1.35401 18.6648L1.33101 20.2664C1.48121 9.80786 7.83876 5.04926 15.4606 9.6862L110.107 67.636C117.729 72.275 123.841 84.6256 123.691 95.0822L123.714 93.4805C123.864 83.024 117.752 70.6714 110.13 66.0344Z" fill="url(#paint12_radial_431_5593)"/>
<path d="M36.186 35.5647L40.1759 37.9949L41.7417 54.1209L41.7904 54.1496L43.7863 40.1933L47.7781 42.6235L47.4763 63.6387L44.8327 62.0288L45.0612 46.1188L45.0125 46.086L42.7492 60.7594L40.409 59.3361L38.6047 42.1874L38.5541 42.1566L38.3256 58.0687L35.8862 56.5839L36.188 35.5647L36.186 35.5647Z" fill="white"/>
<path d="M49.8638 43.8909L52.6611 45.5931L52.3593 66.6102L49.562 64.906L49.8638 43.8909Z" fill="white"/>
<path d="M54.7422 46.8606L58.2515 48.9976L60.7904 63.2332L60.841 63.264L61.0217 50.6853L63.5116 52.2029L63.2099 73.216L60.3366 71.4687L57.2012 54.0867L57.1487 54.0539L56.9284 69.3933L54.4384 67.8778L54.7402 46.8606L54.7422 46.8606Z" fill="white"/>
<path d="M70.5646 78.1434C69.9716 77.0776 69.689 75.7139 69.7129 74.0522L69.9259 59.2213C69.9497 57.5596 70.2662 56.5629 70.8794 56.2273C71.4905 55.8937 72.4993 56.1545 73.9078 57.0117L74.7695 57.5387L74.7307 60.2394L74.044 59.8231C73.5888 59.5442 73.2561 59.4773 73.046 59.6245C72.8398 59.7717 72.7316 60.2047 72.7212 60.9254L72.5082 75.7564C72.4979 76.4771 72.5939 77.0351 72.7904 77.4284C72.9907 77.8218 73.3196 78.1569 73.7767 78.4358L74.4634 78.8542L74.4246 81.5569L73.5628 81.0299C72.1564 80.1727 71.1557 79.2091 70.5646 78.1434Z" fill="white"/>
<path d="M76.6816 60.2153L79.4791 61.9155L79.3519 70.7724L83.039 64.0832L85.8363 65.7874L82.3952 71.4729L85.5832 86.8313L82.6613 85.0512L80.4303 74.2461L79.2734 76.2359L79.1773 82.9307L76.3799 81.2285L76.6816 60.2153Z" fill="white"/>
<path d="M87.2061 66.6201L91.1978 69.0503L92.7618 85.1763L92.8104 85.2051L94.8064 71.2468L98.7982 73.677L98.4964 94.6921L95.8527 93.0822L96.0812 77.1722L96.0306 77.1415L93.7693 91.8148L91.431 90.3916L89.6247 73.2429L89.5761 73.2101L89.3476 89.1221L86.9062 87.6353L87.208 66.6201L87.2061 66.6201Z" fill="white"/>
<path d="M100.445 94.666L101.132 95.0843C101.589 95.3632 101.922 95.4301 102.13 95.2829C102.338 95.1357 102.446 94.7027 102.457 93.984L102.67 79.1531C102.68 78.4324 102.584 77.8743 102.386 77.481C102.187 77.0876 101.858 76.7525 101.399 76.4736L100.713 76.0552L100.751 73.3525L101.615 73.8795C103.024 74.7368 104.02 75.6963 104.611 76.764C105.204 77.8298 105.487 79.1935 105.463 80.8552L105.25 95.6861C105.226 97.3478 104.91 98.3445 104.297 98.6781C103.686 99.0117 102.679 98.751 101.27 97.8957L100.407 97.3687L100.445 94.666Z" fill="white"/>
<path d="M20.7727 19.5324C15.6409 16.409 11.4113 18.7892 11.3242 24.8493C11.1608 36.2308 20.3143 51.4525 20.3143 51.4525C20.3143 51.4525 29.7425 47.541 29.9059 36.1595C29.9929 30.1014 25.9024 22.6558 20.7727 19.5324ZM20.5434 35.4945C18.211 34.0753 16.3522 30.6905 16.3918 27.9358C16.4314 25.181 18.3542 24.0992 20.6867 25.5184C23.0191 26.9376 24.8779 30.3224 24.8384 33.0771C24.7988 35.8319 22.8759 36.9136 20.5434 35.4945Z" fill="white"/>
<defs>
<linearGradient id="paint0_linear_431_5593" x1="9.3452" y1="-62.0208" x2="86.1197" y2="86.531" gradientUnits="userSpaceOnUse">
<stop offset="0.0101" stop-color="#9F19AB"/>
<stop offset="0.4293" stop-color="#5F27BD"/>
<stop offset="0.904" stop-color="#3D065F"/>
</linearGradient>
<linearGradient id="paint1_linear_431_5593" x1="9.20711" y1="-60.5512" x2="84.9847" y2="86.0716" gradientUnits="userSpaceOnUse">
<stop offset="0.0101" stop-color="#9F19AB"/>
<stop offset="0.4293" stop-color="#5F27BD"/>
<stop offset="0.904" stop-color="#3D065F"/>
</linearGradient>
<linearGradient id="paint2_linear_431_5593" x1="9.07107" y1="-59.0856" x2="83.8528" y2="85.61" gradientUnits="userSpaceOnUse">
<stop offset="0.0101" stop-color="#9F19AB"/>
<stop offset="0.4293" stop-color="#5F27BD"/>
<stop offset="0.904" stop-color="#3D065F"/>
</linearGradient>
<linearGradient id="paint3_linear_431_5593" x1="8.93507" y1="-57.6237" x2="82.7229" y2="85.1487" gradientUnits="userSpaceOnUse">
<stop offset="0.0101" stop-color="#9F19AB"/>
<stop offset="0.4293" stop-color="#5F27BD"/>
<stop offset="0.904" stop-color="#3D065F"/>
</linearGradient>
<linearGradient id="paint4_linear_431_5593" x1="8.80296" y1="-56.159" x2="81.5927" y2="84.6824" gradientUnits="userSpaceOnUse">
<stop offset="0.0101" stop-color="#9F19AB"/>
<stop offset="0.4293" stop-color="#5F27BD"/>
<stop offset="0.904" stop-color="#3D065F"/>
</linearGradient>
<linearGradient id="paint5_linear_431_5593" x1="8.67459" y1="-54.6962" x2="80.4693" y2="84.22" gradientUnits="userSpaceOnUse">
<stop offset="0.0101" stop-color="#9F19AB"/>
<stop offset="0.4293" stop-color="#5F27BD"/>
<stop offset="0.904" stop-color="#3D065F"/>
</linearGradient>
<linearGradient id="paint6_linear_431_5593" x1="8.54822" y1="-53.2353" x2="79.348" y2="83.7557" gradientUnits="userSpaceOnUse">
<stop offset="0.0101" stop-color="#9F19AB"/>
<stop offset="0.4293" stop-color="#5F27BD"/>
<stop offset="0.904" stop-color="#3D065F"/>
</linearGradient>
<linearGradient id="paint7_linear_431_5593" x1="8.41994" y1="-51.7775" x2="78.2258" y2="83.2903" gradientUnits="userSpaceOnUse">
<stop offset="0.0101" stop-color="#9F19AB"/>
<stop offset="0.4293" stop-color="#5F27BD"/>
<stop offset="0.904" stop-color="#3D065F"/>
</linearGradient>
<linearGradient id="paint8_linear_431_5593" x1="8.30127" y1="-50.3194" x2="77.1122" y2="82.8231" gradientUnits="userSpaceOnUse">
<stop offset="0.0101" stop-color="#9F19AB"/>
<stop offset="0.4293" stop-color="#5F27BD"/>
<stop offset="0.904" stop-color="#3D065F"/>
</linearGradient>
<linearGradient id="paint9_linear_431_5593" x1="8.18264" y1="-48.865" x2="75.9986" y2="82.3523" gradientUnits="userSpaceOnUse">
<stop offset="0.0101" stop-color="#9F19AB"/>
<stop offset="0.4293" stop-color="#5F27BD"/>
<stop offset="0.904" stop-color="#3D065F"/>
</linearGradient>
<linearGradient id="paint10_linear_431_5593" x1="8.06773" y1="-47.41" x2="74.8888" y2="81.8823" gradientUnits="userSpaceOnUse">
<stop offset="0.0101" stop-color="#9F19AB"/>
<stop offset="0.4293" stop-color="#5F27BD"/>
<stop offset="0.904" stop-color="#3D065F"/>
</linearGradient>
<linearGradient id="paint11_linear_431_5593" x1="133.184" y1="125.559" x2="-12.9976" y2="-5.0506" gradientUnits="userSpaceOnUse">
<stop offset="0.0354" stop-color="#FFA98C"/>
<stop offset="0.3169" stop-color="#FFB892"/>
<stop offset="0.8601" stop-color="#FEE1A3"/>
<stop offset="1" stop-color="#FEECA8"/>
</linearGradient>
<radialGradient id="paint12_radial_431_5593" cx="0" cy="0" r="1" gradientUnits="userSpaceOnUse" gradientTransform="translate(56.6275 43.4683) rotate(0.822748) scale(117.783 120.191)">
<stop stop-color="#711F56"/>
<stop offset="0.1614" stop-color="#6C1E52"/>
<stop offset="0.3626" stop-color="#5C1946"/>
<stop offset="0.5849" stop-color="#431233"/>
<stop offset="0.8208" stop-color="#200918"/>
<stop offset="1"/>
</radialGradient>
</defs>
</svg>
