<svg width="213" height="225" viewBox="0 0 213 225" fill="none" xmlns="http://www.w3.org/2000/svg">
<g opacity="0.3">
<path opacity="0.0909" d="M29.2407 4.19643C16.8269 -2.57193 6.60947 2.55661 6.42144 15.6504L5.32866 91.7459C5.1406 104.841 15.0512 120.943 27.4669 127.71L180.821 211.318C193.234 218.086 208.032 212.363 208.221 199.271L209.313 123.174C209.501 110.08 195.008 94.5731 182.594 87.8048L29.2407 4.19643Z" fill="url(#paint0_linear_431_5583)"/>
<path opacity="0.1818" d="M28.8736 5.16735C16.5006 -1.57726 6.31852 3.53399 6.13113 16.5832L5.04433 92.2619C4.85691 105.313 14.7352 121.359 27.1082 128.104L179.788 211.344C192.161 218.091 206.465 212.443 206.653 199.392L207.74 123.714C207.927 110.665 193.926 95.1525 181.553 88.4079L28.8736 5.16735Z" fill="url(#paint1_linear_431_5583)"/>
<path opacity="0.2727" d="M28.5062 6.13814C16.1758 -0.584488 6.02905 4.50945 5.84227 17.5159L4.76146 92.7778C4.57471 105.783 14.4186 121.776 26.749 128.499L178.752 211.372C191.083 218.094 204.896 212.526 205.083 199.519L206.163 124.257C206.35 111.251 192.842 95.7335 180.509 89.0127L28.5062 6.13814Z" fill="url(#paint2_linear_431_5583)"/>
<path opacity="0.3636" d="M28.1406 7.10744C15.8528 0.406811 5.73956 5.4852 5.55344 18.4454L4.47862 93.2904C4.29248 106.252 14.1059 122.191 26.3917 128.889L177.722 211.391C190.01 218.091 203.33 212.6 203.517 199.636L204.591 124.791C204.778 111.829 191.759 96.3077 179.471 89.6089L28.1406 7.10744Z" fill="url(#paint3_linear_431_5583)"/>
<path opacity="0.4545" d="M27.7735 8.07861C15.5284 1.40353 5.4506 6.46105 5.2651 19.3785L4.19626 93.8068C4.01075 106.724 13.7879 122.607 26.033 129.284L176.687 211.417C188.935 218.092 201.763 212.679 201.949 199.761L203.018 125.333C203.203 112.416 190.677 96.8874 178.428 90.2122L27.7735 8.07861Z" fill="url(#paint4_linear_431_5583)"/>
<path opacity="0.5455" d="M27.4055 9.04967C15.2011 2.39655 5.15868 7.43675 4.9738 20.3114L3.91094 94.3229C3.72608 107.196 13.4688 123.026 25.6732 129.679L175.653 211.445C187.858 218.098 200.193 212.76 200.378 199.885L201.441 125.873C201.626 113.001 189.59 97.4686 177.386 90.8155L27.4055 9.04967Z" fill="url(#paint5_linear_431_5583)"/>
<path opacity="0.6364" d="M27.0405 10.0207C14.8787 3.38957 4.86968 8.41419 4.68546 21.2425L3.62859 94.8372C3.44437 107.666 13.1547 123.442 25.3165 130.071L174.624 211.469C186.786 218.099 198.628 212.837 198.813 200.008L199.869 126.414C200.054 113.585 188.512 98.0481 176.348 91.417L27.0405 10.0207Z" fill="url(#paint6_linear_431_5583)"/>
<path opacity="0.7273" d="M26.673 10.9899C14.5519 4.38252 4.57824 9.38986 4.39466 22.1737L3.34378 95.3515C3.16017 108.137 12.8362 123.856 24.9573 130.465L173.589 211.494C185.71 218.101 197.059 212.916 197.242 200.132L198.293 126.952C198.477 114.167 187.426 98.624 175.304 92.0184L26.673 10.9899Z" fill="url(#paint7_linear_431_5583)"/>
<path opacity="0.8182" d="M26.3055 11.9609C14.227 5.37556 4.28682 10.3656 4.10385 23.1067L3.05895 95.8677C2.87601 108.607 12.5195 124.274 24.598 130.859L172.557 211.52C184.635 218.105 195.493 212.997 195.676 200.256L196.721 127.495C196.904 114.753 186.345 99.2071 174.264 92.6217L26.3055 11.9609Z" fill="url(#paint8_linear_431_5583)"/>
<path opacity="0.9091" d="M25.9404 12.9302C13.9046 6.36855 3.99783 11.3412 3.8155 24.0378L2.77659 96.382C2.59428 109.077 12.2054 124.69 24.2412 131.251L171.526 211.542C183.562 218.104 193.924 213.072 194.107 200.375L195.146 128.031C195.328 115.336 185.259 99.7829 173.225 93.2213L25.9404 12.9302Z" fill="url(#paint9_linear_431_5583)"/>
<path d="M25.5724 13.9015C13.5792 7.36186 3.70786 12.3172 3.52617 24.9692L2.49325 96.8967C2.31156 109.549 11.8883 125.106 23.8815 131.645L170.49 211.567C182.485 218.107 192.356 213.151 192.538 200.499L193.571 128.572C193.753 115.92 184.176 100.363 172.181 93.8231L25.5724 13.9015Z" fill="url(#paint10_linear_431_5583)"/>
</g>
<path d="M24.9775 12.2234C12.9397 5.66178 3.03493 10.6345 2.85263 23.3292L1.65674 106.605C1.47443 119.3 11.0836 134.912 23.1214 141.472L170.234 221.67C182.271 228.232 192.176 223.259 192.358 210.564L193.554 127.287C193.737 114.592 184.128 98.9793 172.09 92.4195L24.9775 12.2234Z" fill="url(#paint11_linear_431_5583)"/>
<path d="M172.09 92.4212L24.9775 12.2234C12.9397 5.66178 3.03493 10.6345 2.85263 23.3292L2.8248 25.2672C3.0071 12.5724 12.9119 7.59974 24.9497 14.1614L172.062 94.3592C184.1 100.921 193.709 116.532 193.527 129.227L193.554 127.291C193.737 114.594 184.126 98.9829 172.09 92.4212Z" fill="url(#paint12_radial_431_5583)"/>
<path d="M144.64 119.458L172.299 134.554L172.361 130.202L144.703 115.109L144.64 119.458Z" fill="white"/>
<path d="M99.6491 90.6259L86.8267 83.6343L86.7642 87.984L99.5867 94.9756L99.6491 90.6259Z" fill="white"/>
<path d="M86.9476 75.2304L113.182 89.5338L113.265 83.7075L87.0312 69.4041L86.9476 75.2304Z" fill="white"/>
<path d="M55.4061 59.2541L81.6403 73.5575L81.724 67.7311L55.4897 53.4277L55.4061 59.2541Z" fill="white"/>
<path d="M136.18 114.846L141.257 117.614L141.32 113.264L136.243 110.496L136.18 114.846Z" fill="white"/>
<path d="M117.714 92.0041L154.765 111.141L154.849 105.317L117.798 86.1777L117.714 92.0041Z" fill="white"/>
<path d="M43.6727 67.0939L80.7236 86.2311L80.8072 80.4066L43.7563 61.2676L43.6727 67.0939Z" fill="white"/>
<path d="M132.859 108.651L103.033 92.4702L102.971 96.82L132.797 113.001L132.859 108.651Z" fill="white"/>
<path d="M91.7435 133.899L83.1433 135.704L86.3134 125.826L78.1748 113.415L88.5268 119.471L92.0973 109.991L95.3239 123.611L105.672 130.168L97.3112 132.529L100.137 146.057L91.7435 133.899Z" fill="url(#paint13_linear_431_5583)"/>
<path d="M97.3116 132.529L100.137 146.06L100.137 146.058L100.137 146.06L102.075 144.811L99.3887 131.941L97.3116 132.529Z" fill="url(#paint14_linear_431_5583)"/>
<path d="M88.5271 119.471L89.2624 117.518L80.1109 112.164L78.4504 113.509L80.9162 115.02L88.5271 119.471Z" fill="url(#paint15_linear_431_5583)"/>
<path d="M97.264 122.364L94.0354 108.742L92.0978 109.991L92.0978 109.993L95.3244 123.611L105.669 130.166L105.673 130.168L107.609 128.919L97.264 122.364Z" fill="url(#paint16_linear_431_5583)"/>
<path d="M97.3112 132.529L100.137 146.06L100.137 146.058L100.137 146.06L97.9438 132.35L97.3112 132.529Z" fill="white"/>
<path d="M88.5268 119.472L88.7556 118.868L78.4502 113.509L80.916 115.02L88.5268 119.472Z" fill="white"/>
<path d="M95.9117 123.303L92.0977 109.991L92.0976 109.993L95.3243 123.611L105.669 130.166L105.673 130.168L95.9117 123.303Z" fill="white"/>
<path d="M151.353 169.427L142.753 171.236L145.923 161.357L137.783 148.943L148.137 155.002L151.707 145.521L154.934 159.141L165.278 165.696L156.921 168.06L159.745 181.59L151.353 169.427Z" fill="url(#paint17_linear_431_5583)"/>
<path d="M156.921 168.06L159.745 181.59L159.745 181.588L159.745 181.59L161.682 180.339L158.998 167.472L156.921 168.06Z" fill="url(#paint18_linear_431_5583)"/>
<path d="M148.137 155.002L148.87 153.048L139.72 147.696L138.056 149.037L140.526 150.55L148.137 155.002Z" fill="url(#paint19_linear_431_5583)"/>
<path d="M156.871 157.894L153.643 144.272L151.707 145.521L151.707 145.523L154.934 159.141L165.276 165.694L165.28 165.696L167.218 164.449L156.871 157.894Z" fill="url(#paint20_linear_431_5583)"/>
<path d="M156.922 168.059L159.745 181.59L159.745 181.588L159.745 181.59L157.552 167.88L156.922 168.059Z" fill="white"/>
<path d="M148.137 155.002L148.364 154.398L138.056 149.037L140.526 150.55L148.137 155.002Z" fill="white"/>
<path d="M155.521 158.833L151.708 145.521L151.707 145.523L154.934 159.141L165.277 165.694L165.281 165.696L155.521 158.833Z" fill="white"/>
<path d="M121.41 151.358L112.81 153.163L115.98 143.286L107.842 130.875L118.194 136.931L121.764 127.45L124.991 141.071L135.339 147.628L126.978 149.989L129.804 163.517L121.41 151.358Z" fill="url(#paint21_linear_431_5583)"/>
<path d="M126.979 149.989L129.804 163.519L129.804 163.517L129.804 163.519L131.742 162.27L129.056 149.401L126.979 149.989Z" fill="url(#paint22_linear_431_5583)"/>
<path d="M118.194 136.931L118.929 134.978L109.778 129.626L108.117 130.969L110.583 132.479L118.194 136.931Z" fill="url(#paint23_linear_431_5583)"/>
<path d="M126.931 139.824L123.702 126.201L121.765 127.45L121.765 127.452L124.991 141.071L135.336 147.626L135.34 147.628L137.276 146.379L126.931 139.824Z" fill="url(#paint24_linear_431_5583)"/>
<path d="M126.978 149.989L129.804 163.519L129.804 163.517L129.804 163.519L127.611 149.81L126.978 149.989Z" fill="white"/>
<path d="M118.194 136.931L118.423 136.328L108.117 130.969L110.583 132.479L118.194 136.931Z" fill="white"/>
<path d="M125.579 140.763L121.765 127.45L121.765 127.452L124.991 141.071L135.336 147.626L135.34 147.628L125.579 140.763Z" fill="white"/>
<path d="M61.8025 115.828L53.2023 117.635L56.3724 107.758L48.2319 95.3442L58.5858 101.401L62.1563 91.9199L65.3828 105.542L75.7294 112.097L67.3702 114.458L70.1959 127.989L61.8025 115.828Z" fill="url(#paint25_linear_431_5583)"/>
<path d="M67.3703 114.456L70.1959 127.989L72.1316 126.74L69.4473 113.872L67.3703 114.456Z" fill="url(#paint26_linear_431_5583)"/>
<path d="M58.5857 101.401L59.3211 99.4471L50.1694 94.0953L48.5071 95.4364L50.9749 96.9487L58.5857 101.401Z" fill="url(#paint27_linear_431_5583)"/>
<path d="M67.3206 104.293L64.0921 90.6709L62.1564 91.9199L62.1564 91.9219L65.3849 105.542L75.7255 112.095L75.7295 112.097L77.6672 110.848L67.3206 104.293Z" fill="url(#paint28_linear_431_5583)"/>
<path d="M67.3703 114.456L70.1959 127.988L68.0028 114.279L67.3703 114.456Z" fill="white"/>
<path d="M58.5859 101.401L58.8126 100.797L48.5073 95.4363L50.9751 96.9486L58.5859 101.401Z" fill="white"/>
<path d="M65.9707 105.234L62.1567 91.9197L62.1567 91.9217L65.3853 105.542L75.7259 112.095L75.7298 112.097L65.9707 105.234Z" fill="white"/>
<path d="M31.6741 97.5783L23.072 99.3853L26.2421 89.5081L18.1035 77.0947L28.4555 83.1511L32.0279 73.6723L35.2565 87.2927L45.6011 93.8476L37.2439 96.2089L40.0676 109.739L31.6741 97.5783Z" fill="url(#paint29_linear_431_5583)"/>
<path d="M37.2443 96.2089L40.068 109.739L42.0037 108.492L39.3193 95.6229L37.2443 96.2089Z" fill="url(#paint30_linear_431_5583)"/>
<path d="M28.4558 83.1531L29.1932 81.1996L20.0435 75.8459L18.3792 77.1889L20.8471 78.7012L28.4558 83.1531Z" fill="url(#paint31_linear_431_5583)"/>
<path d="M37.1927 86.0437L33.9662 72.4234L32.0285 73.6723L32.0284 73.6743L35.257 87.2926L45.5978 93.8455L45.6017 93.8476L47.5393 92.5987L37.1927 86.0437Z" fill="url(#paint32_linear_431_5583)"/>
<path d="M37.2443 96.2087L40.068 109.739L37.8749 96.0298L37.2443 96.2087Z" fill="white"/>
<path d="M28.4555 83.1529L28.6843 82.5476L18.3789 77.1887L20.8468 78.701L28.4555 83.1529Z" fill="white"/>
<path d="M35.8404 86.9847L32.0283 73.6721L32.0283 73.6741L35.2569 87.2925L45.5976 93.8453L45.6015 93.8474L35.8404 86.9847Z" fill="white"/>
<defs>
<linearGradient id="paint0_linear_431_5583" x1="-10.8556" y1="-103.659" x2="115.903" y2="171.377" gradientUnits="userSpaceOnUse">
<stop offset="0.0101" stop-color="#9F19AB"/>
<stop offset="0.4293" stop-color="#5F27BD"/>
<stop offset="0.904" stop-color="#3D065F"/>
</linearGradient>
<linearGradient id="paint1_linear_431_5583" x1="-11.1669" y1="-102.132" x2="114.995" y2="171.61" gradientUnits="userSpaceOnUse">
<stop offset="0.0101" stop-color="#9F19AB"/>
<stop offset="0.4293" stop-color="#5F27BD"/>
<stop offset="0.904" stop-color="#3D065F"/>
</linearGradient>
<linearGradient id="paint2_linear_431_5583" x1="-11.477" y1="-100.608" x2="114.089" y2="171.841" gradientUnits="userSpaceOnUse">
<stop offset="0.0101" stop-color="#9F19AB"/>
<stop offset="0.4293" stop-color="#5F27BD"/>
<stop offset="0.904" stop-color="#3D065F"/>
</linearGradient>
<linearGradient id="paint3_linear_431_5583" x1="-11.7812" y1="-99.0833" x2="113.188" y2="172.071" gradientUnits="userSpaceOnUse">
<stop offset="0.0101" stop-color="#9F19AB"/>
<stop offset="0.4293" stop-color="#5F27BD"/>
<stop offset="0.904" stop-color="#3D065F"/>
</linearGradient>
<linearGradient id="paint4_linear_431_5583" x1="-12.0811" y1="-97.5591" x2="112.292" y2="172.302" gradientUnits="userSpaceOnUse">
<stop offset="0.0101" stop-color="#9F19AB"/>
<stop offset="0.4293" stop-color="#5F27BD"/>
<stop offset="0.904" stop-color="#3D065F"/>
</linearGradient>
<linearGradient id="paint5_linear_431_5583" x1="-12.382" y1="-96.0375" x2="111.395" y2="172.529" gradientUnits="userSpaceOnUse">
<stop offset="0.0101" stop-color="#9F19AB"/>
<stop offset="0.4293" stop-color="#5F27BD"/>
<stop offset="0.904" stop-color="#3D065F"/>
</linearGradient>
<linearGradient id="paint6_linear_431_5583" x1="-12.678" y1="-94.5212" x2="110.504" y2="172.756" gradientUnits="userSpaceOnUse">
<stop offset="0.0101" stop-color="#9F19AB"/>
<stop offset="0.4293" stop-color="#5F27BD"/>
<stop offset="0.904" stop-color="#3D065F"/>
</linearGradient>
<linearGradient id="paint7_linear_431_5583" x1="-12.9689" y1="-93.0021" x2="109.618" y2="172.982" gradientUnits="userSpaceOnUse">
<stop offset="0.0101" stop-color="#9F19AB"/>
<stop offset="0.4293" stop-color="#5F27BD"/>
<stop offset="0.904" stop-color="#3D065F"/>
</linearGradient>
<linearGradient id="paint8_linear_431_5583" x1="-13.2577" y1="-91.4857" x2="108.734" y2="173.207" gradientUnits="userSpaceOnUse">
<stop offset="0.0101" stop-color="#9F19AB"/>
<stop offset="0.4293" stop-color="#5F27BD"/>
<stop offset="0.904" stop-color="#3D065F"/>
</linearGradient>
<linearGradient id="paint9_linear_431_5583" x1="-13.5423" y1="-89.9744" x2="107.855" y2="173.43" gradientUnits="userSpaceOnUse">
<stop offset="0.0101" stop-color="#9F19AB"/>
<stop offset="0.4293" stop-color="#5F27BD"/>
<stop offset="0.904" stop-color="#3D065F"/>
</linearGradient>
<linearGradient id="paint10_linear_431_5583" x1="-13.822" y1="-88.4627" x2="106.98" y2="173.65" gradientUnits="userSpaceOnUse">
<stop offset="0.0101" stop-color="#9F19AB"/>
<stop offset="0.4293" stop-color="#5F27BD"/>
<stop offset="0.904" stop-color="#3D065F"/>
</linearGradient>
<linearGradient id="paint11_linear_431_5583" x1="10.4576" y1="8.3133" x2="287.362" y2="423.774" gradientUnits="userSpaceOnUse">
<stop offset="0.0101" stop-color="#9F19AB"/>
<stop offset="0.4293" stop-color="#5F27BD"/>
<stop offset="0.904" stop-color="#3D065F"/>
</linearGradient>
<radialGradient id="paint12_radial_431_5583" cx="0" cy="0" r="1" gradientUnits="userSpaceOnUse" gradientTransform="translate(98.2903 69.1926) rotate(0.822748) scale(178.378 162.722)">
<stop stop-color="#711F56"/>
<stop offset="0.1614" stop-color="#6C1E52"/>
<stop offset="0.3626" stop-color="#5C1946"/>
<stop offset="0.5849" stop-color="#431233"/>
<stop offset="0.8208" stop-color="#200918"/>
<stop offset="1"/>
</radialGradient>
<linearGradient id="paint13_linear_431_5583" x1="77.9623" y1="127.757" x2="105.701" y2="128.167" gradientUnits="userSpaceOnUse">
<stop offset="0.0354" stop-color="#FFBA78"/>
<stop offset="0.395" stop-color="#FFC987"/>
<stop offset="1" stop-color="#FEECA8"/>
</linearGradient>
<linearGradient id="paint14_linear_431_5583" x1="100.641" y1="139.014" x2="105.584" y2="139.087" gradientUnits="userSpaceOnUse">
<stop offset="0.0354" stop-color="#FFBA78"/>
<stop offset="0.395" stop-color="#FFC987"/>
<stop offset="1" stop-color="#FEECA8"/>
</linearGradient>
<linearGradient id="paint15_linear_431_5583" x1="78.4166" y1="115.731" x2="89.2857" y2="115.892" gradientUnits="userSpaceOnUse">
<stop offset="0.0354" stop-color="#FFBA78"/>
<stop offset="0.395" stop-color="#FFC987"/>
<stop offset="1" stop-color="#FEECA8"/>
</linearGradient>
<linearGradient id="paint16_linear_431_5583" x1="91.96" y1="119.338" x2="107.747" y2="119.572" gradientUnits="userSpaceOnUse">
<stop offset="0.0354" stop-color="#FFBA78"/>
<stop offset="0.395" stop-color="#FFC987"/>
<stop offset="1" stop-color="#FEECA8"/>
</linearGradient>
<linearGradient id="paint17_linear_431_5583" x1="137.571" y1="163.286" x2="165.308" y2="163.697" gradientUnits="userSpaceOnUse">
<stop offset="0.0354" stop-color="#FFBA78"/>
<stop offset="0.395" stop-color="#FFC987"/>
<stop offset="1" stop-color="#FEECA8"/>
</linearGradient>
<linearGradient id="paint18_linear_431_5583" x1="160.849" y1="174.553" x2="165.792" y2="174.626" gradientUnits="userSpaceOnUse">
<stop offset="0.0354" stop-color="#FFBA78"/>
<stop offset="0.395" stop-color="#FFC987"/>
<stop offset="1" stop-color="#FEECA8"/>
</linearGradient>
<linearGradient id="paint19_linear_431_5583" x1="138.023" y1="151.261" x2="148.894" y2="151.422" gradientUnits="userSpaceOnUse">
<stop offset="0.0354" stop-color="#FFBA78"/>
<stop offset="0.395" stop-color="#FFC987"/>
<stop offset="1" stop-color="#FEECA8"/>
</linearGradient>
<linearGradient id="paint20_linear_431_5583" x1="151.568" y1="154.868" x2="167.356" y2="155.102" gradientUnits="userSpaceOnUse">
<stop offset="0.0354" stop-color="#FFBA78"/>
<stop offset="0.395" stop-color="#FFC987"/>
<stop offset="1" stop-color="#FEECA8"/>
</linearGradient>
<linearGradient id="paint21_linear_431_5583" x1="107.629" y1="145.216" x2="135.368" y2="145.627" gradientUnits="userSpaceOnUse">
<stop offset="0.0354" stop-color="#FFBA78"/>
<stop offset="0.395" stop-color="#FFC987"/>
<stop offset="1" stop-color="#FEECA8"/>
</linearGradient>
<linearGradient id="paint22_linear_431_5583" x1="130.308" y1="156.474" x2="135.251" y2="156.547" gradientUnits="userSpaceOnUse">
<stop offset="0.0354" stop-color="#FFBA78"/>
<stop offset="0.395" stop-color="#FFC987"/>
<stop offset="1" stop-color="#FEECA8"/>
</linearGradient>
<linearGradient id="paint23_linear_431_5583" x1="108.084" y1="133.191" x2="118.953" y2="133.352" gradientUnits="userSpaceOnUse">
<stop offset="0.0354" stop-color="#FFBA78"/>
<stop offset="0.395" stop-color="#FFC987"/>
<stop offset="1" stop-color="#FEECA8"/>
</linearGradient>
<linearGradient id="paint24_linear_431_5583" x1="121.627" y1="136.798" x2="137.414" y2="137.032" gradientUnits="userSpaceOnUse">
<stop offset="0.0354" stop-color="#FFBA78"/>
<stop offset="0.395" stop-color="#FFC987"/>
<stop offset="1" stop-color="#FEECA8"/>
</linearGradient>
<linearGradient id="paint25_linear_431_5583" x1="48.0205" y1="109.686" x2="75.7592" y2="110.096" gradientUnits="userSpaceOnUse">
<stop offset="0.0354" stop-color="#FFBA78"/>
<stop offset="0.395" stop-color="#FFC987"/>
<stop offset="1" stop-color="#FEECA8"/>
</linearGradient>
<linearGradient id="paint26_linear_431_5583" x1="70.0988" y1="120.933" x2="75.042" y2="121.006" gradientUnits="userSpaceOnUse">
<stop offset="0.0354" stop-color="#FFBA78"/>
<stop offset="0.395" stop-color="#FFC987"/>
<stop offset="1" stop-color="#FEECA8"/>
</linearGradient>
<linearGradient id="paint27_linear_431_5583" x1="48.4742" y1="97.66" x2="59.3452" y2="97.8209" gradientUnits="userSpaceOnUse">
<stop offset="0.0354" stop-color="#FFBA78"/>
<stop offset="0.395" stop-color="#FFC987"/>
<stop offset="1" stop-color="#FEECA8"/>
</linearGradient>
<linearGradient id="paint28_linear_431_5583" x1="62.0175" y1="101.267" x2="77.8047" y2="101.501" gradientUnits="userSpaceOnUse">
<stop offset="0.0354" stop-color="#FFBA78"/>
<stop offset="0.395" stop-color="#FFC987"/>
<stop offset="1" stop-color="#FEECA8"/>
</linearGradient>
<linearGradient id="paint29_linear_431_5583" x1="17.8917" y1="91.4376" x2="45.6303" y2="91.8482" gradientUnits="userSpaceOnUse">
<stop offset="0.0354" stop-color="#FFBA78"/>
<stop offset="0.395" stop-color="#FFC987"/>
<stop offset="1" stop-color="#FEECA8"/>
</linearGradient>
<linearGradient id="paint30_linear_431_5583" x1="39.9724" y1="102.686" x2="44.9135" y2="102.759" gradientUnits="userSpaceOnUse">
<stop offset="0.0354" stop-color="#FFBA78"/>
<stop offset="0.395" stop-color="#FFC987"/>
<stop offset="1" stop-color="#FEECA8"/>
</linearGradient>
<linearGradient id="paint31_linear_431_5583" x1="18.3459" y1="79.4123" x2="29.2168" y2="79.5732" gradientUnits="userSpaceOnUse">
<stop offset="0.0354" stop-color="#FFBA78"/>
<stop offset="0.395" stop-color="#FFC987"/>
<stop offset="1" stop-color="#FEECA8"/>
</linearGradient>
<linearGradient id="paint32_linear_431_5583" x1="31.8891" y1="83.019" x2="47.6784" y2="83.2527" gradientUnits="userSpaceOnUse">
<stop offset="0.0354" stop-color="#FFBA78"/>
<stop offset="0.395" stop-color="#FFC987"/>
<stop offset="1" stop-color="#FEECA8"/>
</linearGradient>
</defs>
</svg>
