<svg width="56" height="56" viewBox="0 0 56 56" fill="none" xmlns="http://www.w3.org/2000/svg">
<path d="M22.542 30.0562C32.368 30.0562 32.368 17.9182 32.368 17.9182C32.368 17.9182 32.368 30.0562 42.194 30.0562C32.368 30.0562 32.368 42.1942 32.368 42.1942C32.368 42.1942 32.368 30.0562 22.542 30.0562Z" fill="#FA5FFF"/>
<path d="M13.2944 18.4962C18.4964 18.4962 18.4964 13.2942 18.4964 13.2942C18.4964 13.2942 18.4964 18.4962 23.6984 18.4962C18.4964 18.4962 18.4964 23.6982 18.4964 23.6982C18.4964 23.6982 18.4964 18.4962 13.2944 18.4962Z" fill="#FA5FFF"/>
<path d="M17.9184 37.5702H17.9416M42.1945 13.2942H42.2176M42.1945 42.1942H42.2176M32.3684 17.9182C32.3684 17.9182 32.3684 30.0562 22.5424 30.0562C32.3684 30.0562 32.3684 42.1942 32.3684 42.1942C32.3684 42.1942 32.3684 30.0562 42.1945 30.0562C32.3684 30.0562 32.3684 17.9182 32.3684 17.9182ZM18.4964 13.2942C18.4964 13.2942 18.4964 18.4962 13.2944 18.4962C18.4964 18.4962 18.4964 23.6982 18.4964 23.6982C18.4964 23.6982 18.4964 18.4962 23.6984 18.4962C18.4964 18.4962 18.4964 13.2942 18.4964 13.2942Z" stroke="#FA5FFF" stroke-width="3.468" stroke-linecap="round" stroke-linejoin="round"/>
</svg>
