<svg width="816" height="521" viewBox="0 0 816 521" fill="none" xmlns="http://www.w3.org/2000/svg">
<g clip-path="url(#clip0_322_68)">
<path opacity="0.05" d="M48.0412 0.98862L2.11196 52.5616" stroke="#4763FF" stroke-width="2.28952"/>
<path opacity="0.1" d="M93.813 1.12778L47.8838 52.7007" stroke="#4763FF" stroke-width="2.28952"/>
<path opacity="0.16" d="M93.8132 1.12793L139.428 52.9794" stroke="#4763FF" stroke-width="2.28952"/>
<path opacity="0.21" d="M185.357 1.40647L139.428 52.9794" stroke="#4763FF" stroke-width="2.28952"/>
<path opacity="0.26" d="M185.357 1.40649L230.972 53.2579" stroke="#4763FF" stroke-width="2.28952"/>
<path opacity="0.32" d="M231.129 1.54565L276.743 53.3971" stroke="#4763FF" stroke-width="2.28952"/>
<path opacity="0.37" d="M322.673 1.82407L276.744 53.397" stroke="#4763FF" stroke-width="2.28952"/>
<path opacity="0.42" d="M322.673 1.82422L368.287 53.6757" stroke="#4763FF" stroke-width="2.28952"/>
<path opacity="0.48" d="M368.445 1.96338L414.059 53.8148" stroke="#4763FF" stroke-width="2.28952"/>
<path opacity="0.53" d="M414.217 2.10278L459.831 53.9542" stroke="#4763FF" stroke-width="2.28952"/>
<path opacity="0.58" d="M505.76 2.38132L459.831 53.9543" stroke="#4763FF" stroke-width="2.28952"/>
<path opacity="0.64" d="M551.532 2.5206L505.603 54.0935" stroke="#4763FF" stroke-width="2.28952"/>
<path opacity="0.69" d="M551.532 2.52063L597.147 54.3721" stroke="#4763FF" stroke-width="2.28952"/>
<path opacity="0.74" d="M643.076 2.7988L597.147 54.3717" stroke="#4763FF" stroke-width="2.28952"/>
<path opacity="0.8" d="M643.076 2.79895L688.69 54.6504" stroke="#4763FF" stroke-width="2.28952"/>
<path opacity="0.85" d="M688.848 2.93811L734.462 54.7896" stroke="#4763FF" stroke-width="2.28952"/>
<path opacity="0.91" d="M734.62 3.07751L780.234 54.929" stroke="#4763FF" stroke-width="2.28952"/>
<path opacity="0.96" d="M780.392 3.21667L826.006 55.0681" stroke="#4763FF" stroke-width="2.28952"/>
<path opacity="0.05" d="M47.8836 52.7009L1.95437 104.274" stroke="#4763FF" stroke-width="2.28952"/>
<path opacity="0.1" d="M93.6557 52.8403L47.7265 104.413" stroke="#4763FF" stroke-width="2.28952"/>
<path opacity="0.16" d="M93.6555 52.8402L139.27 104.692" stroke="#4763FF" stroke-width="2.28952"/>
<path opacity="0.21" d="M185.2 53.1187L139.27 104.692" stroke="#4763FF" stroke-width="2.28952"/>
<path opacity="0.26" d="M185.199 53.1185L230.814 104.97" stroke="#4763FF" stroke-width="2.28952"/>
<path opacity="0.32" d="M230.971 53.2578L276.586 105.109" stroke="#4763FF" stroke-width="2.28952"/>
<path opacity="0.37" d="M276.743 53.3971L322.358 105.249" stroke="#4763FF" stroke-width="2.28952"/>
<path opacity="0.42" d="M368.287 53.6756L322.358 105.249" stroke="#4763FF" stroke-width="2.28952"/>
<path opacity="0.48" d="M414.059 53.8147L368.13 105.388" stroke="#4763FF" stroke-width="2.28952"/>
<path opacity="0.53" d="M414.059 53.8149L459.673 105.666" stroke="#4763FF" stroke-width="2.28952"/>
<path opacity="0.58" d="M459.831 53.9541L505.445 105.806" stroke="#4763FF" stroke-width="2.28952"/>
<path opacity="0.64" d="M505.603 54.0934L551.217 105.945" stroke="#4763FF" stroke-width="2.28952"/>
<path opacity="0.69" d="M551.375 54.2327L596.989 106.084" stroke="#4763FF" stroke-width="2.28952"/>
<path opacity="0.74" d="M597.146 54.3718L642.761 106.223" stroke="#4763FF" stroke-width="2.28952"/>
<path opacity="0.8" d="M688.691 54.6505L642.761 106.223" stroke="#4763FF" stroke-width="2.28952"/>
<path opacity="0.85" d="M688.69 54.6504L734.305 106.502" stroke="#4763FF" stroke-width="2.28952"/>
<path opacity="0.91" d="M734.463 54.7898L780.077 106.641" stroke="#4763FF" stroke-width="2.28952"/>
<path opacity="0.96" d="M826.006 55.068L780.077 106.641" stroke="#4763FF" stroke-width="2.28952"/>
<path opacity="0.05" d="M47.7266 104.413L1.79739 155.986" stroke="#4763FF" stroke-width="2.28952"/>
<path opacity="0.1" d="M93.4985 104.552L47.5692 156.125" stroke="#4763FF" stroke-width="2.28952"/>
<path opacity="0.16" d="M93.4985 104.552L139.113 156.404" stroke="#4763FF" stroke-width="2.28952"/>
<path opacity="0.21" d="M185.042 104.831L139.113 156.404" stroke="#4763FF" stroke-width="2.28952"/>
<path opacity="0.26" d="M185.042 104.831L230.657 156.682" stroke="#4763FF" stroke-width="2.28952"/>
<path opacity="0.32" d="M276.586 105.109L230.657 156.682" stroke="#4763FF" stroke-width="2.28952"/>
<path opacity="0.37" d="M322.358 105.249L276.429 156.822" stroke="#4763FF" stroke-width="2.28952"/>
<path opacity="0.42" d="M322.358 105.249L367.973 157.1" stroke="#4763FF" stroke-width="2.28952"/>
<path opacity="0.48" d="M413.902 105.527L367.973 157.1" stroke="#4763FF" stroke-width="2.28952"/>
<path opacity="0.53" d="M459.674 105.666L413.745 157.239" stroke="#4763FF" stroke-width="2.28952"/>
<path opacity="0.58" d="M505.446 105.806L459.517 157.379" stroke="#4763FF" stroke-width="2.28952"/>
<path opacity="0.64" d="M505.445 105.806L551.06 157.657" stroke="#4763FF" stroke-width="2.28952"/>
<path opacity="0.69" d="M596.99 106.084L551.06 157.657" stroke="#4763FF" stroke-width="2.28952"/>
<path opacity="0.74" d="M596.99 106.084L642.604 157.935" stroke="#4763FF" stroke-width="2.28952"/>
<path opacity="0.8" d="M642.761 106.223L688.376 158.075" stroke="#4763FF" stroke-width="2.28952"/>
<path opacity="0.85" d="M734.305 106.502L688.375 158.075" stroke="#4763FF" stroke-width="2.28952"/>
<path opacity="0.91" d="M780.077 106.641L734.148 158.214" stroke="#4763FF" stroke-width="2.28952"/>
<path opacity="0.96" d="M780.077 106.641L825.691 158.492" stroke="#4763FF" stroke-width="2.28952"/>
<path opacity="0.05" d="M47.5693 156.125L1.64004 207.698" stroke="#4763FF" stroke-width="2.28952"/>
<path opacity="0.1" d="M93.3411 156.265L47.4119 207.838" stroke="#4763FF" stroke-width="2.28952"/>
<path opacity="0.16" d="M93.3408 156.264L138.955 208.116" stroke="#4763FF" stroke-width="2.28952"/>
<path opacity="0.21" d="M139.113 156.404L184.727 208.255" stroke="#4763FF" stroke-width="2.28952"/>
<path opacity="0.26" d="M230.657 156.682L184.727 208.255" stroke="#4763FF" stroke-width="2.28952"/>
<path opacity="0.32" d="M276.429 156.821L230.499 208.394" stroke="#4763FF" stroke-width="2.28952"/>
<path opacity="0.37" d="M276.429 156.821L322.043 208.673" stroke="#4763FF" stroke-width="2.28952"/>
<path opacity="0.42" d="M322.201 156.961L367.815 208.812" stroke="#4763FF" stroke-width="2.28952"/>
<path opacity="0.48" d="M367.972 157.1L413.587 208.952" stroke="#4763FF" stroke-width="2.28952"/>
<path opacity="0.53" d="M459.516 157.379L413.587 208.951" stroke="#4763FF" stroke-width="2.28952"/>
<path opacity="0.58" d="M459.516 157.379L505.131 209.23" stroke="#4763FF" stroke-width="2.28952"/>
<path opacity="0.64" d="M551.06 157.657L505.131 209.23" stroke="#4763FF" stroke-width="2.28952"/>
<path opacity="0.69" d="M596.832 157.796L550.903 209.369" stroke="#4763FF" stroke-width="2.28952"/>
<path opacity="0.74" d="M596.832 157.796L642.447 209.648" stroke="#4763FF" stroke-width="2.28952"/>
<path opacity="0.8" d="M642.604 157.936L688.219 209.787" stroke="#4763FF" stroke-width="2.28952"/>
<path opacity="0.85" d="M734.148 158.214L688.218 209.787" stroke="#4763FF" stroke-width="2.28952"/>
<path opacity="0.91" d="M779.92 158.353L733.99 209.926" stroke="#4763FF" stroke-width="2.28952"/>
<path opacity="0.96" d="M779.92 158.353L825.534 210.205" stroke="#4763FF" stroke-width="2.28952"/>
<path opacity="0.05" d="M47.412 207.837L1.48281 259.41" stroke="#4763FF" stroke-width="2.28952"/>
<path opacity="0.1" d="M93.1841 207.977L47.2549 259.55" stroke="#4763FF" stroke-width="2.28952"/>
<path opacity="0.16" d="M93.1841 207.977L138.799 259.828" stroke="#4763FF" stroke-width="2.28952"/>
<path opacity="0.21" d="M184.728 208.255L138.798 259.828" stroke="#4763FF" stroke-width="2.28952"/>
<path opacity="0.26" d="M230.499 208.394L184.57 259.967" stroke="#4763FF" stroke-width="2.28952"/>
<path opacity="0.32" d="M276.272 208.534L230.342 260.107" stroke="#4763FF" stroke-width="2.28952"/>
<path opacity="0.37" d="M276.271 208.534L321.886 260.385" stroke="#4763FF" stroke-width="2.28952"/>
<path opacity="0.42" d="M322.043 208.673L367.658 260.524" stroke="#4763FF" stroke-width="2.28952"/>
<path opacity="0.48" d="M413.588 208.952L367.658 260.525" stroke="#4763FF" stroke-width="2.28952"/>
<path opacity="0.53" d="M413.587 208.952L459.202 260.803" stroke="#4763FF" stroke-width="2.28952"/>
<path opacity="0.58" d="M459.359 209.091L504.973 260.942" stroke="#4763FF" stroke-width="2.28952"/>
<path opacity="0.64" d="M550.903 209.369L504.974 260.942" stroke="#4763FF" stroke-width="2.28952"/>
<path opacity="0.69" d="M596.674 209.508L550.745 261.081" stroke="#4763FF" stroke-width="2.28952"/>
<path opacity="0.74" d="M596.675 209.508L642.289 261.36" stroke="#4763FF" stroke-width="2.28952"/>
<path opacity="0.8" d="M642.446 209.648L688.061 261.499" stroke="#4763FF" stroke-width="2.28952"/>
<path opacity="0.85" d="M733.99 209.926L688.061 261.499" stroke="#4763FF" stroke-width="2.28952"/>
<path opacity="0.91" d="M779.762 210.066L733.833 261.638" stroke="#4763FF" stroke-width="2.28952"/>
<path opacity="0.96" d="M825.534 210.205L779.605 261.777" stroke="#4763FF" stroke-width="2.28952"/>
<path opacity="0.05" d="M47.2547 259.55L1.32546 311.123" stroke="#4763FF" stroke-width="2.28952"/>
<path opacity="0.1" d="M93.0265 259.689L47.0973 311.262" stroke="#4763FF" stroke-width="2.28952"/>
<path opacity="0.16" d="M138.799 259.828L92.8693 311.401" stroke="#4763FF" stroke-width="2.28952"/>
<path opacity="0.21" d="M138.798 259.828L184.413 311.68" stroke="#4763FF" stroke-width="2.28952"/>
<path opacity="0.26" d="M184.57 259.967L230.185 311.819" stroke="#4763FF" stroke-width="2.28952"/>
<path opacity="0.32" d="M276.114 260.246L230.185 311.819" stroke="#4763FF" stroke-width="2.28952"/>
<path opacity="0.37" d="M321.886 260.385L275.956 311.958" stroke="#4763FF" stroke-width="2.28952"/>
<path opacity="0.42" d="M321.886 260.385L367.501 312.236" stroke="#4763FF" stroke-width="2.28952"/>
<path opacity="0.48" d="M367.658 260.525L413.272 312.376" stroke="#4763FF" stroke-width="2.28952"/>
<path opacity="0.53" d="M413.43 260.664L459.044 312.515" stroke="#4763FF" stroke-width="2.28952"/>
<path opacity="0.58" d="M459.202 260.803L504.816 312.654" stroke="#4763FF" stroke-width="2.28952"/>
<path opacity="0.64" d="M504.974 260.942L550.588 312.794" stroke="#4763FF" stroke-width="2.28952"/>
<path opacity="0.69" d="M596.517 261.221L550.588 312.794" stroke="#4763FF" stroke-width="2.28952"/>
<path opacity="0.74" d="M596.518 261.221L642.132 313.072" stroke="#4763FF" stroke-width="2.28952"/>
<path opacity="0.8" d="M688.061 261.499L642.132 313.072" stroke="#4763FF" stroke-width="2.28952"/>
<path opacity="0.85" d="M733.833 261.638L687.904 313.211" stroke="#4763FF" stroke-width="2.28952"/>
<path opacity="0.91" d="M779.605 261.778L733.676 313.351" stroke="#4763FF" stroke-width="2.28952"/>
<path opacity="0.96" d="M779.605 261.778L825.22 313.629" stroke="#4763FF" stroke-width="2.28952"/>
<path opacity="0.05" d="M1.3252 311.122L46.9398 362.974" stroke="#4763FF" stroke-width="2.28952"/>
<path opacity="0.1" d="M47.097 311.262L92.7116 363.113" stroke="#4763FF" stroke-width="2.28952"/>
<path opacity="0.16" d="M92.8691 311.401L138.484 363.252" stroke="#4763FF" stroke-width="2.28952"/>
<path opacity="0.21" d="M184.413 311.68L138.484 363.253" stroke="#4763FF" stroke-width="2.28952"/>
<path opacity="0.26" d="M230.185 311.819L184.256 363.392" stroke="#4763FF" stroke-width="2.28952"/>
<path opacity="0.32" d="M230.185 311.819L275.799 363.67" stroke="#4763FF" stroke-width="2.28952"/>
<path opacity="0.37" d="M275.957 311.958L321.571 363.809" stroke="#4763FF" stroke-width="2.28952"/>
<path opacity="0.42" d="M367.5 312.237L321.571 363.809" stroke="#4763FF" stroke-width="2.28952"/>
<path opacity="0.48" d="M413.272 312.376L367.343 363.949" stroke="#4763FF" stroke-width="2.28952"/>
<path opacity="0.53" d="M459.044 312.515L413.115 364.088" stroke="#4763FF" stroke-width="2.28952"/>
<path opacity="0.58" d="M504.816 312.654L458.887 364.227" stroke="#4763FF" stroke-width="2.28952"/>
<path opacity="0.64" d="M550.588 312.794L504.659 364.366" stroke="#4763FF" stroke-width="2.28952"/>
<path opacity="0.69" d="M596.36 312.933L550.431 364.506" stroke="#4763FF" stroke-width="2.28952"/>
<path opacity="0.74" d="M596.36 312.933L641.975 364.784" stroke="#4763FF" stroke-width="2.28952"/>
<path opacity="0.8" d="M642.132 313.072L687.746 364.923" stroke="#4763FF" stroke-width="2.28952"/>
<path opacity="0.85" d="M733.676 313.351L687.746 364.924" stroke="#4763FF" stroke-width="2.28952"/>
<path opacity="0.91" d="M733.676 313.351L779.29 365.202" stroke="#4763FF" stroke-width="2.28952"/>
<path opacity="0.96" d="M825.219 313.629L779.29 365.202" stroke="#4763FF" stroke-width="2.28952"/>
<path opacity="0.05" d="M46.9402 362.974L1.01101 414.547" stroke="#4763FF" stroke-width="2.28952"/>
<path opacity="0.1" d="M46.9399 362.974L92.5545 414.826" stroke="#4763FF" stroke-width="2.28952"/>
<path opacity="0.16" d="M92.7117 363.113L138.326 414.964" stroke="#4763FF" stroke-width="2.28952"/>
<path opacity="0.21" d="M138.483 363.253L184.098 415.104" stroke="#4763FF" stroke-width="2.28952"/>
<path opacity="0.26" d="M230.028 363.531L184.098 415.104" stroke="#4763FF" stroke-width="2.28952"/>
<path opacity="0.32" d="M275.799 363.67L229.87 415.243" stroke="#4763FF" stroke-width="2.28952"/>
<path opacity="0.37" d="M321.571 363.809L275.642 415.382" stroke="#4763FF" stroke-width="2.28952"/>
<path opacity="0.42" d="M367.343 363.949L321.414 415.522" stroke="#4763FF" stroke-width="2.28952"/>
<path opacity="0.48" d="M367.343 363.949L412.958 415.8" stroke="#4763FF" stroke-width="2.28952"/>
<path opacity="0.53" d="M458.887 364.227L412.958 415.8" stroke="#4763FF" stroke-width="2.28952"/>
<path opacity="0.58" d="M458.887 364.227L504.502 416.079" stroke="#4763FF" stroke-width="2.28952"/>
<path opacity="0.64" d="M550.431 364.506L504.502 416.079" stroke="#4763FF" stroke-width="2.28952"/>
<path opacity="0.69" d="M550.431 364.506L596.045 416.357" stroke="#4763FF" stroke-width="2.28952"/>
<path opacity="0.74" d="M641.975 364.784L596.046 416.357" stroke="#4763FF" stroke-width="2.28952"/>
<path opacity="0.8" d="M641.975 364.784L687.589 416.636" stroke="#4763FF" stroke-width="2.28952"/>
<path opacity="0.85" d="M733.519 365.063L687.589 416.636" stroke="#4763FF" stroke-width="2.28952"/>
<path opacity="0.91" d="M779.29 365.202L733.361 416.775" stroke="#4763FF" stroke-width="2.28952"/>
<path opacity="0.96" d="M825.062 365.342L779.133 416.914" stroke="#4763FF" stroke-width="2.28952"/>
<path opacity="0.05" d="M1.0105 414.547L46.6251 466.398" stroke="#4763FF" stroke-width="2.28952"/>
<path opacity="0.1" d="M46.7827 414.686L92.3973 466.538" stroke="#4763FF" stroke-width="2.28952"/>
<path opacity="0.16" d="M92.5544 414.825L138.169 466.677" stroke="#4763FF" stroke-width="2.28952"/>
<path opacity="0.21" d="M184.098 415.104L138.169 466.677" stroke="#4763FF" stroke-width="2.28952"/>
<path opacity="0.26" d="M184.098 415.104L229.713 466.955" stroke="#4763FF" stroke-width="2.28952"/>
<path opacity="0.32" d="M275.642 415.383L229.713 466.955" stroke="#4763FF" stroke-width="2.28952"/>
<path opacity="0.37" d="M275.642 415.383L321.257 467.234" stroke="#4763FF" stroke-width="2.28952"/>
<path opacity="0.42" d="M321.414 415.522L367.029 467.373" stroke="#4763FF" stroke-opacity="0.6" stroke-width="2.28952"/>
<path opacity="0.48" d="M412.958 415.8L367.029 467.373" stroke="#4763FF" stroke-width="2.28952"/>
<path opacity="0.53" d="M458.73 415.94L412.8 467.512" stroke="#4763FF" stroke-opacity="0.6" stroke-width="2.28952"/>
<path opacity="0.58" d="M458.73 415.94L504.344 467.791" stroke="#4763FF" stroke-width="2.28952"/>
<path opacity="0.64" d="M504.501 416.079L550.116 467.93" stroke="#4763FF" stroke-width="2.28952"/>
<path opacity="0.69" d="M596.046 416.357L550.116 467.93" stroke="#4763FF" stroke-width="2.28952"/>
<path opacity="0.74" d="M641.817 416.496L595.888 468.069" stroke="#4763FF" stroke-width="2.28952"/>
<path opacity="0.8" d="M687.589 416.636L641.66 468.209" stroke="#4763FF" stroke-width="2.28952"/>
<path opacity="0.85" d="M687.589 416.636L733.204 468.487" stroke="#4763FF" stroke-width="2.28952"/>
<path opacity="0.91" d="M733.361 416.775L778.976 468.626" stroke="#4763FF" stroke-width="2.28952"/>
<path opacity="0.96" d="M779.133 416.914L824.748 468.766" stroke="#4763FF" stroke-width="2.28952"/>
<path opacity="0.05" d="M46.6255 466.398L0.696311 517.971" stroke="#4763FF" stroke-width="2.28952"/>
<path opacity="0.1" d="M92.3973 466.538L46.468 518.111" stroke="#4763FF" stroke-width="2.28952"/>
<path opacity="0.16" d="M138.169 466.677L92.2399 518.25" stroke="#4763FF" stroke-opacity="0.5" stroke-width="2.28952"/>
<path opacity="0.21" d="M138.169 466.677L183.784 518.528" stroke="#4763FF" stroke-opacity="0.1" stroke-width="2.28952"/>
<path opacity="0.26" d="M183.941 466.816L229.555 518.667" stroke="#4763FF" stroke-opacity="0.1" stroke-width="2.28952"/>
<path opacity="0.32" d="M229.713 466.955L275.327 518.807" stroke="#4763FF" stroke-opacity="0.1" stroke-width="2.28952"/>
<path opacity="0.37" d="M275.484 467.095L321.099 518.946" stroke="#4763FF" stroke-opacity="0.1" stroke-width="2.28952"/>
<path opacity="0.42" d="M321.257 467.234L366.871 519.085" stroke="#4763FF" stroke-opacity="0.1" stroke-width="2.28952"/>
<path opacity="0.48" d="M367.028 467.373L412.643 519.225" stroke="#4763FF" stroke-opacity="0.1" stroke-width="2.28952"/>
<path opacity="0.53" d="M458.572 467.652L412.643 519.225" stroke="#4763FF" stroke-opacity="0.2" stroke-width="2.28952"/>
<path opacity="0.58" d="M458.572 467.652L504.187 519.503" stroke="#4763FF" stroke-opacity="0.1" stroke-width="2.28952"/>
<path opacity="0.64" d="M550.116 467.93L504.187 519.503" stroke="#4763FF" stroke-opacity="0.1" stroke-width="2.28952"/>
<path opacity="0.69" d="M550.268 468.467L595.883 520.318" stroke="#4763FF" stroke-opacity="0.1" stroke-width="2.28952"/>
<path opacity="0.74" d="M641.66 468.209L595.731 519.782" stroke="#4763FF" stroke-opacity="0.6" stroke-width="2.28952"/>
<path opacity="0.8" d="M687.432 468.348L641.503 519.921" stroke="#4763FF" stroke-opacity="0.6" stroke-width="2.28952"/>
<path opacity="0.85" d="M687.432 468.348L733.046 520.2" stroke="#4763FF" stroke-opacity="0.6" stroke-width="2.28952"/>
<path opacity="0.91" d="M733.204 468.487L778.818 520.339" stroke="#4763FF" stroke-opacity="0.6" stroke-width="2.28952"/>
<path opacity="0.96" d="M778.976 468.627L824.59 520.478" stroke="#4763FF" stroke-opacity="0.6" stroke-width="2.28952"/>
<path opacity="0.05" d="M0.695923 517.971L46.3105 569.823" stroke="#4763FF" stroke-width="2.28952"/>
<path opacity="0.1" d="M46.468 518.111L92.0826 569.962" stroke="#4763FF" stroke-width="2.28952"/>
<path opacity="0.16" d="M138.012 518.389L92.0827 569.962" stroke="#4763FF" stroke-width="2.28952"/>
<path opacity="0.21" d="M183.784 518.528L137.854 570.101" stroke="#4763FF" stroke-width="2.28952"/>
<path opacity="0.26" d="M183.784 518.528L229.398 570.38" stroke="#4763FF" stroke-width="2.28952"/>
<path opacity="0.32" d="M275.328 518.807L229.398 570.38" stroke="#4763FF" stroke-width="2.28952"/>
<path opacity="0.37" d="M275.327 518.807L320.942 570.658" stroke="#4763FF" stroke-width="2.28952"/>
<path opacity="0.42" d="M366.871 519.085L320.942 570.658" stroke="#4763FF" stroke-width="2.28952"/>
<path opacity="0.48" d="M412.643 519.225L366.714 570.798" stroke="#4763FF" stroke-width="2.28952"/>
<path opacity="0.53" d="M412.643 519.224L458.258 571.076" stroke="#4763FF" stroke-width="2.28952"/>
<path opacity="0.58" d="M504.187 519.503L458.258 571.076" stroke="#4763FF" stroke-width="2.28952"/>
<path opacity="0.64" d="M549.959 519.642L504.03 571.215" stroke="#4763FF" stroke-width="2.28952"/>
<path opacity="0.69" d="M595.731 519.782L549.802 571.355" stroke="#4763FF" stroke-width="2.28952"/>
<path opacity="0.74" d="M595.73 519.781L641.345 571.633" stroke="#4763FF" stroke-width="2.28952"/>
<path opacity="0.8" d="M687.274 520.06L641.345 571.633" stroke="#4763FF" stroke-width="2.28952"/>
<path opacity="0.85" d="M733.046 520.2L687.117 571.772" stroke="#4763FF" stroke-width="2.28952"/>
<path opacity="0.91" d="M778.818 520.338L732.889 571.911" stroke="#4763FF" stroke-width="2.28952"/>
<path opacity="0.96" d="M778.818 520.339L824.433 572.19" stroke="#4763FF" stroke-width="2.28952"/>
</g>
<defs>
<clipPath id="clip0_322_68">
<rect width="813.599" height="517.124" fill="white" transform="translate(2.26929 0.849365) rotate(0.174314)"/>
</clipPath>
</defs>
</svg>
