{
  "asset": {
    "generator": "Khronos glTF Blender I/O v4.0.44",
    "version": "2.0"
  },
  "extensionsUsed": [
    "KHR_materials_emissive_strength",
    "KHR_materials_transmission",
    "KHR_materials_ior"
  ],
  "scene": 0,
  "scenes": [
    {
      "name": "Scene",
      "nodes": [0, 1, 2, 3, 4]
    }
  ],
  "nodes": [
    {
      "mesh": 0,
      "name": "Cube",
      "scale": [1.462581753730774, 1, 1],
      "translation": [0, 1.5065730810165405, 0]
    },
    {
      "mesh": 1,
      "name": "Cube.001",
      "scale": [1.462581753730774, 1, 1],
      "translation": [0, 1.5065730810165405, 0]
    },
    {
      "mesh": 2,
      "name": "Cube.002",
      "scale": [1.462581753730774, 1, 1],
      "translation": [0, 1.591426968574524, 0]
    },
    {
      "mesh": 3,
      "name": "Plane",
      "scale": [10.958110809326172, 10.958110809326172, 10.958110809326172]
    },
    {
      "mesh": 4,
      "name": "Circle",
      "rotation": [0, 0, -0.7071068286895752, 0.7071068286895752],
      "scale": [0.9059973955154419, 0.9059973955154419, 0.9059973955154419],
      "translation": [
        1.5840764045715332, 1.141094446182251, 0.0013741403818130493
      ]
    }
  ],
  "materials": [
    {
      "doubleSided": true,
      "name": "Body",
      "pbrMetallicRoughness": {
        "baseColorFactor": [
          0.05613791197538376, 0.0036762808449566364, 0.16201765835285187, 1
        ],
        "metallicFactor": 0,
        "roughnessFactor": 0.055045872926712036
      }
    },
    {
      "doubleSided": true,
      "emissiveFactor": [0.3464925523927967, 0.022690618308716753, 1],
      "extensions": {
        "KHR_materials_emissive_strength": {
          "emissiveStrength": 2.430264875292778
        }
      },
      "name": "Material.003",
      "pbrMetallicRoughness": {
        "baseColorFactor": [
          0.05613791197538376, 0.0036762808449566364, 0.16201765835285187, 1
        ],
        "metallicFactor": 0,
        "roughnessFactor": 0.5
      }
    },
    {
      "doubleSided": true,
      "extensions": {
        "KHR_materials_transmission": {
          "transmissionFactor": 1
        },
        "KHR_materials_ior": {
          "ior": 1.4500000476837158
        }
      },
      "name": "Screen",
      "pbrMetallicRoughness": {
        "baseColorFactor": [0, 0, 0, 1],
        "metallicFactor": 0,
        "roughnessFactor": 0.5
      }
    },
    {
      "doubleSided": true,
      "emissiveFactor": [0.039322830736637115, 0.08149992674589157, 1],
      "extensions": {
        "KHR_materials_emissive_strength": {
          "emissiveStrength": 8
        }
      },
      "name": "Material.002",
      "pbrMetallicRoughness": {
        "baseColorFactor": [
          0.800000011920929, 0.800000011920929, 0.800000011920929, 1
        ],
        "metallicFactor": 0,
        "roughnessFactor": 0.5
      }
    },
    {
      "doubleSided": true,
      "name": "Material.001",
      "pbrMetallicRoughness": {
        "baseColorFactor": [
          0.11059525609016418, 0.11059525609016418, 0.11059525609016418,
          0.33944952487945557
        ],
        "roughnessFactor": 0.20000000298023224
      }
    },
    {
      "doubleSided": true,
      "name": "Wheel",
      "pbrMetallicRoughness": {
        "baseColorFactor": [
          0.016491318121552467, 0.016491318121552467, 0.016491318121552467, 1
        ],
        "metallicFactor": 0,
        "roughnessFactor": 0.5
      }
    }
  ],
  "meshes": [
    {
      "name": "Cube.003",
      "primitives": [
        {
          "attributes": {
            "POSITION": 0,
            "NORMAL": 1,
            "TEXCOORD_0": 2
          },
          "indices": 3,
          "material": 0
        },
        {
          "attributes": {
            "POSITION": 4,
            "NORMAL": 5,
            "TEXCOORD_0": 6
          },
          "indices": 7,
          "material": 1
        }
      ]
    },
    {
      "name": "Cube.004",
      "primitives": [
        {
          "attributes": {
            "POSITION": 8,
            "NORMAL": 9,
            "TEXCOORD_0": 10
          },
          "indices": 11,
          "material": 2
        },
        {
          "attributes": {
            "POSITION": 12,
            "NORMAL": 13,
            "TEXCOORD_0": 14
          },
          "indices": 15,
          "material": 3
        }
      ]
    },
    {
      "name": "Cube.005",
      "primitives": [
        {
          "attributes": {
            "POSITION": 16,
            "NORMAL": 17,
            "TEXCOORD_0": 18
          },
          "indices": 19,
          "material": 0
        },
        {
          "attributes": {
            "POSITION": 20,
            "NORMAL": 21,
            "TEXCOORD_0": 22
          },
          "indices": 23,
          "material": 1
        }
      ]
    },
    {
      "name": "Plane",
      "primitives": [
        {
          "attributes": {
            "POSITION": 24,
            "NORMAL": 25,
            "TEXCOORD_0": 26
          },
          "indices": 27
        }
      ]
    },
    {
      "name": "Circle.005",
      "primitives": [
        {
          "attributes": {
            "POSITION": 28,
            "NORMAL": 29,
            "TEXCOORD_0": 30
          },
          "indices": 31,
          "material": 0
        },
        {
          "attributes": {
            "POSITION": 32,
            "NORMAL": 33,
            "TEXCOORD_0": 34
          },
          "indices": 35,
          "material": 4
        },
        {
          "attributes": {
            "POSITION": 36,
            "NORMAL": 37,
            "TEXCOORD_0": 38
          },
          "indices": 39,
          "material": 5
        }
      ]
    }
  ],
  "accessors": [
    {
      "bufferView": 0,
      "componentType": 5126,
      "count": 5694,
      "max": [1.1019002199172974, 1.1019002199172974, 0.981564998626709],
      "min": [-1.1019002199172974, -1.1019002199172974, -1.1019002199172974],
      "type": "VEC3"
    },
    {
      "bufferView": 1,
      "componentType": 5126,
      "count": 5694,
      "type": "VEC3"
    },
    {
      "bufferView": 2,
      "componentType": 5126,
      "count": 5694,
      "type": "VEC2"
    },
    {
      "bufferView": 3,
      "componentType": 5123,
      "count": 32496,
      "type": "SCALAR"
    },
    {
      "bufferView": 4,
      "componentType": 5126,
      "count": 324,
      "max": [0.8427630662918091, 0.8422630429267883, 0.981564998626709],
      "min": [-0.8427630662918091, -0.7532170414924622, 0.7885475158691406],
      "type": "VEC3"
    },
    {
      "bufferView": 5,
      "componentType": 5126,
      "count": 324,
      "type": "VEC3"
    },
    {
      "bufferView": 6,
      "componentType": 5126,
      "count": 324,
      "type": "VEC2"
    },
    {
      "bufferView": 7,
      "componentType": 5123,
      "count": 1296,
      "type": "SCALAR"
    },
    {
      "bufferView": 8,
      "componentType": 5126,
      "count": 138240,
      "max": [0.8303374648094177, 0.8266973495483398, 1.0061757564544678],
      "min": [-0.830337405204773, -0.7412424683570862, 0.7453594207763672],
      "type": "VEC3"
    },
    {
      "bufferView": 9,
      "componentType": 5126,
      "count": 138240,
      "type": "VEC3"
    },
    {
      "bufferView": 10,
      "componentType": 5126,
      "count": 138240,
      "type": "VEC2"
    },
    {
      "bufferView": 11,
      "componentType": 5125,
      "count": 205440,
      "type": "SCALAR"
    },
    {
      "bufferView": 12,
      "componentType": 5126,
      "count": 19008,
      "max": [0.6113694906234741, 0.727493166923523, 0.9913264513015747],
      "min": [-0.6113694906234741, -0.3958086669445038, 0.83970707654953],
      "type": "VEC3"
    },
    {
      "bufferView": 13,
      "componentType": 5126,
      "count": 19008,
      "type": "VEC3"
    },
    {
      "bufferView": 14,
      "componentType": 5126,
      "count": 19008,
      "type": "VEC2"
    },
    {
      "bufferView": 15,
      "componentType": 5123,
      "count": 28248,
      "type": "SCALAR"
    },
    {
      "bufferView": 16,
      "componentType": 5126,
      "count": 99,
      "max": [0.6314787268638611, 1.1041882038116455, 0.39219969511032104],
      "min": [-0.6314787268638611, 0.984241783618927, -0.6314787268638611],
      "type": "VEC3"
    },
    {
      "bufferView": 17,
      "componentType": 5126,
      "count": 99,
      "type": "VEC3"
    },
    {
      "bufferView": 18,
      "componentType": 5126,
      "count": 99,
      "type": "VEC2"
    },
    {
      "bufferView": 19,
      "componentType": 5123,
      "count": 480,
      "type": "SCALAR"
    },
    {
      "bufferView": 20,
      "componentType": 5126,
      "count": 72,
      "max": [0.6314787268638611, 1.0764341354370117, 0.39219969511032104],
      "min": [-0.6314787268638611, 0.8748586773872375, -0.6314787268638611],
      "type": "VEC3"
    },
    {
      "bufferView": 21,
      "componentType": 5126,
      "count": 72,
      "type": "VEC3"
    },
    {
      "bufferView": 22,
      "componentType": 5126,
      "count": 72,
      "type": "VEC2"
    },
    {
      "bufferView": 23,
      "componentType": 5123,
      "count": 216,
      "type": "SCALAR"
    },
    {
      "bufferView": 24,
      "componentType": 5126,
      "count": 4,
      "max": [1, 0, 1],
      "min": [-1, 0, -1],
      "type": "VEC3"
    },
    {
      "bufferView": 25,
      "componentType": 5126,
      "count": 4,
      "type": "VEC3"
    },
    {
      "bufferView": 26,
      "componentType": 5126,
      "count": 4,
      "type": "VEC2"
    },
    {
      "bufferView": 27,
      "componentType": 5123,
      "count": 6,
      "type": "SCALAR"
    },
    {
      "bufferView": 28,
      "componentType": 5126,
      "count": 704,
      "max": [1, 0.39816874265670776, 1],
      "min": [-1.000000238418579, -3.895036458969116, -1],
      "type": "VEC3"
    },
    {
      "bufferView": 29,
      "componentType": 5126,
      "count": 704,
      "type": "VEC3"
    },
    {
      "bufferView": 30,
      "componentType": 5126,
      "count": 704,
      "type": "VEC2"
    },
    {
      "bufferView": 31,
      "componentType": 5123,
      "count": 4020,
      "type": "SCALAR"
    },
    {
      "bufferView": 32,
      "componentType": 5126,
      "count": 192,
      "max": [0.2476576715707779, 0.34807097911834717, 0.24765770137310028],
      "min": [-0.24765804409980774, -3.8449387550354004, -0.24765770137310028],
      "type": "VEC3"
    },
    {
      "bufferView": 33,
      "componentType": 5126,
      "count": 192,
      "type": "VEC3"
    },
    {
      "bufferView": 34,
      "componentType": 5126,
      "count": 192,
      "type": "VEC2"
    },
    {
      "bufferView": 35,
      "componentType": 5123,
      "count": 948,
      "type": "SCALAR"
    },
    {
      "bufferView": 36,
      "componentType": 5126,
      "count": 256,
      "max": [1.15642249584198, 0.31874191761016846, 1.1564226150512695],
      "min": [-1.1564226150512695, -3.8156094551086426, -1.1564226150512695],
      "type": "VEC3"
    },
    {
      "bufferView": 37,
      "componentType": 5126,
      "count": 256,
      "type": "VEC3"
    },
    {
      "bufferView": 38,
      "componentType": 5126,
      "count": 256,
      "type": "VEC2"
    },
    {
      "bufferView": 39,
      "componentType": 5123,
      "count": 1152,
      "type": "SCALAR"
    }
  ],
  "bufferViews": [
    {
      "buffer": 0,
      "byteLength": 68328,
      "byteOffset": 0,
      "target": 34962
    },
    {
      "buffer": 0,
      "byteLength": 68328,
      "byteOffset": 68328,
      "target": 34962
    },
    {
      "buffer": 0,
      "byteLength": 45552,
      "byteOffset": 136656,
      "target": 34962
    },
    {
      "buffer": 0,
      "byteLength": 64992,
      "byteOffset": 182208,
      "target": 34963
    },
    {
      "buffer": 0,
      "byteLength": 3888,
      "byteOffset": 247200,
      "target": 34962
    },
    {
      "buffer": 0,
      "byteLength": 3888,
      "byteOffset": 251088,
      "target": 34962
    },
    {
      "buffer": 0,
      "byteLength": 2592,
      "byteOffset": 254976,
      "target": 34962
    },
    {
      "buffer": 0,
      "byteLength": 2592,
      "byteOffset": 257568,
      "target": 34963
    },
    {
      "buffer": 0,
      "byteLength": 1658880,
      "byteOffset": 260160,
      "target": 34962
    },
    {
      "buffer": 0,
      "byteLength": 1658880,
      "byteOffset": 1919040,
      "target": 34962
    },
    {
      "buffer": 0,
      "byteLength": 1105920,
      "byteOffset": 3577920,
      "target": 34962
    },
    {
      "buffer": 0,
      "byteLength": 821760,
      "byteOffset": 4683840,
      "target": 34963
    },
    {
      "buffer": 0,
      "byteLength": 228096,
      "byteOffset": 5505600,
      "target": 34962
    },
    {
      "buffer": 0,
      "byteLength": 228096,
      "byteOffset": 5733696,
      "target": 34962
    },
    {
      "buffer": 0,
      "byteLength": 152064,
      "byteOffset": 5961792,
      "target": 34962
    },
    {
      "buffer": 0,
      "byteLength": 56496,
      "byteOffset": 6113856,
      "target": 34963
    },
    {
      "buffer": 0,
      "byteLength": 1188,
      "byteOffset": 6170352,
      "target": 34962
    },
    {
      "buffer": 0,
      "byteLength": 1188,
      "byteOffset": 6171540,
      "target": 34962
    },
    {
      "buffer": 0,
      "byteLength": 792,
      "byteOffset": 6172728,
      "target": 34962
    },
    {
      "buffer": 0,
      "byteLength": 960,
      "byteOffset": 6173520,
      "target": 34963
    },
    {
      "buffer": 0,
      "byteLength": 864,
      "byteOffset": 6174480,
      "target": 34962
    },
    {
      "buffer": 0,
      "byteLength": 864,
      "byteOffset": 6175344,
      "target": 34962
    },
    {
      "buffer": 0,
      "byteLength": 576,
      "byteOffset": 6176208,
      "target": 34962
    },
    {
      "buffer": 0,
      "byteLength": 432,
      "byteOffset": 6176784,
      "target": 34963
    },
    {
      "buffer": 0,
      "byteLength": 48,
      "byteOffset": 6177216,
      "target": 34962
    },
    {
      "buffer": 0,
      "byteLength": 48,
      "byteOffset": 6177264,
      "target": 34962
    },
    {
      "buffer": 0,
      "byteLength": 32,
      "byteOffset": 6177312,
      "target": 34962
    },
    {
      "buffer": 0,
      "byteLength": 12,
      "byteOffset": 6177344,
      "target": 34963
    },
    {
      "buffer": 0,
      "byteLength": 8448,
      "byteOffset": 6177356,
      "target": 34962
    },
    {
      "buffer": 0,
      "byteLength": 8448,
      "byteOffset": 6185804,
      "target": 34962
    },
    {
      "buffer": 0,
      "byteLength": 5632,
      "byteOffset": 6194252,
      "target": 34962
    },
    {
      "buffer": 0,
      "byteLength": 8040,
      "byteOffset": 6199884,
      "target": 34963
    },
    {
      "buffer": 0,
      "byteLength": 2304,
      "byteOffset": 6207924,
      "target": 34962
    },
    {
      "buffer": 0,
      "byteLength": 2304,
      "byteOffset": 6210228,
      "target": 34962
    },
    {
      "buffer": 0,
      "byteLength": 1536,
      "byteOffset": 6212532,
      "target": 34962
    },
    {
      "buffer": 0,
      "byteLength": 1896,
      "byteOffset": 6214068,
      "target": 34963
    },
    {
      "buffer": 0,
      "byteLength": 3072,
      "byteOffset": 6215964,
      "target": 34962
    },
    {
      "buffer": 0,
      "byteLength": 3072,
      "byteOffset": 6219036,
      "target": 34962
    },
    {
      "buffer": 0,
      "byteLength": 2048,
      "byteOffset": 6222108,
      "target": 34962
    },
    {
      "buffer": 0,
      "byteLength": 2304,
      "byteOffset": 6224156,
      "target": 34963
    }
  ],
  "buffers": [
    {
      "byteLength": 6226460,
      "uri": "Bot.bin"
    }
  ]
}
