{
	"asset":{
		"generator":"Khronos glTF Blender I/O v4.0.44",
		"version":"2.0"
	},
	"extensionsUsed":[
		"KHR_materials_emissive_strength"
	],
	"scene":0,
	"scenes":[
		{
			"name":"Scene",
			"nodes":[
				0
			]
		}
	],
	"nodes":[
		{
			"mesh":0,
			"name":"Car",
			"scale":[
				0.1661686897277832,
				0.08361638337373734,
				0.06764328479766846
			],
			"translation":[
				0.1424020677804947,
				0.009969640523195267,
				2.2262191772460938
			]
		}
	],
	"materials":[
		{
			"doubleSided":true,
			"name":"Metal",
			"pbrMetallicRoughness":{
				"baseColorFactor":[
					0.21589678525924683,
					0.2158510833978653,
					0.21584492921829224,
					1
				],
				"metallicFactor":0,
				"roughnessFactor":0.5
			}
		},
		{
			"doubleSided":true,
			"name":"Body",
			"pbrMetallicRoughness":{
				"baseColorFactor":[
					0.004286050796508789,
					0,
					0.801857590675354,
					1
				],
				"metallicFactor":0.43119266629219055,
				"roughnessFactor":0.3073394298553467
			}
		},
		{
			"doubleSided":true,
			"name":"window",
			"pbrMetallicRoughness":{
				"baseColorFactor":[
					0.17318542301654816,
					0.2516857981681824,
					0.8004080057144165,
					1
				],
				"metallicFactor":0,
				"roughnessFactor":0.5
			}
		},
		{
			"doubleSided":true,
			"name":"tire",
			"pbrMetallicRoughness":{
				"baseColorFactor":[
					0,
					0,
					0,
					1
				],
				"metallicFactor":0,
				"roughnessFactor":0.5
			}
		},
		{
			"doubleSided":true,
			"name":"chrome",
			"pbrMetallicRoughness":{
				"baseColorFactor":[
					0.2701742947101593,
					0.2701742947101593,
					0.2701742947101593,
					1
				],
				"metallicFactor":0.541284441947937,
				"roughnessFactor":0.35321101546287537
			}
		},
		{
			"doubleSided":true,
			"emissiveFactor":[
				1,
				1,
				1
			],
			"extensions":{
				"KHR_materials_emissive_strength":{
					"emissiveStrength":40
				}
			},
			"name":"Lights",
			"pbrMetallicRoughness":{
				"baseColorFactor":[
					0.800000011920929,
					0.800000011920929,
					0.800000011920929,
					1
				],
				"metallicFactor":0,
				"roughnessFactor":0.5
			}
		},
		{
			"doubleSided":true,
			"name":"Indicator",
			"pbrMetallicRoughness":{
				"baseColorFactor":[
					1,
					1,
					0,
					1
				],
				"metallicFactor":0,
				"roughnessFactor":0.5
			}
		},
		{
			"doubleSided":true,
			"emissiveFactor":[
				1,
				0,
				0
			],
			"extensions":{
				"KHR_materials_emissive_strength":{
					"emissiveStrength":10
				}
			},
			"name":"StopLights",
			"pbrMetallicRoughness":{
				"baseColorFactor":[
					1,
					0,
					0,
					1
				],
				"metallicFactor":0,
				"roughnessFactor":0.5
			}
		}
	],
	"meshes":[
		{
			"name":"Cube.001",
			"primitives":[
				{
					"attributes":{
						"POSITION":0,
						"NORMAL":1,
						"TEXCOORD_0":2
					},
					"indices":3,
					"material":0
				},
				{
					"attributes":{
						"POSITION":4,
						"NORMAL":5,
						"TEXCOORD_0":6
					},
					"indices":7,
					"material":1
				},
				{
					"attributes":{
						"POSITION":8,
						"NORMAL":9,
						"TEXCOORD_0":10
					},
					"indices":11,
					"material":2
				},
				{
					"attributes":{
						"POSITION":12,
						"NORMAL":13,
						"TEXCOORD_0":14
					},
					"indices":15,
					"material":3
				},
				{
					"attributes":{
						"POSITION":16,
						"NORMAL":17,
						"TEXCOORD_0":18
					},
					"indices":19,
					"material":4
				},
				{
					"attributes":{
						"POSITION":20,
						"NORMAL":21,
						"TEXCOORD_0":22
					},
					"indices":23,
					"material":5
				},
				{
					"attributes":{
						"POSITION":24,
						"NORMAL":25,
						"TEXCOORD_0":26
					},
					"indices":27,
					"material":6
				},
				{
					"attributes":{
						"POSITION":28,
						"NORMAL":29,
						"TEXCOORD_0":30
					},
					"indices":31,
					"material":7
				}
			]
		}
	],
	"accessors":[
		{
			"bufferView":0,
			"componentType":5126,
			"count":648,
			"max":[
				3.523857831954956,
				1,
				1
			],
			"min":[
				-2.7139458656311035,
				-4.981410503387451,
				-72.23446655273438
			],
			"type":"VEC3"
		},
		{
			"bufferView":1,
			"componentType":5126,
			"count":648,
			"type":"VEC3"
		},
		{
			"bufferView":2,
			"componentType":5126,
			"count":648,
			"type":"VEC2"
		},
		{
			"bufferView":3,
			"componentType":5123,
			"count":1284,
			"type":"SCALAR"
		},
		{
			"bufferView":4,
			"componentType":5126,
			"count":834,
			"max":[
				7.252771377563477,
				14.045437812805176,
				1.0782356262207031
			],
			"min":[
				-8.966717720031738,
				-4.662919998168945,
				-70.51388549804688
			],
			"type":"VEC3"
		},
		{
			"bufferView":5,
			"componentType":5126,
			"count":834,
			"type":"VEC3"
		},
		{
			"bufferView":6,
			"componentType":5126,
			"count":834,
			"type":"VEC2"
		},
		{
			"bufferView":7,
			"componentType":5123,
			"count":1632,
			"type":"SCALAR"
		},
		{
			"bufferView":8,
			"componentType":5126,
			"count":32,
			"max":[
				7.129570484161377,
				13.162800788879395,
				-22.251861572265625
			],
			"min":[
				-8.84351634979248,
				3.5574305057525635,
				-61.57524871826172
			],
			"type":"VEC3"
		},
		{
			"bufferView":9,
			"componentType":5126,
			"count":32,
			"type":"VEC3"
		},
		{
			"bufferView":10,
			"componentType":5126,
			"count":32,
			"type":"VEC2"
		},
		{
			"bufferView":11,
			"componentType":5123,
			"count":48,
			"type":"SCALAR"
		},
		{
			"bufferView":12,
			"componentType":5126,
			"count":804,
			"max":[
				5.416866302490234,
				0.25058603286743164,
				-6.50652551651001
			],
			"min":[
				-7.16461181640625,
				-8.414731979370117,
				-63.61412811279297
			],
			"type":"VEC3"
		},
		{
			"bufferView":13,
			"componentType":5126,
			"count":804,
			"type":"VEC3"
		},
		{
			"bufferView":14,
			"componentType":5126,
			"count":804,
			"type":"VEC2"
		},
		{
			"bufferView":15,
			"componentType":5123,
			"count":1500,
			"type":"SCALAR"
		},
		{
			"bufferView":16,
			"componentType":5126,
			"count":672,
			"max":[
				5.073300361633301,
				-0.7596445083618164,
				-7.786811828613281
			],
			"min":[
				-6.820650100708008,
				-7.404568672180176,
				-62.333839416503906
			],
			"type":"VEC3"
		},
		{
			"bufferView":17,
			"componentType":5126,
			"count":672,
			"type":"VEC3"
		},
		{
			"bufferView":18,
			"componentType":5126,
			"count":672,
			"type":"VEC2"
		},
		{
			"bufferView":19,
			"componentType":5123,
			"count":1140,
			"type":"SCALAR"
		},
		{
			"bufferView":20,
			"componentType":5126,
			"count":66,
			"max":[
				5.015419006347656,
				3.1583945751190186,
				1
			],
			"min":[
				-6.729366302490234,
				1.1583943367004395,
				-1
			],
			"type":"VEC3"
		},
		{
			"bufferView":21,
			"componentType":5126,
			"count":66,
			"type":"VEC3"
		},
		{
			"bufferView":22,
			"componentType":5126,
			"count":66,
			"type":"VEC2"
		},
		{
			"bufferView":23,
			"componentType":5123,
			"count":120,
			"type":"SCALAR"
		},
		{
			"bufferView":24,
			"componentType":5126,
			"count":64,
			"max":[
				5.015419006347656,
				3.1583945751190186,
				1
			],
			"min":[
				-6.729366302490234,
				1.1583943367004395,
				-70.42059326171875
			],
			"type":"VEC3"
		},
		{
			"bufferView":25,
			"componentType":5126,
			"count":64,
			"type":"VEC3"
		},
		{
			"bufferView":26,
			"componentType":5126,
			"count":64,
			"type":"VEC2"
		},
		{
			"bufferView":27,
			"componentType":5123,
			"count":96,
			"type":"SCALAR"
		},
		{
			"bufferView":28,
			"componentType":5126,
			"count":70,
			"max":[
				5.015419006347656,
				3.1583945751190186,
				-68.42059326171875
			],
			"min":[
				-6.729366302490234,
				1.1583943367004395,
				-70.42059326171875
			],
			"type":"VEC3"
		},
		{
			"bufferView":29,
			"componentType":5126,
			"count":70,
			"type":"VEC3"
		},
		{
			"bufferView":30,
			"componentType":5126,
			"count":70,
			"type":"VEC2"
		},
		{
			"bufferView":31,
			"componentType":5123,
			"count":120,
			"type":"SCALAR"
		}
	],
	"bufferViews":[
		{
			"buffer":0,
			"byteLength":7776,
			"byteOffset":0,
			"target":34962
		},
		{
			"buffer":0,
			"byteLength":7776,
			"byteOffset":7776,
			"target":34962
		},
		{
			"buffer":0,
			"byteLength":5184,
			"byteOffset":15552,
			"target":34962
		},
		{
			"buffer":0,
			"byteLength":2568,
			"byteOffset":20736,
			"target":34963
		},
		{
			"buffer":0,
			"byteLength":10008,
			"byteOffset":23304,
			"target":34962
		},
		{
			"buffer":0,
			"byteLength":10008,
			"byteOffset":33312,
			"target":34962
		},
		{
			"buffer":0,
			"byteLength":6672,
			"byteOffset":43320,
			"target":34962
		},
		{
			"buffer":0,
			"byteLength":3264,
			"byteOffset":49992,
			"target":34963
		},
		{
			"buffer":0,
			"byteLength":384,
			"byteOffset":53256,
			"target":34962
		},
		{
			"buffer":0,
			"byteLength":384,
			"byteOffset":53640,
			"target":34962
		},
		{
			"buffer":0,
			"byteLength":256,
			"byteOffset":54024,
			"target":34962
		},
		{
			"buffer":0,
			"byteLength":96,
			"byteOffset":54280,
			"target":34963
		},
		{
			"buffer":0,
			"byteLength":9648,
			"byteOffset":54376,
			"target":34962
		},
		{
			"buffer":0,
			"byteLength":9648,
			"byteOffset":64024,
			"target":34962
		},
		{
			"buffer":0,
			"byteLength":6432,
			"byteOffset":73672,
			"target":34962
		},
		{
			"buffer":0,
			"byteLength":3000,
			"byteOffset":80104,
			"target":34963
		},
		{
			"buffer":0,
			"byteLength":8064,
			"byteOffset":83104,
			"target":34962
		},
		{
			"buffer":0,
			"byteLength":8064,
			"byteOffset":91168,
			"target":34962
		},
		{
			"buffer":0,
			"byteLength":5376,
			"byteOffset":99232,
			"target":34962
		},
		{
			"buffer":0,
			"byteLength":2280,
			"byteOffset":104608,
			"target":34963
		},
		{
			"buffer":0,
			"byteLength":792,
			"byteOffset":106888,
			"target":34962
		},
		{
			"buffer":0,
			"byteLength":792,
			"byteOffset":107680,
			"target":34962
		},
		{
			"buffer":0,
			"byteLength":528,
			"byteOffset":108472,
			"target":34962
		},
		{
			"buffer":0,
			"byteLength":240,
			"byteOffset":109000,
			"target":34963
		},
		{
			"buffer":0,
			"byteLength":768,
			"byteOffset":109240,
			"target":34962
		},
		{
			"buffer":0,
			"byteLength":768,
			"byteOffset":110008,
			"target":34962
		},
		{
			"buffer":0,
			"byteLength":512,
			"byteOffset":110776,
			"target":34962
		},
		{
			"buffer":0,
			"byteLength":192,
			"byteOffset":111288,
			"target":34963
		},
		{
			"buffer":0,
			"byteLength":840,
			"byteOffset":111480,
			"target":34962
		},
		{
			"buffer":0,
			"byteLength":840,
			"byteOffset":112320,
			"target":34962
		},
		{
			"buffer":0,
			"byteLength":560,
			"byteOffset":113160,
			"target":34962
		},
		{
			"buffer":0,
			"byteLength":240,
			"byteOffset":113720,
			"target":34963
		}
	],
	"buffers":[
		{
			"byteLength":113960,
			"uri":"Cars.bin"
		}
	]
}
